<?xml version="1.0" standalone="no"?>
<!DOCTYPE svg PUBLIC "-//W3C//DTD SVG 20010904//EN"
 "http://www.w3.org/TR/2001/REC-SVG-20010904/DTD/svg10.dtd">
<svg version="1.0" xmlns="http://www.w3.org/2000/svg"
 width="500.000000pt" height="500.000000pt" viewBox="0 0 500.000000 500.000000"
 preserveAspectRatio="xMidYMid meet">
<metadata>
Created by potrace 1.14, written by Peter Selinger 2001-2017
</metadata>
<g transform="translate(0.000000,500.000000) scale(0.100000,-0.100000)"
fill="#000000" stroke="none">
<path d="M788 3235 c-2 -1 -32 -5 -68 -8 -317 -28 -581 -214 -676 -479 -9 -24
-17 -50 -19 -58 -2 -8 -8 -33 -13 -56 -15 -68 -14 -214 3 -299 16 -79 75 -219
111 -266 74 -94 178 -178 269 -219 28 -12 59 -26 70 -31 25 -11 136 -36 195
-44 55 -8 263 -8 287 -1 10 2 40 7 68 11 57 7 197 33 200 37 1 2 30 84 65 183
34 99 65 186 68 193 3 10 -8 12 -48 10 -52 -3 -52 -3 -82 -58 -106 -193 -248
-289 -407 -277 -88 7 -105 12 -180 48 -126 62 -232 209 -277 384 -25 98 -25
333 0 425 30 112 81 205 149 273 99 100 200 138 341 132 171 -8 278 -85 343
-246 l28 -69 43 2 c40 1 43 3 38 27 -3 14 -8 46 -11 71 -4 25 -8 56 -10 70 -2
14 -9 62 -16 108 -6 45 -15 82 -20 82 -14 0 -20 2 -69 16 -68 19 -194 36 -292
39 -48 1 -89 1 -90 0z"/>
<path d="M1850 3224 c-171 -28 -300 -107 -363 -221 -81 -151 -63 -315 49 -429
65 -65 129 -108 277 -181 240 -119 316 -193 319 -306 3 -178 -159 -275 -350
-210 -103 35 -198 128 -260 255 l-37 77 -42 1 c-34 0 -43 -4 -43 -17 0 -52 64
-339 79 -351 8 -7 46 -21 83 -32 434 -130 846 44 866 367 6 93 -10 155 -57
223 -54 79 -154 150 -329 236 -208 101 -270 143 -304 209 -52 100 -7 228 99
276 73 33 180 28 258 -13 51 -28 111 -96 145 -166 18 -37 38 -70 44 -74 9 -6
64 -3 72 4 2 2 -7 72 -18 156 l-22 152 -50 14 c-140 39 -292 50 -416 30z"/>
<path d="M2420 3202 c-5 -2 -10 -18 -10 -36 0 -32 2 -34 45 -39 53 -8 100 -30
108 -52 4 -8 7 -198 7 -422 1 -225 6 -432 12 -462 75 -411 673 -571 1003 -269
83 76 141 175 160 276 2 9 4 207 4 440 l1 424 29 28 c21 21 42 31 80 36 51 7
51 7 51 43 l0 36 -267 0 -268 0 -3 -37 c-3 -36 -1 -38 25 -39 67 -2 125 -26
143 -59 8 -14 10 -159 8 -458 -3 -429 -3 -438 -26 -494 -13 -32 -44 -79 -70
-107 -156 -166 -441 -127 -545 74 -41 81 -44 113 -44 555 l0 424 28 28 c15 15
37 29 48 29 12 1 26 3 31 4 6 1 21 3 34 4 20 1 23 6 21 34 -2 17 -3 34 -4 37
-1 6 -584 7 -601 2z"/>
<path d="M3956 3200 c-1 -3 -2 -21 -1 -40 0 -33 2 -35 45 -42 25 -4 57 -13 71
-19 54 -22 54 -17 54 -610 0 -541 0 -548 -21 -576 -12 -15 -35 -31 -53 -35
-103 -25 -96 -21 -96 -58 l0 -35 335 0 335 0 3 38 c3 30 0 37 -15 38 -36 1
-79 9 -115 20 -65 21 -71 47 -74 320 l-3 236 132 -2 c207 -4 196 -2 232 -38
24 -24 35 -46 40 -80 l7 -47 42 0 42 0 -1 218 0 217 -39 0 c-38 0 -39 -1 -55
-54 -10 -33 -26 -61 -41 -73 -30 -22 -148 -35 -276 -30 l-81 3 1 264 c1 202 4
267 14 277 9 9 50 13 150 12 117 -1 145 -5 187 -23 57 -25 95 -72 129 -157 11
-31 24 -55 29 -55 4 1 21 1 38 1 l31 0 -6 88 c-12 175 -17 236 -21 241 -7 6
-1016 7 -1019 1z"/>
<path d="M4848 1859 c-10 -5 -18 -15 -18 -22 0 -7 4 -6 10 3 6 10 10 11 10 3
0 -20 -4 -28 -12 -25 -17 5 -7 -18 12 -28 22 -12 59 2 61 23 5 49 -23 70 -63
46z m51 -17 c6 -11 6 -24 0 -33 -7 -11 -9 -9 -9 9 0 15 -4 21 -12 16 -6 -4 -8
-3 -4 4 3 5 0 13 -6 15 -8 3 -6 6 4 6 10 1 22 -7 27 -17z m-19 -42 c0 -5 -4
-10 -9 -10 -6 0 -13 5 -16 10 -3 6 1 10 9 10 9 0 16 -4 16 -10z"/>
</g>
</svg>
