<?xml version="1.0" standalone="no"?>
<!DOCTYPE svg PUBLIC "-//W3C//DTD SVG 20010904//EN"
 "http://www.w3.org/TR/2001/REC-SVG-20010904/DTD/svg10.dtd">
<svg version="1.0" xmlns="http://www.w3.org/2000/svg"
 width="1072.000000pt" height="1072.000000pt" viewBox="0 0 1072.000000 1072.000000"
 preserveAspectRatio="xMidYMid meet">
<metadata>
Created by potrace 1.11, written by Peter Selinger 2001-2013
</metadata>
<g transform="translate(0.000000,1072.000000) scale(0.100000,-0.100000)"
fill="#000000" stroke="none">
<path d="M5012 10403 c-20 -3 -32 -9 -29 -16 2 -7 50 -146 107 -309 57 -164
105 -296 107 -294 3 3 13 119 33 396 5 80 12 164 14 188 l4 42 -102 -2 c-55 0
-116 -3 -134 -5z"/>
<path d="M5495 10334 c3 -44 10 -128 15 -189 5 -60 12 -155 15 -210 11 -184 7
-189 126 150 60 169 107 311 104 314 -3 3 -65 7 -136 9 l-131 4 7 -78z"/>
<path d="M4790 10383 c-118 -14 -210 -25 -237 -30 l-31 -5 107 -161 c59 -89
145 -220 191 -292 52 -79 86 -122 88 -112 2 9 -3 59 -12 109 -8 51 -22 140
-31 198 -26 170 -47 295 -48 295 -1 1 -13 0 -27 -2z"/>
<path d="M5915 10368 c-2 -13 -22 -144 -44 -293 -22 -148 -43 -286 -47 -305
-5 -25 51 53 193 270 180 275 197 306 179 311 -12 4 -68 12 -126 19 -58 6
-115 14 -127 16 -17 3 -24 -1 -28 -18z"/>
<path d="M4220 10303 c-80 -13 -148 -28 -152 -31 -8 -8 70 -91 368 -393 194
-198 211 -212 194 -170 -10 25 -46 114 -80 196 -33 83 -86 212 -117 288 -31
75 -59 137 -62 136 -3 0 -71 -12 -151 -26z"/>
<path d="M6351 10307 c-5 -12 -66 -161 -135 -331 -69 -170 -125 -311 -123
-312 2 -2 139 133 306 300 244 244 300 305 285 310 -16 4 -310 56 -321 56 -2
0 -7 -10 -12 -23z"/>
<path d="M3701 10199 c-95 -21 -175 -40 -177 -42 -3 -2 150 -116 338 -253 188
-137 393 -287 456 -332 l114 -84 -42 59 c-23 32 -143 201 -267 376 -125 174
-231 317 -237 316 -6 0 -89 -18 -185 -40z"/>
<path d="M6643 9963 c-111 -153 -233 -322 -272 -375 l-70 -96 297 222 c163
122 366 273 451 336 l153 113 -168 38 c-93 21 -174 39 -180 39 -6 0 -101 -125
-211 -277z"/>
<path d="M3245 10089 c-140 -37 -512 -143 -597 -170 l-38 -12 0 -388 0 -387
98 -11 c53 -6 221 -25 372 -41 151 -17 400 -44 553 -61 154 -17 280 -29 282
-27 2 2 -274 124 -613 272 -339 148 -621 273 -627 277 -5 6 -2 9 8 9 9 0 337
-88 729 -195 391 -107 713 -193 714 -192 2 2 -132 88 -913 587 -183 117 -330
216 -327 221 3 5 26 -2 52 -15 26 -13 322 -155 657 -316 336 -161 618 -296
628 -301 9 -6 17 -8 17 -6 0 4 -211 205 -758 722 -41 39 -77 71 -80 72 -4 1
-74 -16 -157 -38z"/>
<path d="M7248 10043 c-51 -48 -95 -90 -98 -93 -3 -3 -152 -144 -332 -314
-181 -170 -328 -310 -328 -311 0 -2 186 87 413 197 226 110 439 213 472 228
33 15 153 73 268 128 114 56 207 96 207 89 0 -7 -76 -60 -168 -118 -271 -173
-1056 -680 -1066 -690 -5 -4 6 -4 25 1 324 87 1389 380 1403 386 14 5 17 3 14
-7 -3 -8 -90 -51 -194 -95 -887 -383 -1068 -464 -1019 -459 28 3 106 12 175
20 69 8 206 24 305 35 163 18 633 71 763 87 l52 6 0 387 c0 361 -1 388 -17
393 -362 105 -493 142 -608 172 -77 20 -148 38 -157 41 -12 4 -46 -22 -110
-83z"/>
<path d="M5750 9444 c-197 -135 -473 -281 -652 -345 -49 -18 -88 -36 -88 -41
0 -4 18 -28 41 -53 103 -111 381 -248 763 -375 79 -27 145 -55 170 -75 39 -29
119 -125 112 -133 -7 -6 -170 36 -261 68 -272 96 -668 298 -1038 529 -80 50
-148 91 -151 91 -4 0 -45 -26 -94 -59 -167 -112 -568 -329 -613 -333 -13 -1
-294 80 -624 179 -330 100 -624 188 -652 197 l-53 15 0 -475 0 -474 28 16 c18
12 15 7 -11 -15 l-37 -32 2 -3666 3 -3666 195 -59 c907 -274 1905 -448 2577
-448 684 0 1734 188 2670 477 l92 29 3 4157 c3 3691 1 4156 -12 4153 -21 -6
-918 -279 -1062 -324 -64 -20 -114 -40 -111 -45 12 -19 -73 26 -184 98 -234
153 -567 397 -808 593 -55 45 -102 82 -105 81 -3 0 -48 -30 -100 -65z m-2969
-649 c57 -8 136 -19 174 -25 39 -6 138 -19 220 -31 83 -11 195 -26 250 -34
374 -52 353 -50 392 -31 19 9 38 14 41 11 3 -3 1 -5 -5 -5 -6 0 -26 -11 -45
-24 -71 -48 -330 -154 -314 -128 4 7 -315 108 -731 230 -68 20 -123 40 -123
44 0 11 22 10 141 -7z m5299 8 c0 -5 -183 -62 -406 -128 -307 -91 -401 -122
-389 -130 51 -31 41 -31 -30 1 -83 37 -193 99 -210 119 -5 7 -27 22 -47 34
-21 13 -38 25 -38 28 0 2 17 -6 38 -18 20 -13 44 -27 52 -32 10 -6 69 -1 165
13 83 12 193 28 245 35 52 8 145 21 205 29 61 9 162 23 225 32 63 8 117 17
119 20 8 7 71 4 71 -3z m-4180 -97 c0 -2 -7 -7 -16 -10 -8 -3 -12 -2 -9 4 6
10 25 14 25 6z m-460 -211 c-14 -8 -29 -14 -35 -14 -5 0 1 6 15 14 14 8 30 14
35 14 6 0 -1 -6 -15 -14z m3925 5 c3 -6 -1 -7 -9 -4 -18 7 -21 14 -7 14 6 0
13 -4 16 -10z m-3985 -30 c-8 -5 -19 -10 -25 -10 -5 0 -3 5 5 10 8 5 20 10 25
10 6 0 3 -5 -5 -10z m1258 -74 c79 -75 88 -175 28 -294 -29 -58 -24 -74 40
-131 44 -38 194 -121 220 -121 7 0 9 32 6 83 -3 78 -2 84 27 129 17 26 48 60
70 75 22 16 40 34 41 41 1 31 53 113 96 151 62 54 167 82 245 64 l36 -8 -52
-94 c-28 -52 -63 -103 -77 -114 -31 -23 -126 -47 -191 -47 -85 0 -146 -70
-147 -168 0 -39 22 -112 34 -112 14 0 159 57 209 82 68 34 148 104 146 127 -5
51 3 75 35 107 29 29 41 34 81 34 87 0 143 -60 132 -143 -11 -82 -103 -130
-176 -92 -32 16 -34 16 -94 -15 -70 -34 -280 -175 -285 -190 -6 -18 59 -92
263 -300 222 -226 249 -264 306 -430 30 -87 33 -105 33 -220 0 -91 -6 -152
-22 -223 l-21 -99 56 -56 c104 -106 200 -271 298 -517 27 -66 51 -124 55 -128
10 -11 180 123 288 227 l92 89 0 94 c0 161 -47 213 -132 143 -78 -64 -171 -96
-247 -84 -41 7 -142 60 -148 79 -2 6 39 31 90 58 80 41 100 47 153 47 48 0 74
-6 120 -30 119 -60 124 -32 15 78 -76 77 -80 80 -137 86 -76 9 -156 48 -194
94 -30 37 -75 140 -66 150 13 12 109 13 157 2 68 -16 138 -83 165 -158 16 -41
34 -64 92 -113 88 -73 168 -169 212 -250 23 -44 35 -57 44 -50 7 6 34 51 60
102 l49 92 -19 35 c-29 54 -157 178 -274 265 -258 191 -454 373 -603 558 -68
85 -84 100 -140 123 -122 53 -150 101 -155 268 l-4 117 83 -55 c160 -106 188
-148 189 -279 l0 -80 85 -82 c158 -152 378 -329 395 -318 17 11 7 70 -25 144
-23 56 -27 75 -23 132 5 60 12 80 68 179 72 128 71 128 131 17 31 -56 34 -70
34 -142 0 -68 -5 -88 -29 -135 -15 -30 -46 -77 -68 -103 -29 -35 -42 -61 -45
-91 -5 -39 -2 -44 29 -68 19 -15 113 -68 208 -118 96 -50 189 -102 208 -116
18 -14 36 -23 40 -20 3 4 6 66 5 139 -1 183 -25 267 -146 522 -52 110 -109
239 -127 288 -39 103 -44 104 -144 52 -55 -28 -78 -35 -124 -34 -62 0 -93 11
-221 77 l-83 43 21 23 c12 13 45 36 74 52 46 26 62 29 137 29 94 0 123 -11
232 -88 32 -23 60 -39 62 -36 2 2 -3 35 -12 73 -15 60 -21 71 -53 92 -78 49
-109 133 -90 237 14 70 40 158 51 170 11 12 138 -110 161 -154 29 -58 26 -161
-7 -227 -25 -50 -25 -52 -10 -112 19 -74 68 -198 104 -265 35 -65 55 -67 120
-15 l52 40 0 69 c0 57 -5 78 -32 130 -55 107 -41 240 40 368 15 24 31 43 35
43 14 0 74 -141 87 -203 15 -77 1 -138 -51 -212 -21 -31 -39 -64 -39 -74 0
-30 12 -81 19 -81 4 0 39 29 78 65 67 61 72 68 78 117 17 134 45 183 130 226
52 26 141 52 178 52 l29 0 -6 -57 c-9 -72 -33 -159 -54 -196 -29 -49 -140 -97
-222 -97 -31 0 -47 -9 -104 -61 -71 -65 -79 -83 -43 -93 41 -11 72 -6 121 19
89 45 221 32 365 -37 97 -46 98 -45 -19 -102 -57 -27 -75 -31 -145 -30 -88 1
-157 23 -229 74 -25 18 -66 33 -106 41 l-64 12 -51 -55 c-90 -100 -91 -91 26
-343 55 -121 106 -227 113 -236 10 -15 18 -12 71 33 131 108 305 209 448 257
53 18 53 19 56 85 1 38 57 92 103 101 47 9 102 -15 128 -57 75 -123 -77 -256
-188 -163 l-28 23 -68 -28 c-37 -16 -74 -35 -83 -42 -13 -11 -10 -15 23 -29
31 -13 60 -15 141 -11 95 4 106 3 155 -21 61 -30 167 -132 153 -146 -6 -5 -50
-14 -98 -20 -158 -19 -271 21 -307 109 -11 27 -92 80 -122 80 -19 0 -123 -79
-203 -153 -49 -46 -57 -58 -45 -67 8 -5 22 -7 30 -3 8 4 41 9 72 11 76 5 148
-28 228 -104 63 -60 137 -161 126 -172 -9 -9 -171 14 -234 33 -63 19 -119 66
-173 146 -48 71 -78 80 -115 36 -37 -44 -64 -102 -64 -139 0 -45 -33 -178 -66
-266 -18 -50 -24 -76 -16 -84 5 -5 81 -14 168 -19 188 -11 273 -24 332 -50
l44 -19 46 32 c26 18 66 47 88 66 38 31 42 39 47 95 17 171 77 223 278 243
l72 7 -6 -84 c-9 -110 -21 -149 -54 -182 -43 -40 -100 -59 -195 -65 l-87 -5
-71 -73 -71 -73 66 -60 67 -61 71 6 c97 8 175 -20 217 -78 24 -33 80 -174 80
-202 0 -5 -39 -6 -90 -3 -148 9 -249 72 -285 176 -26 71 -25 71 -120 128 -132
80 -200 98 -365 98 -74 0 -147 -4 -162 -8 l-27 -7 38 -63 c21 -34 44 -80 53
-102 15 -38 18 -40 68 -45 44 -5 58 -12 86 -43 66 -71 38 -188 -52 -217 -74
-25 -154 18 -174 92 -10 36 -8 46 15 92 l26 52 -21 57 c-23 61 -87 133 -127
143 -28 7 -65 -18 -96 -64 -19 -30 -128 -166 -194 -243 -11 -14 -2 -22 75 -68
117 -69 249 -168 343 -259 72 -68 83 -75 180 -107 57 -19 111 -35 120 -35 24
0 69 57 69 87 0 98 64 173 203 237 l97 45 0 -43 c0 -138 -83 -238 -238 -286
-35 -11 -73 -26 -84 -35 -25 -17 -24 -18 82 -40 147 -31 141 -32 196 16 104
90 217 115 318 70 60 -26 156 -98 156 -116 0 -18 -53 -61 -112 -91 -116 -59
-230 -50 -341 26 -37 25 -70 40 -89 40 -29 0 -28 -2 32 -47 70 -53 145 -146
156 -196 3 -17 18 -66 31 -107 59 -177 26 -275 -129 -379 l-47 -32 -15 34
c-17 42 -36 128 -36 166 0 79 61 191 130 236 37 25 38 46 1 111 -53 91 -120
137 -263 178 -82 23 -218 43 -218 32 0 -4 20 -43 44 -89 65 -120 80 -180 78
-318 -2 -118 -19 -225 -48 -298 -9 -22 -14 -47 -11 -54 3 -7 25 -24 50 -37
l44 -24 28 22 c56 44 149 20 181 -46 39 -82 -20 -182 -106 -182 -78 0 -130 49
-130 122 0 29 -7 39 -51 72 l-51 38 -15 -24 c-9 -12 -42 -48 -73 -78 -56 -54
-57 -56 -63 -123 -8 -87 -33 -142 -89 -193 -40 -37 -137 -84 -173 -84 -12 0
-15 16 -15 75 0 142 56 230 174 274 31 11 60 21 64 21 10 0 28 30 78 124 l42
80 -38 55 c-46 69 -84 143 -100 198 -15 49 -22 47 -52 -10 -19 -35 -22 -59
-23 -143 0 -114 -5 -125 -80 -172 -22 -13 -52 -35 -66 -49 l-27 -25 -11 65
c-23 131 -9 187 60 236 23 17 47 31 54 31 26 0 125 364 125 461 0 65 -1 68
-46 118 -151 168 -400 302 -557 301 -40 -1 -46 -5 -124 -89 l-83 -89 42 -27
c40 -26 43 -27 94 -15 64 16 119 9 181 -21 32 -16 69 -24 110 -25 135 -4 213
-81 213 -212 l0 -44 -57 7 c-136 16 -180 49 -219 166 -19 57 -24 64 -55 72
-41 11 -126 4 -141 -11 -8 -8 3 -26 40 -66 128 -140 146 -305 53 -468 -26 -44
-27 -52 -17 -83 8 -21 29 -47 54 -65 94 -68 132 -162 113 -276 -12 -66 -45
-161 -62 -178 -24 -25 -152 149 -169 229 -12 60 0 157 27 208 13 26 13 31 -1
45 -8 9 -17 14 -19 11 -3 -2 -25 -34 -49 -70 -35 -52 -46 -78 -52 -123 -14
-126 -78 -191 -211 -215 -98 -18 -98 -18 -90 36 20 136 105 230 226 248 53 8
78 34 139 147 42 80 67 158 72 228 4 57 -11 61 -76 18 -42 -28 -52 -41 -67
-86 -33 -104 -120 -163 -269 -183 -101 -14 -114 -10 -105 33 11 50 50 122 86
157 53 54 104 73 205 80 l91 6 61 53 c60 53 61 54 48 81 -18 34 -93 103 -137
127 -37 20 -164 26 -251 11 -42 -7 -51 -14 -107 -85 -75 -94 -133 -203 -161
-302 -38 -134 -37 -233 10 -640 52 -464 74 -607 111 -733 60 -204 152 -349
242 -381 23 -8 89 -20 147 -26 453 -47 1240 -184 1813 -315 144 -33 206 -54
122 -41 -135 21 -1065 96 -1545 125 -1068 65 -1673 53 -2905 -59 -335 -31
-867 -85 -940 -96 -92 -14 -15 9 186 55 574 132 1228 252 1674 306 104 12 143
21 192 46 137 66 227 231 269 494 13 79 18 219 23 655 4 305 3 587 -2 625 -15
128 -70 220 -189 324 -68 60 -86 70 -138 80 -72 14 -212 15 -258 2 -51 -15
-93 -45 -155 -110 -60 -63 -117 -167 -117 -213 0 -34 40 -63 105 -78 59 -13
75 -8 75 25 0 120 180 161 236 54 17 -34 18 -89 2 -124 -31 -69 -140 -85 -198
-30 -24 23 -33 26 -68 20 -55 -9 -108 3 -144 33 l-31 26 5 -89 c4 -66 13 -110
34 -165 l29 -75 88 -20 88 -19 25 32 c14 18 47 44 72 60 41 23 57 27 122 26
62 -1 89 -7 158 -36 46 -20 85 -38 88 -40 12 -12 -110 -108 -161 -127 -94 -35
-213 -22 -289 32 -32 22 -146 38 -146 20 0 -6 22 -41 48 -79 l49 -68 94 -1
c85 0 99 -3 142 -28 26 -16 68 -54 92 -85 54 -68 49 -74 -70 -80 -132 -7 -208
26 -256 108 -14 25 -53 73 -87 108 -34 35 -89 104 -122 154 -57 87 -59 89 -66
62 -3 -16 -15 -59 -25 -96 -18 -63 -19 -71 -4 -120 31 -107 9 -169 -91 -249
-35 -28 -73 -62 -84 -76 l-20 -26 -16 39 c-22 52 -30 171 -14 218 16 48 61
100 116 132 24 14 45 33 48 42 24 81 57 322 44 322 -3 0 -39 -16 -80 -35 -42
-19 -112 -45 -158 -58 -94 -27 -109 -43 -134 -142 -14 -53 -14 -60 0 -76 23
-26 29 -90 11 -125 -56 -107 -202 -113 -251 -10 -44 92 9 187 112 202 26 4 55
10 64 15 20 11 53 56 62 85 6 20 2 21 -72 27 -43 3 -91 11 -107 17 -17 7 -50
8 -78 5 -43 -6 -51 -12 -74 -49 -53 -86 -106 -126 -165 -126 -56 0 -228 23
-228 31 0 4 19 36 43 71 91 133 203 177 310 122 17 -9 48 -14 77 -12 l50 3
-58 46 c-39 31 -75 50 -110 59 -60 14 -126 59 -160 110 -31 46 -54 130 -50
184 l3 44 65 -25 c124 -47 142 -57 174 -95 36 -42 56 -96 56 -151 0 -42 34
-86 110 -142 41 -30 55 -35 105 -35 73 0 160 23 253 65 69 32 72 35 72 67 0
75 -107 218 -162 218 -93 0 -183 75 -211 176 -19 67 -21 102 -8 123 8 12 18
13 65 2 117 -26 206 -125 206 -230 0 -46 0 -46 56 -76 61 -33 92 -67 122 -134
l20 -43 25 34 c18 23 27 52 32 98 15 131 62 238 143 323 l37 39 -47 42 c-80
74 -258 150 -421 181 -156 30 -375 13 -453 -34 -22 -13 -34 -33 -48 -77 -24
-78 -58 -144 -88 -170 -18 -17 -45 -24 -133 -33 -60 -6 -120 -14 -132 -17 -20
-5 -23 -3 -23 21 0 38 28 142 50 184 44 86 120 121 263 121 42 0 77 4 77 9 0
18 -26 28 -84 34 -74 7 -157 48 -194 95 -23 29 -96 160 -121 216 -2 5 34 7 80
4 69 -3 94 -10 137 -33 65 -35 116 -101 148 -193 13 -37 35 -81 49 -99 23 -30
27 -31 58 -21 17 6 38 15 45 21 21 17 13 64 -20 118 -27 43 -33 61 -33 113 0
66 11 90 95 205 l40 54 25 -54 c13 -30 30 -89 36 -131 10 -68 9 -80 -8 -119
-11 -24 -36 -64 -56 -87 -21 -25 -37 -55 -37 -69 0 -22 3 -25 28 -19 145 31
215 38 352 33 92 -3 169 -11 210 -22 86 -23 216 -84 290 -136 l60 -42 70 47
c39 27 70 52 70 58 0 5 -42 56 -94 113 -122 136 -273 316 -361 432 -56 74 -78
95 -108 104 -28 9 -43 9 -62 1 -37 -17 -40 -38 -11 -73 20 -24 26 -41 26 -81
0 -44 -4 -54 -34 -84 -29 -29 -41 -34 -80 -34 -26 0 -60 7 -76 15 -53 28 -76
108 -47 165 18 36 74 70 116 70 29 0 41 7 63 34 16 19 41 37 58 41 16 4 30 8
30 10 0 2 -15 25 -33 51 -18 27 -42 66 -54 86 -39 67 -72 76 -291 79 l-192 4
-59 -59 c-45 -45 -61 -68 -66 -97 -13 -75 -75 -137 -159 -160 -46 -13 -176 -7
-218 10 l-27 10 15 53 c38 127 120 188 254 188 41 0 89 -4 106 -9 26 -7 39 -4
72 15 33 20 60 51 50 59 -2 1 -32 10 -68 19 -72 20 -220 85 -220 96 0 17 44
17 83 0 23 -10 43 -17 46 -15 9 9 -31 56 -62 71 -46 23 -76 53 -100 99 -18 34
-22 60 -23 163 -2 67 0 122 4 122 15 0 73 -41 110 -78 67 -67 86 -120 87 -247
1 -139 2 -142 20 -149 48 -18 199 -27 292 -16 154 17 224 31 230 46 3 8 -17
65 -45 127 -60 132 -76 145 -142 122 -91 -32 -157 -11 -260 85 -81 75 -82 79
-10 100 59 17 140 12 187 -11 24 -12 69 -50 101 -85 31 -35 60 -64 63 -64 4 0
-11 46 -31 103 -21 56 -48 136 -60 179 -23 76 -23 76 -65 87 -51 13 -101 65
-110 115 -9 43 23 118 60 142 41 27 114 29 153 5 86 -54 96 -162 22 -231 l-29
-27 23 -74 c38 -122 132 -339 146 -339 4 0 10 24 13 54 6 61 26 105 71 158 17
20 43 54 58 76 55 83 167 118 291 92 67 -13 72 -27 30 -82 -36 -46 -76 -79
-132 -108 -37 -18 -55 -21 -105 -17 -34 3 -73 9 -88 12 -23 6 -29 2 -45 -26
-40 -75 -6 -319 61 -432 32 -56 169 -251 213 -305 50 -61 337 -326 340 -315 2
5 -10 36 -27 67 -49 95 -43 131 45 263 l45 66 21 -47 c27 -61 44 -154 35 -197
-3 -19 -24 -58 -46 -87 -50 -66 -51 -76 -2 -67 50 9 184 54 199 67 7 6 13 24
13 41 0 98 107 187 226 187 l32 0 -27 -80 c-15 -44 -36 -89 -47 -101 -25 -27
-80 -56 -127 -64 -36 -7 -66 -30 -53 -42 3 -4 29 -1 57 5 108 25 184 9 247
-51 39 -37 66 -83 57 -97 -3 -6 -51 -10 -107 -10 -120 0 -152 12 -210 81 -27
32 -49 49 -64 49 -13 0 -54 -16 -93 -35 -38 -19 -74 -35 -80 -35 -21 0 -11
-18 37 -61 93 -87 218 -149 374 -185 63 -14 84 -15 116 -6 91 28 126 82 182
287 23 83 74 251 115 374 l74 224 -22 18 c-24 20 -211 127 -269 155 l-38 18
-37 -31 c-21 -16 -48 -50 -60 -76 -28 -59 -84 -114 -142 -141 -37 -17 -66 -21
-151 -21 -58 0 -114 4 -124 8 -18 7 -18 9 6 35 14 15 49 58 77 96 62 83 97
111 162 126 38 9 64 9 113 0 55 -10 68 -10 95 4 17 9 31 20 31 24 0 4 -45 31
-100 60 -54 30 -170 100 -256 157 l-158 103 -36 -14 c-50 -20 -95 -76 -147
-182 -25 -51 -44 -94 -42 -95 2 -2 16 -8 32 -15 57 -24 84 -111 52 -171 -31
-61 -131 -77 -182 -29 -62 58 -51 151 23 194 41 24 44 29 44 67 1 92 43 201
106 275 19 23 34 46 32 50 -2 5 -43 43 -93 86 -96 82 -192 193 -220 257 -21
46 -54 56 -125 40 -25 -6 -77 -11 -116 -11 -128 0 -179 30 -241 144 l-41 76
37 10 c51 14 189 12 234 -4 59 -22 114 -64 147 -115 35 -54 51 -74 56 -69 2 2
-5 42 -14 89 -13 65 -26 96 -53 134 -54 75 -69 109 -69 162 0 80 87 233 133
233 21 0 105 -94 127 -143 37 -81 24 -141 -56 -261 l-34 -51 15 -55 c24 -91
82 -196 147 -265 33 -36 64 -65 68 -65 4 0 1 23 -6 52 -28 105 -7 259 47 343
48 75 149 125 254 125 32 0 35 -3 35 -27 -1 -64 -82 -188 -143 -220 -18 -9
-61 -19 -97 -22 -63 -6 -65 -7 -70 -36 -3 -16 -4 -42 -2 -57 4 -28 5 -28 76
-28 72 0 72 0 87 32 29 67 118 97 179 62 110 -66 61 -234 -69 -234 -46 0 -105
43 -115 85 -6 23 -11 25 -61 25 -80 0 -86 -18 -38 -115 37 -75 40 -77 143
-144 221 -143 896 -525 915 -517 16 6 43 125 51 223 l7 83 -58 26 c-51 24 -64
26 -119 19 -89 -12 -129 -9 -172 11 -45 20 -188 160 -179 174 10 17 78 30 156
30 97 0 163 -31 220 -102 21 -27 39 -54 39 -58 0 -13 88 -62 99 -56 15 10 -17
123 -57 200 -29 56 -62 96 -155 186 -123 119 -220 238 -262 319 -21 42 -31 50
-92 76 -164 68 -254 139 -297 234 -15 33 -36 67 -48 75 -38 27 -87 107 -94
153 -9 58 8 114 53 180 41 61 47 60 121 -11z m3122 33 c151 -4 285 -8 298 -8
44 -2 21 -20 -35 -26 -32 -4 -121 -16 -198 -27 -77 -11 -152 -20 -166 -19 -32
1 -164 62 -199 91 l-25 21 25 -12 c17 -9 108 -15 300 -20z m-4450 7 c-20 -19
-187 -86 -219 -88 -29 -1 -444 52 -450 58 -13 12 37 16 329 24 176 4 324 11
327 14 4 3 11 6 17 6 6 0 4 -6 -4 -14z m-270 -105 c-8 -5 -26 -11 -40 -15 -21
-5 -20 -3 5 9 32 15 60 20 35 6z m4758 -28 c24 -8 41 -17 39 -19 -5 -6 -117
36 -117 43 0 3 8 2 18 -2 9 -4 36 -14 60 -22z m-4848 -7 c0 -2 -9 -6 -20 -9
-11 -3 -18 -1 -14 4 5 9 34 13 34 5z m4930 -26 c8 -5 11 -10 5 -10 -5 0 -17 5
-25 10 -8 5 -10 10 -5 10 6 0 17 -5 25 -10z m-5025 -10 c-27 -12 -43 -12 -25
0 8 5 22 9 30 9 10 0 8 -3 -5 -9z m5125 -35 c28 -14 50 -28 50 -30 0 -5 -99
42 -109 51 -12 11 15 1 59 -21z m-5229 0 c-18 -8 -36 -15 -40 -15 -13 1 45 29
59 29 8 0 0 -6 -19 -14z m-51 -19 c0 -2 -7 -7 -16 -10 -8 -3 -12 -2 -9 4 6 10
25 14 25 6z m5395 -41 c22 -14 36 -25 30 -25 -5 1 -28 12 -50 25 -22 14 -35
25 -30 25 6 -1 28 -12 50 -25z m-2973 -5831 l76 -17 16 -66 c25 -110 29 -163
14 -172 -26 -17 -38 -8 -68 54 -38 76 -63 104 -115 128 -48 22 -142 25 -189 5
-53 -22 -89 -78 -94 -145 -8 -107 45 -170 217 -261 181 -95 260 -193 269 -335
7 -110 -16 -174 -86 -245 -76 -76 -142 -101 -277 -108 -120 -5 -213 10 -280
46 -44 24 -51 33 -67 82 -9 31 -17 89 -17 133 l-1 77 28 0 c23 0 30 -8 52 -58
32 -75 139 -185 195 -201 197 -54 344 105 256 278 -28 53 -93 110 -195 166
-167 93 -252 197 -263 323 -18 201 159 353 392 337 33 -3 95 -12 137 -21z
m-895 -24 c50 -12 96 -27 102 -34 11 -13 41 -233 33 -241 -3 -3 -15 -5 -28 -5
-18 0 -26 10 -40 52 -25 78 -112 161 -189 183 -88 26 -232 18 -308 -17 -115
-54 -206 -168 -242 -305 -21 -77 -21 -250 -1 -336 64 -274 307 -432 550 -357
81 25 169 102 212 185 27 52 54 70 69 45 8 -13 -30 -171 -54 -225 l-18 -41
-99 -25 c-84 -20 -123 -24 -254 -24 -171 1 -236 13 -350 66 -137 64 -237 171
-288 308 -33 88 -41 246 -18 345 52 221 229 381 483 437 117 25 308 21 440
-11z m1587 12 c-1 -7 -2 -16 -2 -22 -1 -5 -24 -12 -52 -16 -88 -12 -85 4 -85
-393 0 -331 1 -349 23 -418 44 -140 134 -213 268 -216 95 -2 155 17 213 69 56
51 95 129 110 224 13 80 14 511 1 599 -11 82 -33 112 -96 132 -35 11 -50 21
-52 36 -3 20 1 21 190 19 106 0 196 -5 200 -10 12 -18 -4 -34 -40 -41 -51 -10
-71 -22 -84 -53 -7 -17 -14 -155 -19 -362 -8 -364 -15 -415 -72 -512 -79 -135
-256 -202 -468 -178 -112 13 -185 40 -242 91 -52 46 -78 83 -103 154 -15 43
-18 99 -23 420 -7 423 -5 416 -86 436 -48 12 -60 22 -52 43 7 18 473 16 471
-2z m1614 -109 l-3 -128 -26 -3 c-23 -3 -27 2 -42 56 -20 72 -55 106 -127 121
-54 12 -228 15 -254 5 -14 -5 -16 -35 -16 -225 l0 -219 26 -6 c39 -10 246 1
271 14 14 8 27 32 38 67 12 43 20 55 35 55 19 0 20 -8 20 -185 0 -177 -1 -185
-19 -185 -16 0 -24 13 -37 60 -9 34 -25 65 -34 70 -24 13 -219 24 -264 16
l-37 -7 3 -219 c2 -154 7 -223 15 -231 7 -7 43 -17 80 -23 57 -10 68 -15 71
-32 3 -21 2 -21 -252 -20 l-256 1 0 22 c0 19 7 23 50 29 90 12 85 -20 85 521
l0 475 -24 19 c-13 10 -35 19 -50 19 -32 0 -52 17 -44 37 5 12 42 13 242 8
130 -3 292 -2 361 3 69 5 140 10 158 11 l33 1 -3 -127z"/>
<path d="M5557 6203 c-32 -247 -35 -557 -7 -601 22 -34 69 -45 126 -31 59 14
91 40 115 95 18 40 18 43 -1 110 -10 38 -37 114 -60 169 -42 102 -149 305
-161 305 -4 0 -9 -21 -12 -47z"/>
<path d="M6950 5089 c-28 -66 8 -328 58 -426 l20 -38 13 45 c8 25 13 95 14
160 0 115 0 115 -42 203 -23 48 -44 87 -46 87 -3 0 -10 -14 -17 -31z"/>
</g>
</svg>
