<svg xmlns="http://www.w3.org/2000/svg" viewBox="0 0 350.3 80.52"><defs><style>.cls-1{fill:#003663;}.cls-2{fill:#fff;}.cls-3{fill:#f58220;}</style></defs><g id="Layer_2" data-name="Layer 2"><g id="tree-merged"><path class="cls-1" d="M86.16,47.76c3.08,0,5.78,0,6.79-.14,0,1.06,0,4.67.09,6.93-.19.39-1.06.49-1.54.2-.48-2.8-1.25-4.19-3.08-4.67a15.27,15.27,0,0,0-4-.39H81.92c-2,0-2,.1-2,2.79V61.1c0,1.21,0,1.3,1.15,1.3h2.84c4.19,0,4.92-.09,5.4-2.11l.38-1.64a1.1,1.1,0,0,1,1.45.05c-.05,1.25-.15,3-.15,4.81s.1,3.52.15,5a1.1,1.1,0,0,1-1.45,0l-.38-1.88c-.44-2-1.21-2.12-5.4-2.12H81.05c-1.11,0-1.15.1-1.15,1.3v6.74c0,5.11.43,5.16,2.69,5.45l2,.24c.33.33.28,1.2-.1,1.39-3.08-.09-5.25-.14-7.37-.14s-4.28,0-6.5.14c-.38-.19-.43-1.06-.1-1.39l1.06-.15c2.27-.29,2.7-.43,2.7-5.54V54.7c0-5.11-.43-5.25-2.7-5.59L71,49c-.34-.34-.29-1.21.09-1.4,1.69.1,3.86.14,6,.14Z"/><path class="cls-1" d="M100.17,54.7c0-5.11-.43-5.2-2.7-5.59L96.66,49a1,1,0,0,1,.09-1.35c1.93.1,4.1.14,6.21.14s4.34,0,6.46-.14a1,1,0,0,1,.09,1.35l-1.06.14c-2.26.29-2.69.48-2.69,5.59v11c0,6.64,2,12.23,8.71,12.23,6.31,0,8.91-4.77,8.91-12.09v-6c0-3.61,0-8.09-.91-9.48a3.12,3.12,0,0,0-2.41-1.26l-1-.14c-.44-.34-.39-1.21.09-1.35,1.64.1,3.47.14,5.35.14s3.32,0,5.1-.14a.93.93,0,0,1,.1,1.35l-1.06.24c-.91.19-1.78.38-2.12,1.16-.67,1.44-.67,5.68-.67,9.48v5.73c0,4.38-.68,8.43-3.18,11.13a12.67,12.67,0,0,1-9.44,3.61c-4.53,0-7.71-1-9.92-3.08s-3.18-5.45-3.18-10.31Z"/><path class="cls-1" d="M142.36,71.6c0,2.41.09,4.14.82,5,.57.68,1.34,1.06,5.2,1.06,5.34,0,6.11-.24,8.33-5.2a1.28,1.28,0,0,1,1.49.29,44.75,44.75,0,0,1-2,7c-2-.09-6.16-.14-11.56-.14h-5c-2.45,0-4.86,0-6.88.14-.39-.19-.53-1.15-.1-1.39l1.44-.24c2.27-.39,2.7-.44,2.7-5.45V54.7c0-5-.43-5.15-2.7-5.49L132.73,49c-.34-.24-.34-1.21.09-1.4,2.41.1,4.58.14,6.79.14s4.29,0,6.41-.14a1,1,0,0,1,.09,1.4l-1.06.19c-2.26.38-2.69.48-2.69,5.49Z"/><path class="cls-1" d="M169.81,71.6c0,2.41.09,4.14.82,5,.57.68,1.35,1.06,5.2,1.06,5.34,0,6.11-.24,8.33-5.2a1.28,1.28,0,0,1,1.49.29,44.75,44.75,0,0,1-2,7c-2-.09-6.16-.14-11.56-.14h-5c-2.45,0-4.86,0-6.88.14-.39-.19-.53-1.15-.1-1.39l1.45-.24c2.26-.39,2.69-.44,2.69-5.45V54.7c0-5-.43-5.15-2.69-5.49L160.18,49c-.34-.24-.34-1.21.09-1.4,2.41.1,4.58.14,6.79.14s4.29,0,6.41-.14a1,1,0,0,1,.09,1.4l-1.05.19c-2.27.38-2.7.48-2.7,5.49Z"/><path class="cls-1" d="M191.67,54.7c0-5.11-.43-5.3-2.69-5.59l-.77-.09c-.34-.34-.29-1.21.09-1.4,1.83.1,4.1.14,6.22.14h9.19c3.08,0,5.88,0,6.5-.14.2.82.49,4.62.77,6.69-.19.39-1.15.49-1.54.2-.77-2.8-1.49-3.95-3-4.39a16.22,16.22,0,0,0-3.85-.43h-3.23c-2.07,0-2.07.1-2.07,2.84v8.14c0,1.25.05,1.3,1.16,1.3h2.31c4.19,0,4.91,0,5.34-2.12l.34-1.64c.38-.33,1.3-.33,1.54,0,0,1.3-.14,3-.14,4.82s.09,3.51.14,5a1.36,1.36,0,0,1-1.54.05l-.34-1.92c-.34-2-1.15-2.12-5.34-2.12h-2.31c-1.11,0-1.16.09-1.16,1.3v6.11c0,2.46.1,4.19.82,5s1.4,1,5.44,1.06c6.12,0,7.18-1.3,8.86-5.2a1.14,1.14,0,0,1,1.54.29,31.13,31.13,0,0,1-2,7c-2.12-.09-6.26-.14-11.9-.14h-5.48c-2.12,0-5.06,0-7.23.14-.38-.19-.43-1.06-.1-1.39l1.79-.2c2.26-.24,2.69-.38,2.69-5.49Z"/><path class="cls-1" d="M220.09,55c0-4.62-.05-5.2-2.32-5.44l-1.25-.15a1,1,0,0,1,0-1.35c3-.29,7.13-.43,11.08-.43,3.75,0,7,.48,9.15,1.64a7.56,7.56,0,0,1,4.23,7c0,4.43-3.41,6.64-5.77,7.61-.29.14-.2.53,0,.82,3.85,6.5,6.26,10.59,8.52,12.47a6.2,6.2,0,0,0,3.32,1.49.88.88,0,0,1,.1,1,12.75,12.75,0,0,1-3.18.29c-4.62,0-7.13-1.87-10.06-6.35-1.3-2-2.65-4.67-3.81-6.55-.87-1.45-1.4-1.64-3-1.64s-1.5,0-1.5,1.06v6.16c0,5.11.44,5.25,2.7,5.54l1.06.15c.34.33.29,1.2-.1,1.39-2.12-.09-4.28-.14-6.4-.14s-4.29,0-6.5.14a.94.94,0,0,1-.1-1.39l1.06-.15c2.26-.29,2.7-.43,2.7-5.54Zm5.58,6.93c0,1.54,0,1.64,2.31,1.64,4.72,0,6.89-2.31,6.89-6.89,0-3.8-2.46-7.12-6.64-7.12-2.51,0-2.56.14-2.56,2.36Z"/><path class="cls-1" d="M257.7,51.81c0-2-.05-2.12-1.3-2.12h-2.7c-4.43,0-5.73.53-7.51,4.43a1.19,1.19,0,0,1-1.54-.34c.82-2.6,1.54-5.58,1.88-7.27a.61.61,0,0,1,.53-.19.57.57,0,0,1,.48.19c.24,1.21.91,1.25,4.19,1.25h19.65c2.35,0,3.08-.14,3.66-1.25a1.42,1.42,0,0,1,.57-.19.79.79,0,0,1,.63.24,33.7,33.7,0,0,0-.72,7.66,1.16,1.16,0,0,1-1.5.14c-.62-3.75-1.54-4.67-6.69-4.67h-2.74c-1.26,0-1.3.1-1.3,2.12v20.8c0,5.11.43,5.25,2.69,5.49l1.74.2c.33.33.28,1.2-.1,1.39-2.79-.09-5-.14-7.08-.14s-4.38,0-7.46.14a1,1,0,0,1-.1-1.39l2-.24c2.27-.29,2.7-.34,2.7-5.45Z"/><path class="cls-1" d="M311.64,63.75c0,9.49-7.23,16.57-17,16.57-10.88,0-17.14-7.66-17.14-16.23,0-9.82,7.13-17.1,17.24-17.1C305.9,47,311.64,55,311.64,63.75Zm-27.55-1.06c0,6.65,2.84,15.7,11.08,15.7,5.49,0,9.92-4.09,9.92-13.77,0-7.27-3.28-15.7-10.94-15.7C289.34,48.92,284.09,52.44,284.09,62.69Z"/><path class="cls-1" d="M344.67,71.36c0,1.45,0,7.37.15,8.48a1.83,1.83,0,0,1-1.64.67c-.77-1-2.17-2.65-5.63-6.6L326.28,61.06c-3.08-3.57-4.67-5.35-5.49-6.07-.15,0-.15.53-.15,3.08v9.39c0,3.61.05,8,.87,9.49a3,3,0,0,0,2.46,1.2l1.06.15c.43.33.38,1.25-.1,1.39-1.78-.09-3.66-.14-5.49-.14-2,0-3.32,0-5,.14a1,1,0,0,1-.1-1.39l1.06-.24c.92-.2,1.79-.34,2.12-1.11.63-1.49.63-5.69.63-9.49V56.05c0-3.76.05-4.53-1.59-5.93a8,8,0,0,0-2.55-1l-.73-.14c-.33-.29-.28-1.26.2-1.4,1.83.19,4.48.14,5.68.14,1,0,2.17,0,3.32-.14.82,2.07,6.07,8.14,7.76,10l4.81,5.2c2,2.21,6.5,7.32,7,7.61.15-.15.15-.39.15-1.16V59.85c0-3.61-.05-8-.92-9.48a2.91,2.91,0,0,0-2.4-1.21L337.74,49c-.43-.34-.39-1.26.1-1.4,1.87.1,3.65.14,5.53.14,2.07,0,3.33,0,5.06-.14a1,1,0,0,1,.1,1.4l-1.11.24c-.92.19-1.74.33-2.07,1.11-.68,1.49-.68,5.68-.68,9.48Z"/><path class="cls-1" d="M82.35,28.72a.44.44,0,0,1-.56,0,3.23,3.23,0,0,0-3.41-2.56c-2.24,0-4.49,1.58-4.49,5.18s2.34,5.57,4.61,5.57a3.83,3.83,0,0,0,3.67-2.61.35.35,0,0,1,.53.07,7,7,0,0,1-.84,2.67,4.34,4.34,0,0,0-.62.16,10.57,10.57,0,0,1-2.74.42A8,8,0,0,1,74,36.47a5.54,5.54,0,0,1-2.5-4.83A5.74,5.74,0,0,1,73.72,27a8.1,8.1,0,0,1,4.85-1.5,13.57,13.57,0,0,1,3,.39l.49.11C82.14,26.38,82.17,27.42,82.35,28.72Z"/><path class="cls-1" d="M87.06,33.06c-.46,0-.44,0-.6.47l-.72,2.11c-.35,1-.28,1.08.37,1.18l.51.09c.12.12.11.44,0,.51-.56,0-1.14,0-1.86-.05s-1.12,0-1.74.05a.4.4,0,0,1,0-.51l.53-.09c.51-.09.7-.23,1-.81s.49-1.19.86-2.14l2.41-6.26a3.05,3.05,0,0,0,.33-1.28,3.05,3.05,0,0,0,1.23-.85.38.38,0,0,1,.3.14c.28.8.51,1.62.79,2.41l2.53,7.37c.41,1.18.49,1.28,1.39,1.46l.26,0a.36.36,0,0,1,0,.51c-.72,0-1.37-.05-2.28-.05-.76,0-1.53,0-2.15.05a.4.4,0,0,1-.05-.51l.39,0c.63-.09.72-.2.45-.94l-.82-2.39c-.16-.47-.23-.47-.72-.47Zm2.11-.79c.49,0,.56,0,.42-.46l-.74-2.11a10.2,10.2,0,0,0-.49-1.39h0c-.07.13-.22.57-.52,1.39l-.74,2.06c-.18.51-.14.51.28.51Z"/><path class="cls-1" d="M99,34.47a3.14,3.14,0,0,0,.3,1.81c.21.24.49.38,1.9.38,2,0,2.23-.08,3-1.9a.49.49,0,0,1,.55.11,16.78,16.78,0,0,1-.74,2.55c-.74,0-2.25-.05-4.22-.05H98c-.89,0-1.77,0-2.51.05-.14-.07-.2-.42,0-.51l.53-.09c.83-.14,1-.16,1-2V28.3c0-1.83-.15-1.88-1-2l-.49-.07c-.13-.09-.13-.44,0-.51.88,0,1.67.05,2.48.05s1.57,0,2.34-.05a.34.34,0,0,1,0,.51l-.38.07c-.83.14-1,.18-1,2Z"/><path class="cls-1" d="M109.28,34.83c0,1.87.15,1.92,1,2l.39,0a.38.38,0,0,1,0,.51c-.77,0-1.56-.05-2.34-.05s-1.6,0-2.37.05a.37.37,0,0,1,0-.51l.38,0c.83-.11,1-.16,1-2V28.3c0-1.87-.16-1.92-1-2l-.38-.05a.37.37,0,0,1,0-.51c.77,0,1.56.05,2.37.05s1.57,0,2.34-.05a.38.38,0,0,1,0,.51l-.39.05c-.83.11-1,.16-1,2Z"/><path class="cls-1" d="M118.22,25.76c1.13,0,2.11,0,2.48-.05,0,.39,0,1.71,0,2.53-.07.14-.39.18-.57.07-.17-1-.45-1.53-1.12-1.7a5.82,5.82,0,0,0-1.48-.14h-.89c-.74,0-.74,0-.74,1v3.14c0,.44,0,.48.42.48h1c1.53,0,1.79,0,2-.78l.15-.59a.38.38,0,0,1,.52,0c0,.46,0,1.11,0,1.76s0,1.29,0,1.83a.4.4,0,0,1-.52,0l-.15-.69c-.15-.74-.43-.77-2-.77h-1c-.41,0-.42,0-.42.47v2.46c0,1.87.16,1.89,1,2l.74.09c.12.12.11.44,0,.51-1.12,0-1.91-.05-2.69-.05s-1.56,0-2.37.05a.37.37,0,0,1,0-.51l.38,0c.83-.11,1-.16,1-2V28.3c0-1.87-.16-1.92-1-2l-.23,0a.38.38,0,0,1,0-.51c.62,0,1.41.05,2.18.05Z"/><path class="cls-1" d="M134.8,31.6a6,6,0,0,1-6.19,6,5.88,5.88,0,0,1-6.26-5.93,6.05,6.05,0,0,1,6.29-6.24A5.84,5.84,0,0,1,134.8,31.6Zm-10.06-.39c0,2.43,1,5.73,4,5.73,2,0,3.62-1.49,3.62-5,0-2.66-1.2-5.73-4-5.73C126.66,26.19,124.74,27.47,124.74,31.21Z"/><path class="cls-1" d="M136.75,28.4c0-1.69,0-1.9-.85-2l-.45-.06a.35.35,0,0,1,0-.49c1.11-.11,2.6-.16,4-.16a7.42,7.42,0,0,1,3.34.6,2.76,2.76,0,0,1,1.54,2.57,3,3,0,0,1-2.11,2.77c-.1.06-.07.2,0,.3,1.41,2.38,2.29,3.87,3.11,4.55a2.26,2.26,0,0,0,1.22.55.3.3,0,0,1,0,.35,4.79,4.79,0,0,1-1.16.11c-1.68,0-2.6-.69-3.67-2.32-.48-.74-1-1.71-1.39-2.39a1,1,0,0,0-1.09-.6c-.53,0-.54,0-.54.38v2.25c0,1.87.15,1.92,1,2l.39,0a.38.38,0,0,1,0,.51c-.77,0-1.56-.05-2.34-.05s-1.56,0-2.37.05a.34.34,0,0,1,0-.51l.38,0c.83-.11,1-.16,1-2Zm2,2.53c0,.57,0,.6.84.6A2.2,2.2,0,0,0,142.14,29a2.42,2.42,0,0,0-2.42-2.6c-.92,0-.93,0-.93.86Z"/><path class="cls-1" d="M158.38,34.38c0,.53,0,2.69.06,3.09a.66.66,0,0,1-.6.25c-.28-.37-.79-1-2.06-2.41l-4.11-4.69c-1.13-1.3-1.71-1.95-2-2.22-.06,0-.06.19-.06,1.13V33a10.68,10.68,0,0,0,.32,3.47,1.15,1.15,0,0,0,.9.44l.38,0c.16.12.14.46,0,.51-.65,0-1.34-.05-2-.05s-1.21,0-1.82.05a.35.35,0,0,1,0-.51l.39-.09c.33-.07.65-.12.77-.4A13.75,13.75,0,0,0,148.7,33V28.79c0-1.37,0-1.65-.58-2.16a3,3,0,0,0-.93-.36l-.27-.05c-.12-.1-.1-.46.07-.51.67.07,1.64.05,2.08.05s.79,0,1.21-.05a23.67,23.67,0,0,0,2.83,3.64l1.76,1.9c.74.81,2.37,2.67,2.55,2.78.05-.06.05-.14.05-.43V30.18a10.36,10.36,0,0,0-.33-3.47,1.1,1.1,0,0,0-.88-.44l-.41-.05c-.16-.12-.14-.46,0-.51.68,0,1.33.05,2,.05s1.21,0,1.85-.05a.36.36,0,0,1,0,.51l-.4.09c-.34.07-.64.12-.76.4a12.68,12.68,0,0,0-.25,3.47Z"/><path class="cls-1" d="M164.46,34.83c0,1.87.16,1.92,1,2l.39,0a.38.38,0,0,1,0,.51c-.77,0-1.56-.05-2.34-.05s-1.6,0-2.37.05a.38.38,0,0,1,0-.51l.39,0c.83-.11,1-.16,1-2V28.3c0-1.87-.16-1.92-1-2l-.39-.05a.38.38,0,0,1,0-.51c.77,0,1.56.05,2.37.05s1.57,0,2.34-.05a.38.38,0,0,1,0,.51l-.39.05c-.83.11-1,.16-1,2Z"/><path class="cls-1" d="M171.09,33.06c-.46,0-.44,0-.6.47l-.72,2.11c-.35,1-.28,1.08.37,1.18l.51.09c.12.12.11.44,0,.51-.57,0-1.15,0-1.87-.05s-1.12,0-1.74.05a.39.39,0,0,1,0-.51l.52-.09c.51-.09.71-.23,1-.81s.49-1.19.86-2.14l2.41-6.26a2.91,2.91,0,0,0,.33-1.28,3.05,3.05,0,0,0,1.23-.85.38.38,0,0,1,.3.14c.28.8.51,1.62.79,2.41l2.53,7.37c.41,1.18.5,1.28,1.39,1.46l.27,0a.37.37,0,0,1,0,.51c-.72,0-1.37-.05-2.28-.05s-1.53,0-2.15.05a.41.41,0,0,1-.05-.51l.39,0c.63-.09.72-.2.46-.94l-.83-2.39c-.16-.47-.23-.47-.72-.47Zm2.11-.79c.49,0,.56,0,.42-.46l-.74-2.11a10.2,10.2,0,0,0-.49-1.39h0c-.07.13-.23.57-.53,1.39l-.74,2.06c-.17.51-.14.51.28.51Z"/><path class="cls-1" d="M184.82,36.91a5.15,5.15,0,0,1-.53-2.67.39.39,0,0,1,.55-.07c.31.89,1.26,2.77,3,2.77a1.87,1.87,0,0,0,2.1-1.88,2.84,2.84,0,0,0-1.8-2.55l-.75-.42c-1.32-.74-2.48-1.81-2.48-3.39,0-1.74,1.3-3.22,3.87-3.22a11.47,11.47,0,0,1,2.4.37,7.23,7.23,0,0,1,.37,2.38.43.43,0,0,1-.56.05,2.49,2.49,0,0,0-2.37-2.09,1.79,1.79,0,0,0-2,1.84,2.62,2.62,0,0,0,1.67,2.15l1.09.58a4,4,0,0,1,2.41,3.46c0,2-1.53,3.43-4.08,3.43A5.29,5.29,0,0,1,184.82,36.91Z"/><path class="cls-1" d="M198,27.24c0-.74,0-.77-.48-.77h-1c-1.62,0-2.1.19-2.75,1.61a.43.43,0,0,1-.56-.12c.3-.95.56-2,.69-2.65,0-.06.1-.07.19-.07a.2.2,0,0,1,.18.07c.08.44.33.45,1.53.45H203c.86,0,1.12-.05,1.33-.45a.44.44,0,0,1,.21-.07c.11,0,.2,0,.23.09a12.83,12.83,0,0,0-.26,2.79.42.42,0,0,1-.55.05c-.22-1.37-.56-1.7-2.44-1.7h-1c-.46,0-.48,0-.48.77v7.59c0,1.87.16,1.92,1,2l.63.07c.12.12.11.44,0,.51-1,0-1.81-.05-2.59-.05s-1.6,0-2.72.05a.38.38,0,0,1,0-.51l.74-.09c.83-.1,1-.12,1-2Z"/><path class="cls-1" d="M207.46,33.06c-.46,0-.44,0-.6.47l-.72,2.11c-.35,1-.28,1.08.37,1.18l.51.09a.38.38,0,0,1,0,.51c-.56,0-1.14,0-1.86-.05s-1.13,0-1.74.05a.4.4,0,0,1,0-.51l.53-.09c.51-.09.7-.23,1-.81s.5-1.19.87-2.14l2.4-6.26a3,3,0,0,0,.34-1.28,3.22,3.22,0,0,0,1.23-.85.38.38,0,0,1,.3.14c.28.8.51,1.62.79,2.41l2.53,7.37c.4,1.18.49,1.28,1.39,1.46l.26,0a.38.38,0,0,1,0,.51c-.72,0-1.37-.05-2.29-.05-.75,0-1.52,0-2.14.05a.4.4,0,0,1-.05-.51l.38,0c.64-.09.72-.2.46-.94l-.82-2.39c-.16-.47-.23-.47-.73-.47Zm2.11-.79c.49,0,.56,0,.42-.46l-.74-2.11a12.13,12.13,0,0,0-.49-1.39h0c-.07.13-.23.57-.53,1.39l-.73,2.06c-.18.51-.14.51.28.51Z"/><path class="cls-1" d="M218.85,27.24c0-.74,0-.77-.48-.77h-1c-1.62,0-2.09.19-2.75,1.61a.43.43,0,0,1-.56-.12c.3-.95.56-2,.69-2.65,0-.06.1-.07.19-.07a.2.2,0,0,1,.18.07c.09.44.33.45,1.53.45h7.17c.86,0,1.12-.05,1.33-.45a.44.44,0,0,1,.22-.07.24.24,0,0,1,.22.09,12.83,12.83,0,0,0-.26,2.79.41.41,0,0,1-.54.05c-.23-1.37-.57-1.7-2.45-1.7h-1c-.46,0-.47,0-.47.77v7.59c0,1.87.15,1.92,1,2l.63.07a.37.37,0,0,1,0,.51c-1,0-1.81-.05-2.59-.05s-1.6,0-2.72.05a.38.38,0,0,1,0-.51l.74-.09c.83-.1,1-.12,1-2Z"/><path class="cls-1" d="M228.34,28.3c0-1.87-.16-1.94-1-2l-.28,0a.38.38,0,0,1,0-.51c.66,0,1.49.05,2.26.05h3.36c1.13,0,2.15,0,2.37-.05.08.3.18,1.69.29,2.45-.07.14-.43.17-.57.07-.28-1-.54-1.45-1.1-1.6a5.8,5.8,0,0,0-1.41-.16h-1.18c-.75,0-.75,0-.75,1v3c0,.45,0,.47.42.47h.84c1.53,0,1.79,0,2-.77l.13-.6a.45.45,0,0,1,.56,0c0,.47-.05,1.1-.05,1.75s0,1.29.05,1.85a.51.51,0,0,1-.56,0l-.13-.71c-.12-.73-.42-.77-2-.77h-.84c-.41,0-.42,0-.42.48v2.23a3.09,3.09,0,0,0,.3,1.83c.21.24.5.37,2,.38,2.23,0,2.62-.47,3.24-1.9a.42.42,0,0,1,.56.11,11.36,11.36,0,0,1-.74,2.55c-.77,0-2.29-.05-4.34-.05h-2c-.77,0-1.84,0-2.63.05a.38.38,0,0,1,0-.51l.65-.07c.83-.09,1-.14,1-2Z"/><path class="cls-1" d="M243.61,28.3c0-1.87-.16-1.9-1-2l-.3-.06a.35.35,0,0,1,0-.49c.71,0,1.5.05,2.27.05s1.58,0,2.36-.05c.14.07.15.37,0,.49l-.39.06c-.82.1-1,.17-1,2v4c0,2.43.74,4.47,3.18,4.47s3.25-1.74,3.25-4.42V30.18a10,10,0,0,0-.33-3.47,1.14,1.14,0,0,0-.88-.45l-.35-.06c-.16-.12-.14-.44,0-.49.6,0,1.27.05,2,.05s1.21,0,1.86-.05a.34.34,0,0,1,0,.49l-.38.09c-.34.07-.65.14-.78.42a13.11,13.11,0,0,0-.24,3.47v2.09a5.88,5.88,0,0,1-1.16,4.06,4.65,4.65,0,0,1-3.45,1.32,5,5,0,0,1-3.62-1.13c-.79-.75-1.16-2-1.16-3.76Z"/><path class="cls-1" d="M266.9,34.38c0,.53,0,2.69.05,3.09a.65.65,0,0,1-.6.25c-.28-.37-.79-1-2.05-2.41l-4.12-4.69c-1.12-1.3-1.7-1.95-2-2.22-.05,0-.05.19-.05,1.13V33a11,11,0,0,0,.31,3.47,1.15,1.15,0,0,0,.9.44l.39,0c.16.12.14.46,0,.51-.65,0-1.33-.05-2-.05s-1.21,0-1.83.05a.35.35,0,0,1,0-.51l.38-.09c.34-.07.65-.12.78-.4a14.36,14.36,0,0,0,.22-3.47V28.79c0-1.37,0-1.65-.58-2.16a2.91,2.91,0,0,0-.93-.36l-.26-.05c-.12-.1-.11-.46.07-.51.67.07,1.63.05,2.07.05s.79,0,1.22-.05a23.06,23.06,0,0,0,2.83,3.64l1.75,1.9c.74.81,2.38,2.67,2.55,2.78.06-.06.06-.14.06-.43V30.18a10.05,10.05,0,0,0-.34-3.47,1.1,1.1,0,0,0-.88-.44l-.4-.05c-.16-.12-.14-.46,0-.51.69,0,1.34.05,2,.05s1.21,0,1.84-.05a.36.36,0,0,1,0,.51l-.41.09c-.33.07-.63.12-.75.4a12.68,12.68,0,0,0-.25,3.47Z"/><path class="cls-1" d="M273,34.83c0,1.87.16,1.92,1,2l.38,0a.37.37,0,0,1,0,.51c-.78,0-1.57-.05-2.34-.05s-1.6,0-2.37.05a.38.38,0,0,1,0-.51l.39,0c.82-.11,1-.16,1-2V28.3c0-1.87-.16-1.92-1-2l-.39-.05a.38.38,0,0,1,0-.51c.77,0,1.56.05,2.37.05s1.56,0,2.34-.05a.37.37,0,0,1,0,.51l-.38.05c-.83.11-1,.16-1,2Z"/><path class="cls-1" d="M283.4,33c-.72,1.6-1.53,3.65-1.82,4.55a.46.46,0,0,1-.3.09.71.71,0,0,1-.34-.09,21.91,21.91,0,0,0-.81-2.3l-3.07-7.4c-.49-1.18-.65-1.43-1.36-1.57l-.42-.09c-.12-.12-.12-.44.06-.49.68,0,1.44.05,2.12.05s1.39,0,2.32-.05a.33.33,0,0,1,0,.51l-.44.11c-.39.09-.53.17-.53.31a13.07,13.07,0,0,0,.86,2.34L281,32.11c.32.79.79,1.83,1,2.23.95-2.21,2-4.64,2.93-7,.28-.7.23-.84-.3-1l-.51-.12a.38.38,0,0,1,0-.51c.72,0,1.32.05,1.88.05s1.21,0,1.71-.05c.14.09.12.37,0,.51l-.44.09a1.47,1.47,0,0,0-1.09.72c-.49.84-1,2-1.79,3.8Z"/><path class="cls-1" d="M289.91,28.3c0-1.87-.16-1.94-1-2l-.28,0a.38.38,0,0,1,0-.51c.66,0,1.49.05,2.26.05h3.36c1.13,0,2.15,0,2.37-.05.07.3.18,1.69.29,2.45-.07.14-.43.17-.57.07-.28-1-.54-1.45-1.1-1.6a5.8,5.8,0,0,0-1.41-.16H292.7c-.75,0-.75,0-.75,1v3c0,.45,0,.47.42.47h.84c1.53,0,1.79,0,2-.77l.13-.6a.45.45,0,0,1,.56,0c0,.47-.05,1.1-.05,1.75s0,1.29.05,1.85a.51.51,0,0,1-.56,0l-.13-.71c-.12-.73-.42-.77-2-.77h-.84c-.41,0-.42,0-.42.48v2.23a3.19,3.19,0,0,0,.29,1.83c.22.24.51.37,2,.38,2.23,0,2.62-.47,3.24-1.9a.42.42,0,0,1,.56.11,11.36,11.36,0,0,1-.74,2.55c-.77,0-2.29-.05-4.34-.05h-2c-.77,0-1.84,0-2.63.05a.38.38,0,0,1,0-.51l.65-.07c.83-.09,1-.14,1-2Z"/><path class="cls-1" d="M300.54,28.4c0-1.69,0-1.9-.84-2l-.46-.06a.36.36,0,0,1,0-.49c1.1-.11,2.6-.16,4-.16a7.39,7.39,0,0,1,3.34.6,2.75,2.75,0,0,1,1.55,2.57,3,3,0,0,1-2.11,2.77c-.11.06-.07.2,0,.3,1.4,2.38,2.28,3.87,3.11,4.55a2.21,2.21,0,0,0,1.21.55.32.32,0,0,1,0,.35,4.86,4.86,0,0,1-1.16.11c-1.69,0-2.61-.69-3.68-2.32-.47-.74-1-1.71-1.39-2.39a1,1,0,0,0-1.09-.6c-.52,0-.54,0-.54.38v2.25c0,1.87.16,1.92,1,2l.39,0c.12.12.11.44,0,.51-.77,0-1.56-.05-2.33-.05s-1.57,0-2.38.05a.34.34,0,0,1,0-.51l.39,0c.82-.11,1-.16,1-2Zm2,2.53c0,.57,0,.6.84.6A2.21,2.21,0,0,0,305.94,29a2.43,2.43,0,0,0-2.43-2.6c-.91,0-.93,0-.93.86Z"/><path class="cls-1" d="M311.33,36.91a5.36,5.36,0,0,1-.53-2.67.39.39,0,0,1,.55-.07c.32.89,1.26,2.77,3,2.77a1.87,1.87,0,0,0,2.09-1.88,2.84,2.84,0,0,0-1.79-2.55l-.76-.42c-1.32-.74-2.48-1.81-2.48-3.39,0-1.74,1.3-3.22,3.87-3.22a11.67,11.67,0,0,1,2.41.37,7.5,7.5,0,0,1,.37,2.38.45.45,0,0,1-.57.05,2.49,2.49,0,0,0-2.37-2.09,1.79,1.79,0,0,0-2,1.84,2.62,2.62,0,0,0,1.67,2.15l1.09.58a3.94,3.94,0,0,1,2.41,3.46c0,2-1.53,3.43-4.08,3.43A5.32,5.32,0,0,1,311.33,36.91Z"/><path class="cls-1" d="M323.58,34.83c0,1.87.16,1.92,1,2l.38,0a.37.37,0,0,1,0,.51c-.78,0-1.57-.05-2.34-.05s-1.6,0-2.37.05a.38.38,0,0,1,0-.51l.39,0c.83-.11,1-.16,1-2V28.3c0-1.87-.15-1.92-1-2l-.39-.05a.38.38,0,0,1,0-.51c.77,0,1.56.05,2.37.05s1.56,0,2.34-.05a.37.37,0,0,1,0,.51l-.38.05c-.83.11-1,.16-1,2Z"/><path class="cls-1" d="M331.14,27.24c0-.74,0-.77-.47-.77h-1c-1.62,0-2.09.19-2.74,1.61a.43.43,0,0,1-.56-.12c.3-.95.56-2,.68-2.65,0-.06.11-.07.2-.07s.14,0,.17.07c.09.44.34.45,1.53.45h7.17c.86,0,1.13-.05,1.34-.45a.44.44,0,0,1,.21-.07.27.27,0,0,1,.23.09,12.28,12.28,0,0,0-.27,2.79.41.41,0,0,1-.54.05c-.23-1.37-.56-1.7-2.44-1.7h-1c-.45,0-.47,0-.47.77v7.59c0,1.87.16,1.92,1,2l.64.07a.38.38,0,0,1,0,.51c-1,0-1.81-.05-2.58-.05s-1.6,0-2.73.05a.37.37,0,0,1,0-.51l.74-.09c.82-.1,1-.12,1-2Z"/><path class="cls-1" d="M343.43,33.8a3.62,3.62,0,0,0-.57-2.18l-2.11-4.17c-.38-.75-.52-.95-1.32-1.12l-.45-.11c-.11-.12-.07-.46.07-.51.75,0,1.49.05,2.21.05s1.85,0,2.25-.05a.36.36,0,0,1,0,.51l-.53.09c-.28.05-.37.09-.37.23a2.44,2.44,0,0,0,.32.91c.68,1.51,1.33,2.94,2,4.22.72-1.34,1.37-2.57,2.05-3.88a4,4,0,0,0,.48-1.18c0-.18-.16-.23-.41-.27l-.52-.12a.34.34,0,0,1,.05-.51c.77,0,1.32.05,1.85.05s1.1,0,1.67-.05a.37.37,0,0,1,0,.51l-.51.11c-.79.16-1,.47-1.92,2-.59,1-1.12,2-1.67,2.95a3.92,3.92,0,0,0-.65,2.48v1c0,1.87.16,1.92,1,2l.67.07c.12.12.11.44,0,.51-1.09,0-1.88-.05-2.66-.05s-1.6,0-2.55.05c-.14-.07-.15-.39,0-.51l.56-.07c.83-.11,1-.14,1-2Z"/><path class="cls-2" d="M29.75.37C21.47.37,8.2,3,.38,5.62V79.57H58.54V5.62A90.49,90.49,0,0,0,29.75.37Z"/><path class="cls-1" d="M0,79.94V5.35l.26-.08C8.13,2.65,21.4,0,29.75,0h0V.75C21.63.75,8.56,3.33.75,5.89h0v73.3H58.16V5.88c-.86-.31-4-1.41-8.46-2.52h0a84.72,84.72,0,0,0-20-2.61h0V0A90.63,90.63,0,0,1,58.68,5.27h0l.24.09V79.94Z"/><path class="cls-3" d="M1.84,20.42,1.72,6.79s17-5.06,28.39-5.06A81.16,81.16,0,0,1,57.26,6.79v15.5l-55.42.15Z"/><polygon class="cls-2" points="57.09 18.84 40.13 18.24 56.67 14.78 40.73 16.33 55.83 10.66 40.13 14.72 54.4 6.54 39.29 13.11 49.98 4.08 49.67 4.02 38.1 11.56 45.61 3.11 44.93 3 36.79 10.42 41.97 2.48 41.2 2.29 35.35 9.53 38.7 2.02 37.75 1.88 33.56 9.05 35.59 1.75 34.57 1.72 31.95 8.45 32.74 1.63 31.64 1.55 30.1 8.39 29.8 1.58 29.52 1.58 28.93 1.52 28.64 8.39 27.13 1.69 26.02 1.75 26.79 8.45 24.2 1.83 23.2 1.96 25.18 9.05 21.27 2.32 20.29 2.54 23.39 9.53 17.98 2.83 17.12 2.95 21.95 10.42 14.29 3.42 13.55 3.58 20.64 11.56 9.89 4.51 9.36 4.57 19.45 13.11 4.34 6.54 18.61 14.72 2.91 10.66 18.01 16.33 2.07 14.78 18.61 18.24 1.66 18.84 29.7 18.95 29.69 18.84 57.09 18.84"/><path class="cls-1" d="M57.29,20.46a28.93,28.93,0,0,0-4-1.9C43.87,14.76,34.19,6.4,34.19,6.4a28.13,28.13,0,0,1-7.86,4.27c.93,2.17,7.47,4.56,8.48,4.87s1.86,1.78,1.86,1.78c-5.27-.78-14.48-6.89-14.48-6.89-5.34,3.79-17.34,8.44-18.51,8.75a3.89,3.89,0,0,0-1.86,1.15c0,5.57,0,57.66,0,57.66H57.3Z"/><path class="cls-2" d="M34.59,73.9l-.12-.06a6.54,6.54,0,0,1-1.72-3.12c0-.21-.37-1.75-.4-2.25s-.24-2.76-.35-3.8-.43-4.48-.49-5.11c-.24-2.38,1-4.6,2.91-6.54.88.08,1.73-.27,3.08,1.69a2.92,2.92,0,0,1,.32.6,6,6,0,0,0-1.39-.14c-1.31-1.83-3.2,0-3.31.1.21-.08,1.16.5,1.81.73s1.44-.46,1.54-.51a4.29,4.29,0,0,1,1.36.15,5.55,5.55,0,0,1-1.25.61c-.23,0-1.94-.44-3,2.17.14.06,3,.21,3.1-1.82A3,3,0,0,1,38,55.92a5.27,5.27,0,0,1-2.09,4.62c-2.49,0-2.64,2.55-2.7,3,3.14-.73,2.86-1.21,3.14-2.73.48-.57.92-1.06,1.28-1.52a.72.72,0,0,1,.21.41,2.9,2.9,0,0,0-.35,2.05,5.45,5.45,0,0,0,1.41,2.09c.07-1.06.51-1.32.42-2.51a2.86,2.86,0,0,0-1.16-1.66,1.65,1.65,0,0,0-.35-.61l.06-.09L38,59a2.15,2.15,0,0,0,1.12,1.23,3.83,3.83,0,0,0,1.1.18,2.78,2.78,0,0,1-.13.52A8.58,8.58,0,0,0,42,60.47a2.13,2.13,0,0,0,.9-2c.27-.29,1.16-1,1.82-1.68a3.31,3.31,0,0,0,1.94,2.15A12.34,12.34,0,0,1,45.16,61a3.11,3.11,0,0,0-2,1.1,3.82,3.82,0,0,0-.39,2.6c2.3-.47,2.83-2,2.7-3.2,0-.3.52-.88.65-1.06a12.33,12.33,0,0,0,.86-1.1s.07.08,0,.31a2.11,2.11,0,0,0,1.15,2.86,7.05,7.05,0,0,1,.09-1.16,1.74,1.74,0,0,0-1-1.76.82.82,0,0,1-.13-.47,5.13,5.13,0,0,0,1,.23.7.7,0,0,0,0,.14,1.22,1.22,0,1,0,.09-.47l-.47-.11-.41-.17A6.05,6.05,0,0,0,48,55.43,7,7,0,0,0,46.65,52c.81.25,2.59.83,2.9,1a.93.93,0,0,1,0,.47c-.09.16-1.51,1.3.34,3.18a8.92,8.92,0,0,0,.58-1.69,1.68,1.68,0,0,0-.63-1.44s-.06-.24-.09-.41A3.14,3.14,0,0,1,51.48,55a2.64,2.64,0,0,0-1.09,3.54c.37-.51,1.09-.83,1.5-1.38s0-1.86-.1-2.11a3.48,3.48,0,0,0-1.91-2.39,4.53,4.53,0,0,1,.55,0,1.77,1.77,0,0,0,2.82-.14c-1.6-1.34-2.53-.38-2.86-.16s-.84,0-1,0S48.64,52,48,51.75a.7.7,0,0,1,.42-.21,3,3,0,0,0,3.42-2.84,9.87,9.87,0,0,1-1.63.4,2.5,2.5,0,0,0-2,2.13,1.07,1.07,0,0,1-.56.39c-.74-.32-1.51-.64-1.89-.79a23.19,23.19,0,0,0-4-3.75c.06-.23.3-.33.36-.39a6.91,6.91,0,0,0,2.36,0,4.14,4.14,0,0,0,1.76-1.45,3.42,3.42,0,0,1,.27.7,1.27,1.27,0,0,0-.51,1,1.33,1.33,0,1,0,1.33-1.32,1.17,1.17,0,0,0-.27,0,1.82,1.82,0,0,1-.53-.59s0-.09-.07-.14l.13-.21-.22,0c-.21-.36-.5-.81-.62-1a33.62,33.62,0,0,1,3.59.73,1.31,1.31,0,0,0,.3.12.9.9,0,0,1,0,.28c-.5,1.15-.22,1.46-.13,1.63a7.63,7.63,0,0,1,1,1.51A9.84,9.84,0,0,0,50.86,46c-.16-.5-.77-.85-.9-1.12a.29.29,0,0,1,0-.1,7.29,7.29,0,0,1,1.12.41c.62.43.87,1.14,1.61,1.39,1,.33,1.69-.06,2.72-.09-.14-.49-1.1-1.8-1.87-2a5.59,5.59,0,0,0-2.35.13c-.13,0-.74-.34-1.82-.66a.21.21,0,0,1,0-.26c.11-.13.69-.69,1.2-1.14a1.18,1.18,0,0,1,.66-.07c.33.07.69.89,1.47,1a2.6,2.6,0,0,0,1.87-.43C54,42.87,54,42.29,53,42a3.7,3.7,0,0,0-1.74.27c-.05,0-.24,0-.3-.09a1.26,1.26,0,0,1,.37-.24,5.49,5.49,0,0,0,2-.72c.49-.58.33-1.55.7-1.94a6.92,6.92,0,0,0-2.18.58,3.61,3.61,0,0,0-.72-1.55,2.62,2.62,0,0,0-2.46-1c-.46-.12-1.76-1.25-1.37-1.9.35-.28.69-.52,1-.74a2.55,2.55,0,0,1,1.37.26,1.6,1.6,0,0,0,1.47,1.16,7.52,7.52,0,0,0,2.3-.31,3.1,3.1,0,0,0-2.17-1.38,3.24,3.24,0,0,0-1.51.27L49,34.32l0,0a12.58,12.58,0,0,1,1.53-.76,1.25,1.25,0,0,0,1,.54,1.28,1.28,0,1,0,0-2.55,1.25,1.25,0,0,0-1,.5,1.74,1.74,0,0,0-.5-1.73,7.71,7.71,0,0,1-.52.93,1.57,1.57,0,0,0,.14,1.83.62.62,0,0,1-.07.43A15,15,0,0,0,45,36.83c-.22.19-.34.21-.4.19,0-.29,0-.58-.08-.86a9.06,9.06,0,0,0-.33-1.4.76.76,0,0,1,.13-.43,1.9,1.9,0,0,1,.78-.41c1.1,0,2.73.38,3.47-2.1-.22,0-3-.58-3.66,1.77a1.22,1.22,0,0,1-1,.36,25.76,25.76,0,0,0-1.29-2.73,8.78,8.78,0,0,1,.9-1,1.69,1.69,0,0,1,.36-.12,2.42,2.42,0,0,1,.87.07,2.72,2.72,0,0,0,1.89.6c1.13-.08,1.61-.93,1.94-1.05a4.68,4.68,0,0,0-2.46-.51,1.82,1.82,0,0,0-1.35.63,5,5,0,0,1-.83,0c.57-.54,1.12-1,1.29-1.12a3.88,3.88,0,0,0,2-.68c.66-.53.75-2.12.72-2.48a4.32,4.32,0,0,0-2.34,1c-.58.51-.55,1.62-.62,1.87a9,9,0,0,1-1.37,1.17,2.33,2.33,0,0,1-.08-.86,2.6,2.6,0,0,0,.76-1.79c-.11-.69-.69-2.11-.72-2.32-1.83,2.43-.48,3.88-.32,4.08a8.42,8.42,0,0,0,0,1.16l-1.06.77-.09-.16c-1.1-1.95-1.57-3.08-1.32-4.51.06-.37.46-1.5-.07-2.19s-1.48-1.56-1.5-1.62a5,5,0,0,1-.08,1.62c-.16.72-.32,1.39.94,2.65A4.85,4.85,0,0,1,39,25.11a1.67,1.67,0,0,0-1.15-.89,6.07,6.07,0,0,0-1.56-.17,7.69,7.69,0,0,1,.85,1.22,1.41,1.41,0,0,0,1.52.95,3,3,0,0,1,.92.08,1.35,1.35,0,0,1,.53.71,11.21,11.21,0,0,0,.61,2.16.75.75,0,0,1-.27-.22c-.22-.25-1.5-2.77-4.23-1.37a10.21,10.21,0,0,1,1.21,1.17,2.5,2.5,0,0,0,2.85.53.93.93,0,0,1,.57.22c.28.68.58,1.35.89,2a.58.58,0,0,1-.32,0,2.49,2.49,0,0,0-2.89-.33c-.27.16-.72.4-1.06.57a3,3,0,0,0-1.8-1.42,10.24,10.24,0,0,1,0,1.68,2.48,2.48,0,0,0,1.59,2.43.44.44,0,0,1,.14.33C36,34,35,33.4,34.27,32.93a2.13,2.13,0,0,1-.07-.61,2.88,2.88,0,0,0-.43-4.12,3.92,3.92,0,0,1-.44,1,2.45,2.45,0,0,0,.56,3,1.64,1.64,0,0,1,.1.51A4.91,4.91,0,0,1,33,32a3.57,3.57,0,0,1-.23-1,2.28,2.28,0,0,0-1.67-1.85,7.29,7.29,0,0,1-1.51-.66c.28,3.52,1.78,3.4,2.33,3.56a2.1,2.1,0,0,1,.73.31,19.3,19.3,0,0,0,3.52,2.4.77.77,0,0,1-.29,0c-.28-.06-2.14-1-3.52.45a6.32,6.32,0,0,0-.7-1.84c-.78-1.31-3.42-3.22-4.77-5.15a.39.39,0,0,1,.13-.31c.16-.12,1.1-.74,1.26-.81a1.75,1.75,0,0,1,1.35.11,2.43,2.43,0,0,0,1.57.91,3.23,3.23,0,0,0,2.42-.79,5.21,5.21,0,0,0-2.15-.95,2.36,2.36,0,0,0-1.72.46c-.19-.05-.93-.11-.74-.27a5.36,5.36,0,0,1,1.35-.63,1.2,1.2,0,0,0,.81.32A1.24,1.24,0,1,0,30,25a1.36,1.36,0,0,0,.06.29,5.35,5.35,0,0,1-1.25,1.08c-.09,0-.25-.16-.21-.39s.15-.29.15-.29,1-.54,1.13-1a3.52,3.52,0,0,0,.12-.85c-.27.53-.79.76-1.89.87a2.68,2.68,0,0,0,.2,1c0,.21.06.87-.27,1.1s-1,.76-1.48.7A3.06,3.06,0,0,1,26.08,26a1.81,1.81,0,0,1,1-1.6c.19.05,2,0,2.53-.63s.77-1.75,1.16-1.92a3.76,3.76,0,0,0-2.95.55,2.37,2.37,0,0,0-.92,1.71A2.69,2.69,0,0,0,25.45,26a4.89,4.89,0,0,0,.28,1.57,5.46,5.46,0,0,1-.94-.13.54.54,0,0,1-.09-.26v-.67a2.41,2.41,0,0,0,.77-1.22c.12-.91-.6-1.94-.48-2.54-.25.29-2.17,2.28-.62,3.74,0,.18.1.56-.1.78a4.78,4.78,0,0,1-1.33-.72,1.13,1.13,0,0,0,.06-.32,7.34,7.34,0,0,0-.45-2.45,7,7,0,0,1-.94,1.13h0a1.46,1.46,0,0,0-.36-2c-.08-.14-.29-.51-.31-.58C19.22,24,21,25,21.18,25s0,.15.05.22l-.05.05a2.19,2.19,0,0,0-.1,2.5,4.76,4.76,0,0,0-.17,2.4c.17,1,0,2.77-.45,3.06A12.3,12.3,0,0,1,18.16,31c-.09-.13-.17-.26-.25-.4a9.54,9.54,0,0,1,.28-1c.11-.23,1-.24,1.38-1.09.23-.53-.24-2.47,0-2.93-1.17,1.05-2.42,1.73-1.62,3.92a1.43,1.43,0,0,1-.19.71,10.75,10.75,0,0,1-.8-3.25s.44-.44.51-.55a2.18,2.18,0,0,0-.05-2.06c-.14-.29-.43-1.1-.43-1.1A6.49,6.49,0,0,0,16,24.81a1.85,1.85,0,0,0,.34,2.2,9.27,9.27,0,0,0,.37,2.48.16.16,0,0,1-.15,0L15.74,29s-.41-2.11-3.25-1.37a2.34,2.34,0,0,0,3.1,1.67A3,3,0,0,1,17,30.39a7.58,7.58,0,0,0,.71,1.46l.37.45a1.37,1.37,0,0,1-.79-.29A3,3,0,0,0,14,30.19a1.15,1.15,0,0,1,.1-.18,2.06,2.06,0,0,0-2,.72v-.07a1.42,1.42,0,1,0-1.42,1.43h0l0,0,.09.34,0,0a2.3,2.3,0,0,0-3.34.19,7.9,7.9,0,0,1,1.17.49,1.89,1.89,0,0,0,2.14-.41.24.24,0,0,1,.14,0,41.11,41.11,0,0,0,2.64,6.92A.44.44,0,0,1,13,40c-.14,0-.56,0-1.15.05l-.56-.6A3.35,3.35,0,0,0,7.9,35.74a11.11,11.11,0,0,1,.37,1.53c.07.35-.06,1.82,2.73,2.25a1.42,1.42,0,0,1,.45.51,11.4,11.4,0,0,1-4-.69,2.51,2.51,0,0,1-.06-.77,2.25,2.25,0,0,0-.91-3,3.67,3.67,0,0,1-.12.7,2,2,0,0,0,0,1.53l-.15,0a1.22,1.22,0,1,0,0,2.43,1.18,1.18,0,0,0,1-.54l.42.16a.5.5,0,0,1-.17.28,4.28,4.28,0,0,1-.48.31,2.15,2.15,0,0,0-2.85,1.16c.39.1,2.17.48,3-.83a2.15,2.15,0,0,0,.92-.79,11.53,11.53,0,0,0,4.05.5,2.29,2.29,0,0,1-.57.25A3.06,3.06,0,0,0,8,43.52a11.32,11.32,0,0,1,1.64-.41A2.5,2.5,0,0,0,11.61,41a2.39,2.39,0,0,1,1-.59l.09,0,.38,0a1.8,1.8,0,0,1,.86.21,20.81,20.81,0,0,0,1.71,2.66h0a5.3,5.3,0,0,0-1.21,1c-.11,0-1.89-.27-2,2.61a4.19,4.19,0,0,0,1.79-.93,1.55,1.55,0,0,0-.06.31,1.27,1.27,0,0,0,2.54,0A1.24,1.24,0,0,0,15.62,45c0-.07-.31-1.22.22-1.56l-.24.14.24-.15a75.72,75.72,0,0,0,5,6c-.15.39-.62.54-1.57.77h0a1.9,1.9,0,0,1-.1-.58,2.36,2.36,0,0,0-1.69-3,8.41,8.41,0,0,1,.08,1.3,1.92,1.92,0,0,0,1.34,1.81.78.78,0,0,1,.17.51,2.65,2.65,0,0,1-2-.73c-2.86-2.18-5.91-1-7.34-.31a1.09,1.09,0,0,1,0-.4c.06-.15.85-.79.85-1.52A4.07,4.07,0,0,0,10,45.13a6.42,6.42,0,0,1-.48.66,2,2,0,0,0,0,2.92,1.45,1.45,0,0,1,0,.54l-.28.15c-.13-.08-.52-.34-.57-.63a3.11,3.11,0,0,0-4.16-2.49,10.61,10.61,0,0,1,1,1.54,2.73,2.73,0,0,0,2.91,1.25,1,1,0,0,1,.58.44l-.07,0A3.73,3.73,0,0,0,6.63,50,3.88,3.88,0,0,0,5,52.88c.38-.14,1-.21,1.77-.43-.47,2.92,1.91,3.39,1.91,3.39s.49.87.74,1.25c0,.07-.38-.05-.71-.14C7,54.8,4.84,56.33,4.34,56.68c.47,0,1.14,1.07,2,1.27a3,3,0,0,0,2.26-.52c.18-.2,1.19.24,1.45.33a7.21,7.21,0,0,0,3.61.77c-.33.34-.59.63-.69.75a1.32,1.32,0,1,0,.41.95,1.28,1.28,0,0,0-.15-.58,4.32,4.32,0,0,1,1.49-1.21c.47-.07.83-.16.95-.19.41-.08-.79,2.39-1.44,3-2.9.41-2.26,3.2-2.23,3.75.32-.58,1.74-.76,2.32-1.51a2.64,2.64,0,0,0,.38-2,11.52,11.52,0,0,0,1.75-3.73c0,.21.09.37.13.56a11.35,11.35,0,0,0-.29,1.38c-.27.29-1.29,1.77.41,3.59a3.06,3.06,0,0,1,.36-1,2,2,0,0,0-.37-2.56s-.11,0,.07-.76a5.23,5.23,0,0,0,3,3.16c.61,2.27,3.42,1.54,4,1.34-.61-.49-.38-.81-1.45-1.42A3.34,3.34,0,0,0,20,61.79c-4.29-2.45-2.63-6.56-1.92-7.93a5.78,5.78,0,0,0,1.67,3,1,1,0,0,1-.19.43,1.45,1.45,0,0,0-.51-.1,1.31,1.31,0,1,0,1.31,1.31,1.32,1.32,0,0,0-.44-1l.19-.35a5.13,5.13,0,0,0,.6.44l.47.89c-.08.29-.35,3.15,3.23,3.71a6.66,6.66,0,0,1-.27-1.16,2.7,2.7,0,0,0-2.55-2.67,2.08,2.08,0,0,1-.36-.46,10.19,10.19,0,0,0,2.95,1A2.72,2.72,0,0,0,27,60c.1,2.34.12,5,.06,6.7-.08,2.15,0,6.07-2.68,7.23-8.22.88-19.54,3.34-22.54,4v.25H57.3V77.9C54.28,77.24,42.82,74.75,34.59,73.9ZM49.82,33.1a5.07,5.07,0,0,0,.41-.54,1.89,1.89,0,0,0,0,.23,1,1,0,0,0,.09.4c-.21.07-.4.15-.6.23A1.54,1.54,0,0,1,49.82,33.1ZM14.6,45.31a2.3,2.3,0,0,0,.1-.86,4.54,4.54,0,0,1,.52-.58c0,.2,0,.73.06,1.12A1.35,1.35,0,0,0,14.6,45.31Zm3.22,7.41a8.85,8.85,0,0,0-1.68.64.71.71,0,0,1-.31-.49,2.42,2.42,0,0,0-1-2.63,10.08,10.08,0,0,1-1.31-1,2.93,2.93,0,0,0,2,3.79.92.92,0,0,1,.34.41l-.13.07-.62.38S13,52.87,11.71,55.53c-.13.38-.1.42.47.38s2.65.59,3.1-1.63a5.65,5.65,0,0,1,2.34-1.2,12.52,12.52,0,0,0-1.23,3.62c-.37,1.89-5.28,1.37-6.24.65a7.15,7.15,0,0,1-1.22-1.67,2.38,2.38,0,0,0-.81-2.89c-.24-.15-.54-.37-.79-.55l.26-.09c.92-.39,1.34-2.21,1.49-2.32l.41-.2.2.38s-1.37,2.24,1.56,3.44c0-.15.13-1,.12-1.72,0-.39-.56-1.71-1.53-1.77l-.13-.43c4.34-2,5.73-.4,7,.82a5.18,5.18,0,0,1,1.17,2.33Zm16.8-3.58c-.46-1.52-.84-2.79-1.22-3.89a2.79,2.79,0,0,0,2.93.47,1.23,1.23,0,0,1,.43,0,10.11,10.11,0,0,1,.53,1.61.88.88,0,0,1-.06.51c-.7.62-1.33,1.12-1.81,1.49C34.74,49.48,34.76,49.4,34.62,49.14Zm11.44,3.37a7.27,7.27,0,0,1,1.25,2.92,5.79,5.79,0,0,1-.45,3C44.75,57.3,45.31,56,45.31,56h0l0,0A5.77,5.77,0,0,0,46.06,52.51Zm-4-3.92a1.25,1.25,0,0,1,.35.81,3.5,3.5,0,0,0-.83,2.18,5.47,5.47,0,0,0,1.16,2.63c0-.74.83-1.35,1-2.74a3.19,3.19,0,0,0-1-2.09c0-.16,0-.28-.07-.39A13,13,0,0,1,45,51.12a3.78,3.78,0,0,1,.33,2.59c-.3.45-1.6,2-4.31.62L40.54,54h0a2,2,0,0,0-1.39-2,8.54,8.54,0,0,1-1.29-.5,2.47,2.47,0,0,0,2.43,2.68c.47.39,2.73,2.07,4.84.41a1.87,1.87,0,0,1-.08.32,5.43,5.43,0,0,1-1.12,2,1.85,1.85,0,0,1-.64-.13,2.46,2.46,0,0,0-3.57.06,9.1,9.1,0,0,1,1.22.57,2,2,0,0,0,2.31-.34.84.84,0,0,1,.51,0,8.78,8.78,0,0,1-1.13,1s-1.44.09-1.88.76a3.35,3.35,0,0,0-.3.67,4,4,0,0,0-.66-.76,2.22,2.22,0,0,0-1.63-.08l-.14,0a4.06,4.06,0,0,0,.73-2.64c-.11-2.19-2.41-3.73-3.13-4.15l0,0a24.06,24.06,0,0,0,2.05-2A.72.72,0,0,1,38,50a2.2,2.2,0,0,0,3.09.81,8,8,0,0,1-.91-.79,1.79,1.79,0,0,0-2.07-.26.55.55,0,0,1-.28-.07c.63-.69,1.29-1.45,1.91-2.17A9.91,9.91,0,0,1,42,48.59Zm3.87-4,.16.28a15.61,15.61,0,0,0-2.31-.11c-.8.15-1.53,1.28-1.67,1.61a1.47,1.47,0,0,0-.59.51l-.09,0a7.54,7.54,0,0,1-.71-.4c.5-.6.91-1.1,1.18-1.44s.38-.51.56-.76a1.55,1.55,0,0,1,.89-.57,13.17,13.17,0,0,1,1.77.1C45.47,43.85,45.68,44.22,45.91,44.57Zm5.45-4a3.12,3.12,0,0,0-.31,1.08,5,5,0,0,1-1,.93c-.35.29-.72.53-1.34,1.1l-.19.07-.39-.08c-.63-.13-1.38-.23-2.11-.32a.45.45,0,0,1,0-.36c.14-.2.23-.31.23-.31A6.22,6.22,0,0,0,48.44,42a6.34,6.34,0,0,0,1.48-1.94A3.91,3.91,0,0,0,51.36,40.58ZM44.52,38.8a6.17,6.17,0,0,1,.62-1.21,13.67,13.67,0,0,1,1.39-1.51.32.32,0,0,1,.34.15,7.1,7.1,0,0,0,1.57,1.37,3.36,3.36,0,0,0,.89,2,6,6,0,0,0-2.11.91,2.17,2.17,0,0,0-1.1,2c-.16.17-.37.6-.77.73-1-.15-1.81-.33-2-.65A11.1,11.1,0,0,0,44.52,38.8Zm-6.84-6.37c1.91,1.19,3.51-.44,3.76-.6a.67.67,0,0,1,.36-.13,24,24,0,0,1,1.3,2.82c0,.15.08.3.11.45l0,0s-.16,0-.41-.18a3,3,0,0,0-4.39-.69,10.21,10.21,0,0,1,1.38,1,2.49,2.49,0,0,0,2.9.07,1.16,1.16,0,0,1,.61.14,9.17,9.17,0,0,1,0,4,14.65,14.65,0,0,0-4-3.53c-.54-.25-1-.51-1.51-.75a1.19,1.19,0,0,1-.18-.64A4.78,4.78,0,0,0,37.68,32.43ZM36,35.06a1.08,1.08,0,0,1,.55-.16c1.23.68,2.32,1.22,2.7,1.48a10.68,10.68,0,0,1,1.9,1.75,6.29,6.29,0,0,1-1.08.49,1.72,1.72,0,0,1-.21.07,3.62,3.62,0,0,1-2.58,0,2.55,2.55,0,0,0-1.63-3.11A3,3,0,0,0,36,35.06ZM32.61,38a11,11,0,0,0,0-1.74c.29,0,.59.09.8.14a2.44,2.44,0,0,0,2.08-.66c.08.59.11,1.35.21,1.94.14.79,1.06,1.12,1.34,1.2a3.5,3.5,0,0,0,3,.25c-.13.15-.37.28-.47.39a1.69,1.69,0,0,0-1.74,2.14c2.07-.25,2-1.58,2.07-2s.54-.65.68-.73a8.78,8.78,0,0,0,.87-.36,5,5,0,0,1,1.08,2.89,20.57,20.57,0,0,1-4.4,5.62C38,47,38,47,37.92,47c-.16-.41-.35-.8-.54-1.18a.9.9,0,0,1,.29-.43,2.49,2.49,0,0,0,2-2.14,11.2,11.2,0,0,1,.27-1.66,3,3,0,0,0-2.56,3.64.81.81,0,0,1-.1.34,16.57,16.57,0,0,0-2.2-3.21c-.52-2.09-1.85-2.37-2.76-2.34A13.77,13.77,0,0,0,32.61,38Zm-.68,3.31a3.22,3.22,0,0,0,2.74,1.39,9.91,9.91,0,0,1,2,2.93.43.43,0,0,1-.3-.17,2.12,2.12,0,0,0-2.16-1.21,11.69,11.69,0,0,1-1.19.11,12.05,12.05,0,0,0-1.3-2.48C31.81,41.65,31.87,41.46,31.93,41.27Zm.86,8.67A1.06,1.06,0,0,1,32.48,51c-.3.1-.58.17-.9.26-.16,0-.68-.05-.71-1.2a39.85,39.85,0,0,1,.28-5.75A26.17,26.17,0,0,1,32.79,49.94ZM21.41,27.87a4.27,4.27,0,0,0,1.2-.86,12.64,12.64,0,0,0,3.15,1.42,1.49,1.49,0,0,1,.5.28,18.21,18.21,0,0,0,3.39,3.94,5.79,5.79,0,0,1,1.51,3.81.57.57,0,0,1-.23-.12,11.12,11.12,0,0,1-.75-.84s0-3.1-3.9-3.06c0,.19.68,2.66,2.25,3.12.38.13,1.19.08,1.48.33a4.41,4.41,0,0,1,1.14,1.2,10.64,10.64,0,0,1-.78,3.22,9.86,9.86,0,0,0-.83-.7c-1.55-1-3.05-2-4.43-3a1.46,1.46,0,0,1-.06-.56c0-.27.79-1.08.73-1.76a3,3,0,0,0-.66-1.66c-.34-.43-.54-.56-.54-.82-.19.39-1.93,2.71,0,4.2a.55.55,0,0,1,.14.36c-1.34-.92-2.55-1.79-3.58-2.58a.86.86,0,0,1,0-.55A6.58,6.58,0,0,0,21.32,31c0-.31,0-.6.22-.63a2.55,2.55,0,0,1,.9.19s0,.09,0,.14a1.14,1.14,0,0,0,1.23,1,1.12,1.12,0,1,0-.16-2.23,1.16,1.16,0,0,0-1,.78l-.64-.1c.07-.13.18-.25.23-.25a1.31,1.31,0,0,0,1.27-.84,4.8,4.8,0,0,1,.35-.81,1.48,1.48,0,0,0-1.77,1.53c0,.13-.22.27-.33.32h-.1a.54.54,0,0,1-.31-.23c0-.11,0-.2-.05-.31A3,3,0,0,1,21.41,27.87ZM11.24,32a1.29,1.29,0,0,0,.35-.22,3.28,3.28,0,0,1-.09.32.89.89,0,0,1-.15.27Zm7.19,7.93a11.41,11.41,0,0,1-1.1-1.27c-1.33,2.76.28,4.06,1.15,4.3.19,0,.36.49.46.85a7.63,7.63,0,0,0-.26.85,1.53,1.53,0,0,0-.06.25,29.21,29.21,0,0,1-2.14-2.31c-.27-.34-.7-1-1.22-1.77a1.28,1.28,0,0,1-.06-.91c.13-.58.58-2.16,1.55-2.47a2.2,2.2,0,0,0,1.62.91,2.63,2.63,0,0,0,1.82-.6,2.52,2.52,0,0,0-3.48-.6c-.19.05-1.39.46-1.92,2.92-.44-.73-.92-1.57-1.38-2.51a1,1,0,0,1,.1-.69A2.61,2.61,0,0,0,14.65,34a11.83,11.83,0,0,1-.35-1.72c-2.77,1.62-1.27,4.16-1.17,4.5a1.08,1.08,0,0,1,0,.27,29.33,29.33,0,0,1-1.75-4.49l0-.09a.64.64,0,0,1,.3-.26,1.84,1.84,0,0,0,1.85-1.1l0-.07a3.14,3.14,0,0,1,.5.57c.29.48.62,1.47,3,.83a4.26,4.26,0,0,1,1.44.33c.23.24.49.49.76.74a.09.09,0,0,1,0,.05c-.09.45-1,.91-1,.91a2.57,2.57,0,0,0-3,2.42,11.88,11.88,0,0,0,2.27-.45,2,2,0,0,0,1-1.68A4.8,4.8,0,0,1,20,34.15a50.93,50.93,0,0,0,4.81,3.74,3.74,3.74,0,0,1-.64,1,5.56,5.56,0,0,1-1.79,1,.88.88,0,0,0,0-.74,1.11,1.11,0,0,0,.86-1.08,1.14,1.14,0,1,0-1.14,1.14h0a1,1,0,0,1-.26.94,4.73,4.73,0,0,0-1.06.69,6.72,6.72,0,0,0-1.68,2.52,1.63,1.63,0,0,1-.27-.6A2.49,2.49,0,0,0,18.43,39.89ZM27,58.14a2.78,2.78,0,0,0-2.69.31A5.53,5.53,0,0,1,19.9,56a5.11,5.11,0,0,1-.56-.84s0,0,0,0c.2-.08.44-.22.59-.18a1.12,1.12,0,0,1,.63.41c0,.2.23,2,2.64,1.83a2.33,2.33,0,0,1-.33-.49,1.94,1.94,0,0,0-2.07-1.5c-.08,0-.61-.35-.47-.43a.54.54,0,0,1,.36,0,2.77,2.77,0,0,0,3.75-.81,4.58,4.58,0,0,1-.6-.17,2.63,2.63,0,0,0-3.19.62,7,7,0,0,1-1.51.4,3.75,3.75,0,0,1,0-3.29,3.82,3.82,0,0,1,3.49-.28h0a32.54,32.54,0,0,0,2.5,2.17A5.26,5.26,0,0,1,27,57.65C27,57.81,27,58,27,58.14Zm-.79-7.21A51.09,51.09,0,0,1,21,47.14l-1.05-1a1.42,1.42,0,0,1-.17-1.09,10.44,10.44,0,0,1,.48-2,.64.64,0,0,1,.45,0c.15,0,.46.12.85.19a1.56,1.56,0,0,1,.59.46,2,2,0,0,0,1.41,2,6.49,6.49,0,0,1,1,.32,2.27,2.27,0,0,0-2.18-2.5.79.79,0,0,1-.29-.21,4.48,4.48,0,0,0,3.16-.79,2.46,2.46,0,0,0,1.94-.33c.6-.56.67-1.19,1.18-1.35-.51-.15-2.67-.7-3.25,1.34a3.27,3.27,0,0,1-2.47.68c0-.11.12-.21.17-.22A1.53,1.53,0,0,0,24,41.39a6.61,6.61,0,0,1,.21-1,1.88,1.88,0,0,0-1.67,2.16,1.08,1.08,0,0,1-.09.32,8.38,8.38,0,0,1-1.77-.3,1.06,1.06,0,0,1-.18-.13,5.27,5.27,0,0,1,.68-1.1c.74-.91,2.2-1.23,3-1.9a3,3,0,0,0,.89-1.29c1,.67,2,1.31,2.9,1.88a6.22,6.22,0,0,1,1.71,1.72,22.1,22.1,0,0,0-1.74,6c0,.23-.07.43-.11.63a.65.65,0,0,1-.13-.38,3,3,0,0,0-2.62-3.59,11.33,11.33,0,0,1,.3,1.66,2.49,2.49,0,0,0,2,2.1,1.13,1.13,0,0,1,.37.67A7.15,7.15,0,0,1,27.26,51C27.08,51.29,26.84,51.32,26.18,50.93Z"/></g></g></svg>