<?xml version="1.0" encoding="utf-8"?>
<!-- Generator: Adobe Illustrator 24.1.0, SVG Export Plug-In . SVG Version: 6.00 Build 0)  -->
<svg version="1.1" id="Layer_3" xmlns="http://www.w3.org/2000/svg" xmlns:xlink="http://www.w3.org/1999/xlink" x="0px" y="0px"
	 viewBox="0 0 126 198" style="enable-background:new 0 0 126 198;" xml:space="preserve">
<style type="text/css">
	.Arched_x0020_Green{fill:url(#SVGID_1_);stroke:#FFFFFF;stroke-width:0.25;stroke-miterlimit:1;}
	.st0{fill:#FFFFFF;}
	.st1{fill:#F58220;}
	.st2{fill:#003663;}
</style>
<linearGradient id="SVGID_1_" gradientUnits="userSpaceOnUse" x1="0" y1="198" x2="0.7071" y2="197.2929">
	<stop  offset="0" style="stop-color:#20AC4B"/>
	<stop  offset="0.9831" style="stop-color:#19361A"/>
</linearGradient>
<path class="st0" d="M62.7,149.3v-8.1c0,0-29.2,1.2-51.3,8.1L62.7,149.3z"/>
<path class="st0" d="M62.8,149.3v-8.1c0,0,29.2,1.2,51.3,8.1L62.8,149.3z"/>
<g>
	<path class="st1" d="M56.1,8.4c-1.4,0.1-2.9,0.3-4.5,0.4l6.6,16.8L56.1,8.4z"/>
	<path class="st1" d="M69.9,8.4l-2,17.3l6.6-16.8C72.8,8.6,71.3,8.5,69.9,8.4z"/>
	<path class="st1" d="M62.3,8.1c-1.4,0-2.9,0.1-4.7,0.2l3.9,17.3L62.3,8.1z"/>
	<path class="st1" d="M79.1,31.3l24.5-16.1L81.2,34.1l27.5-11.9L82.8,37.1l28.5-7.4L83.8,40l29-2.8l-30.1,6.3l30.2,1.1
		c0-9.3,0-23.7,0-27.3c-5.9-1.9-11.7-3.5-17.2-4.7L79.1,31.3z"/>
	<path class="st1" d="M49.4,29.2L37.5,11c-2.1,0.4-4.3,0.9-6.5,1.4L49.4,29.2z"/>
	<path class="st1" d="M44,9.9c-1.8,0.3-3.7,0.6-5.6,1L52,27.6L44,9.9z"/>
	<path class="st1" d="M50.3,9c-1.6,0.2-3.2,0.4-4.9,0.7l9.9,17.1L50.3,9z"/>
	<path class="st1" d="M88.6,11L76.7,29.2l18.5-16.9C92.9,11.9,90.7,11.4,88.6,11z"/>
	<path class="st1" d="M64.5,25.6l3.9-17.3c-1.7-0.1-3.3-0.2-4.7-0.2L64.5,25.6z"/>
	<path class="st1" d="M113,52.7L113,52.7c0,0,0-3.4,0-8.2l-49.9,0v-0.1l-50,0.1c0,4.7,0,8.2,0,8.2h0v0.1h0c0,0,0,0,0,0v0h0.1
		c3,0.1,97.5,0.1,99.7,0h0.1v0c0,0,0,0,0,0h0V52.7z"/>
	<path class="st1" d="M43.3,43.5l-30.1-6.3l29,2.8L14.7,29.7l28.6,7.4L17.3,22.2l27.5,11.9L22.4,15.2L47,31.3L30.3,12.5
		c-5.5,1.3-11.3,2.8-17.2,4.7c0,3.6,0,18,0,27.3L43.3,43.5z"/>
	<path class="st1" d="M82,9.9l-7.9,17.8l13.6-16.8C85.7,10.5,83.8,10.1,82,9.9z"/>
	<path class="st1" d="M75.7,9l-4.9,17.8l9.9-17.1C79,9.4,77.3,9.2,75.7,9z"/>
</g>
<path class="st2" d="M113,146.2V146h0c0,0,0,0,0,0v0h0c0-3,0-96.4,0-96.4c-3.9-2.2-6.5-3-6.5-3c-17.1-6.9-34.6-22-34.6-22
	c-8.3,6-15.2,8.1-15.2,8.1c1.7,3.9,14.5,7.9,16.4,8.4c1.8,0.6,3.4,3.2,3.4,3.2c-9.5-1.4-26.2-12.5-26.2-12.5
	c-9.7,6.9-31.4,15.3-33.5,15.8c-2.1,0.6-3.6,1.9-3.6,1.9c0,10.5,0,96.4,0,96.4c0,0,0,0,0,0v0c0,0,0,0,0,0h0v0.1h0c0,0,0,30,0,35.5
	c20.8,6.7,40.4,9.2,49.9,9.2c0,0,0,0,0,0c9.6,0,29.1-2.5,49.9-9.2C113,176.2,113,146.2,113,146.2L113,146.2z"/>
<g>
	<path class="st0" d="M44.1,109.2c-1.3,0-2.3,1-2.3,2.3c0,1.3,1,2.3,2.3,2.3c1.3,0,2.3-1,2.3-2.3C46.5,110.2,45.4,109.2,44.1,109.2z
		"/>
	<path class="st0" d="M73.4,140c-5.2-1.4-5.3-5.8-5.7-10.8c0,0-0.4-4.8-0.6-6.7c-0.2-1.9-0.8-7.4-0.9-8.5c-0.2-1.5,0-3,0.5-4.4
		c2.7-0.6,3.1-2.6,3.3-2.5c0.4-0.2,0.8-0.5,1.4-0.8c-0.5,0.8-0.7,1.4-0.8,1.7c-4.9,1.3-2.5,6.9-2.4,7.2c0-0.5,2-2,3-3.2
		c1.5,0,4.5-0.6,4.6-3.3c0.2-0.2,1.9-1.4,2.4-1.2c0.2,3-2.5,7.1-3.8,8.3c-4.5,0-4.7,4.6-4.8,5.3c5.6-1.3,5.5-4.4,5.6-4.9
		c0.8-1.2,1.5-2.2,2-3c0.4,0.2,0.5,0.9,0.6,1c-0.2,0.7-0.7,2.3-0.6,3.7c0.1,1.4,2.2,3.5,2.5,3.7c-0.2-1.1,0.8-3.2,0.8-4.5
		c0-1.3-1.6-2.7-2.1-3c-0.3-1-0.9-1.3-1-1.3c0,0,0-0.1,0-0.1c0.3,0,0.6,0.2,0.7,0.2c0.3,0.5,1.1,1.6,2,2.2c0.6,0.4,1.7,0.4,2.5,0.4
		c0,0.6,0,1-0.1,1.3c0.3-0.7,2.1-1.1,2.8-1.4c1.4-0.7,1.4-3.3,1.4-3.8c0.5-0.5,2-2.2,3.1-3.7c0.3,2.7,2,4.2,3.6,4.9
		c-0.9,2-2.1,3.2-2.5,3.7c-2,0.5-2.9,1.2-3.5,2c-1,1.6-0.9,3.6-0.7,4.7c4.1-0.8,5-3.6,4.8-5.7c-0.1-0.5,0.9-1.6,1.2-1.9
		c0.6-0.7,1.1-1.2,1.5-1.9c0,0.1,0.1,0.2,0,0.5c-0.1,0.4-1.4,3.6,2.1,5.1c0-0.2,0-1.5,0.1-2.1c0.1-0.6,0-2.2-1.8-3.1
		c-0.1-0.1-0.2-0.4-0.2-0.8c0.8,0.2,1.4,0.3,1.8,0.4c0,0.1,0,0.2,0,0.2c0,1.2,1,2.2,2.2,2.2s2.2-1,2.2-2.2c0-1.2-1-2.2-2.2-2.2
		c-0.9,0-1.7,0.6-2.1,1.4c-0.3-0.1-0.7-0.2-1-0.2c-0.2-0.1-0.4-0.2-0.6-0.2c0.6-1.3,0.9-3,1-5.9c0-2.1-0.9-4.3-2.3-6.3
		c1.4,0.4,4.7,1.5,5.3,1.8c0,0.2,0.1,0.6,0,0.8c-0.2,0.3-2.7,2.3,0.6,5.7c0.1-0.2,0.9-1.9,1.1-3c0.1-0.2,0.1-1.3-1.1-2.6
		c0,0-0.1-0.4-0.1-0.7c2.2,1.3,2.8,2.3,3.1,3.4c-3.9,2.5-2,5.7-1.9,6.3c0.7-0.9,1.9-1.5,2.7-2.5c0.9-1.1,0-3.3-0.2-3.8
		c-0.1-1.9-1.8-3.3-3.4-4.3c0.4,0,0.8,0.1,1.1,0.1c2.9,2.7,4.9-0.4,4.9-0.4c-2.9-2.4-4.5-0.7-5.1-0.3c-0.5,0.3-1.5,0.1-1.8,0
		c-0.4-0.2-1.4-0.6-2.6-1.1c0.1,0,0.1,0,0.1,0s0.2-0.3,0.7-0.3c0.6-0.1,5.6,0.4,6.1-5.1c-0.3,0.1-2,0.6-2.9,0.7
		c-0.9,0.1-3,1-3.5,3.8c0,0.2-0.5,0.5-1,0.7c-1.4-0.6-2.9-1.2-3.5-1.5c-0.2-0.2-0.3-0.4-0.5-0.6c-0.3-0.5-0.7-0.8-1-1.1
		c-2.1-2.2-4.3-3.9-5.5-4.7c0-0.6,0.5-0.8,0.7-0.9c0.8,0.1,2.7,0.4,4.2,0.1c1.1-0.2,2.4-1.6,3.1-2.6c0.3,0.6,0.4,1,0.5,1.2
		c-0.5,0.4-0.9,1.1-0.9,1.8c0,1.3,1.1,2.4,2.4,2.4c1.3,0,2.4-1.1,2.4-2.4c0-1.3-1.1-2.4-2.4-2.4c-0.2,0-0.3,0-0.5,0
		c-0.2-0.2-0.6-0.6-0.9-1c0-0.1-0.1-0.1-0.2-0.2c0.1-0.2,0.2-0.3,0.3-0.4c-0.1,0-0.3,0.1-0.4,0.1c-0.3-0.6-0.6-1.4-0.8-1.7
		c1.7,0.2,3.7,0.6,6.1,1.3c0.1,0.1,0.3,0.1,0.5,0.2c0.1,0.2,0.1,0.4,0.1,0.5c-0.9,2.1-0.4,2.6-0.2,2.9c1.1,1.3,1.5,2.2,1.8,2.7
		c-0.1-0.2,0.7-2.9,0.5-3.8c-0.3-0.9-1.4-1.5-1.6-2c0-0.1,0-0.1-0.1-0.2c0.8,0.2,1.7,0.5,2,0.7c1.1,0.8,1.5,2,2.9,2.5
		c1.8,0.6,3-0.1,4.9-0.2c-0.2-0.9-2-3.2-3.3-3.5c-2-0.4-3.5,0.2-4.2,0.2c-0.2,0-1.3-0.6-3.3-1.2c-0.1-0.1-0.1-0.3,0-0.4
		c0.2-0.2,1.2-1.2,2.1-2.1c0.2-0.1,0.7-0.2,1.2-0.1c0.6,0.1,1.2,1.6,2.6,1.8c1.4,0.2,2.9-0.4,3.3-0.8c-1-0.4-1.1-1.4-2.7-1.9
		c-0.8-0.1-1.6,0-3.1,0.5c-0.1,0-0.4,0-0.5-0.2c0.3-0.3,0.6-0.4,0.7-0.4c0.4,0,3.1-0.7,3.6-1.3c0.9-1,0.6-2.8,1.3-3.5
		c0,0-2.9,0.3-4,1.1c-0.3-0.8-0.7-1.8-1.5-2.7c-1.4-1.6-2.6-1.9-4.1-2c-0.5-0.4-3.4-2-3.1-3.1c0.8-0.7,1.7-1.3,2.5-1.8
		c1.2,0,2,0.7,2.3,0.8c0.8,1.4,1.3,1.7,2.7,1.9c1.5,0.2,3.8-0.5,4.1-0.6c-1.2-1.8-3.5-2.5-3.9-2.5c-1.8,0-2.7,0.5-2.7,0.5
		s-1-0.3-1.5-0.6c-0.1,0-0.2-0.1-0.2-0.1c1.1-0.6,2-1,2.8-1.3c0.4,0.6,1.1,1,1.9,1c1.3,0,2.3-1,2.3-2.3c0-1.3-1-2.3-2.3-2.3
		c-1.3,0-2.3,1-2.3,2.3c0,0.3,0.1,0.5,0.1,0.7c-5.2,1.8-8.8,5.9-9.5,6.5c-0.3,0.3-0.5,0.4-0.6,0.4c0-0.5-0.1-1-0.2-1.5
		c-0.1-0.7-0.3-1.4-0.5-2.1l0,0c0,0,0-1.1,0.3-1.3c0.3-0.2,1.2-0.8,1.6-0.8c0.3,0,5.5,0.8,7-4.2c-0.5,0-6.1-1.2-7.4,3.6
		c-0.4,0.2-1.2,1-2.3,0.7c-0.7-1.6-1.5-3.4-2.4-5c0.5-0.4,1-0.9,1.5-1.4c0.3-0.1,0.6-0.2,1-0.2c0.6,0,1.6,0.1,1.6,0.1
		s1.4,1.1,3.4,0.9c2-0.1,2.9-1.5,3.4-1.7c-0.2,0-2-1.2-4.4-0.9c-0.4,0-1.7,0.1-2.4,1.1c-0.2,0-1.2,0-1.6-0.1c1.1-1,2.2-1.8,2.4-2
		c1.4-0.1,2.6-0.5,3.6-1.2c1.1-0.7,1.4-3.8,1.3-4.4c-0.4,0.2-3,1.2-4.1,1.9c-1.1,0.6-1,2.7-1.1,3.2c-0.1,0.2-1.1,1.2-2.4,2.2
		C87.9,59.8,88,59,88,58.5c1.2-1.4,1.4-2.6,1.4-3.2c-0.2-1.2-1.2-3.8-1.3-4.1c-3.3,4.4-0.9,6.9-0.6,7.3c-0.1,1,0,1.9,0,2.2
		c-0.6,0.5-1.2,1-1.8,1.4c-0.1-0.2-0.2-0.3-0.3-0.5c-2-3.5-2.8-5.5-2.4-8.1c0.1-0.7,0.8-2.7-0.1-3.9c-1-1.2-2.6-2.8-2.7-2.9
		c0,0.6,0.2,1.6-0.1,2.9c-0.3,1.3-0.6,2.5,1.7,4.7c-0.7-0.5-1.6-1.5-2-2.2c-0.4-0.7-1-1.4-2.1-1.6c-1.1-0.2-1.6-0.3-2.8-0.3
		c0.4,0.5,1.3,1.7,1.5,2.2c0.2,0.5,0.8,1.9,2.7,1.7c0.5,0,1.4,0,1.6,0.1c0.2,0.1,0.9,0.7,1,1.3c0.2,1.2,0.6,2.6,1.1,3.9
		c-0.1-0.1-0.3-0.2-0.5-0.4c-0.4-0.5-2.7-5-7.6-2.5c0.3,0.2,1.6,1.4,2.2,2.1c0.6,0.7,2.4,2,5.1,0.9c0.1,0,0.6,0.1,1,0.4
		c0.4,1.1,0.9,2.1,1.4,3.1c-0.1,0.1-0.3,0.2-0.3,0.2c-0.1,0-0.1,0.1-0.2,0.1c-2.2-1.6-4.2-0.9-5-0.5c-0.5,0.3-1.3,0.7-1.9,1
		c-0.5-1-1.5-1.9-3.2-2.5c0.1,0.3,0.1,2.1,0,3c-0.1,0.9,0.2,3.1,2.8,4.3c0.1,0.1,0.2,0.3,0.3,0.6c-2.4-1.3-4.3-2.4-5.6-3.3
		c0-0.2-0.1-0.8-0.1-1.1c0-0.4,3.2-3.6-0.8-7.4c0,0.3-0.6,1.6-0.8,1.9c-0.2,0.2-1.5,3.4,1,5.4c0.1,0.2,0.2,0.6,0.2,0.9
		c-1.1-0.7-1.6-1.2-1.7-1.4c-0.3-0.5-0.4-1.8-0.4-1.8c-0.1-2.1-2.2-3-3-3.3c-0.8-0.3-2.2-0.8-2.7-1.2c0.5,6.3,3.2,6.1,4.2,6.4
		c1,0.3,1.3,0.6,1.3,0.6c1.5,1.5,4,3,6.3,4.3c-0.1,0-0.3,0-0.5,0c-0.5-0.1-3.8-1.7-6.3,0.8c-0.3-1.4-0.8-2.5-1.2-3.3
		c-0.7-1.2-2.3-2.6-3.9-4.2c-0.1-0.7-0.4-1.5-0.8-2.2c-0.5-0.9-1.9-1.5-3.1-1.9c-0.2-0.3-0.4-0.6-0.6-0.9c0-0.1,0-0.4,0.2-0.6
		c0.3-0.2,2-1.3,2.3-1.5c0.3-0.1,1-0.3,2.4,0.2c0.2,0.4,1.4,1.5,2.8,1.6c1.4,0.1,3.6-0.5,4.3-1.4c-0.7-0.3-1.4-1.2-3.8-1.7
		c-0.4,0-1.8-0.2-3.1,0.8c-0.3-0.1-1.7-0.2-1.3-0.5c0.3-0.2,1.6-0.9,2.4-1.1c0.4,0.3,0.9,0.6,1.5,0.6c1.2,0,2.2-1,2.2-2.2
		c0-1.2-1-2.2-2.2-2.2s-2.2,1-2.2,2.2c0,0.2,0,0.4,0.1,0.6c-0.4,0.4-1.2,1.3-2.2,1.9c-0.2,0.1-0.4-0.3-0.4-0.7
		c0.1-0.4,0.3-0.5,0.3-0.5s1.9-1,2.1-1.8c0.1-0.8,0.1-2,0.1-2c-0.3,0.4-1.3,1.3-3.3,1.5c-0.1,0.3,0,1.5,0.3,2.4c0,0.4,0.1,1.6-0.5,2
		c-0.6,0.4-1.8,1.4-2.6,1.3c-0.5-0.9-0.8-1.9-0.8-2.8c0.1-1.4,0.8-2.5,1.8-2.9c0.3,0.1,3.7,0.1,4.5-1.1c0.9-1.2,1.4-3.1,2.1-3.4
		c-1-0.1-3.5-0.6-5.3,1c-1.7,1.5-1.6,3-1.6,3c-1,0.4-2.6,2-2.6,3.4c0,1,0.2,1.9,0.5,2.8c-0.6,0-1.2-0.1-1.7-0.2
		c-0.1-0.1-0.2-0.3-0.2-0.5c0-0.3,0-1.2,0-1.2s1.2-1,1.4-2.2c0.2-1.6-1.1-3.5-0.9-4.5c-0.4,0.5-3.9,4.1-1.1,6.7
		c0,0.3,0.2,1.1-0.2,1.4c-0.9-0.3-1.7-0.8-2.4-1.3c0.1-0.2,0.1-0.4,0.1-0.6c0-1.6-0.4-3.5-0.8-4.4c-0.2,0.4-1,1.3-1.7,2c0,0,0,0,0,0
		c1.2-2.6-0.5-3.4-0.7-3.6c-0.1-0.2-0.5-0.9-0.6-1c-3,3.2,0.2,4.8,0.5,5c0,0.1,0.1,0.3,0.1,0.4c0,0-0.1,0.1-0.1,0.1
		c-0.7,0.7-1.2,2.4-0.2,4.5c-0.3,0.9-0.6,2.5-0.3,4.3c0.3,1.7,0,4.9-0.8,5.5c-1.7-1.4-3.1-2.6-3.9-3.7c0-0.4-0.1-1,0-1.3
		c0.1-0.5,1.9-3,1.8-4.1c-0.1-1.1-1.9-4.3-1.8-5.3c-0.3,0.7-3.6,4.9-0.7,8.6c0,0.3,0.1,0.8,0.1,1.3c-1.6-2.8-1.9-6.8-1.9-6.8
		s0.2-0.3,0.9-1c0.6-0.7,0-2.4-0.2-2.9c-0.2-0.5-0.5-2.6-0.5-2.6s-0.6,0.3-1.8,2.7c-1.1,2.4,0.4,3.5,0.6,4.4c0,1.5,0.2,2.8,0.6,4
		c-0.1,0-0.1,0-0.2,0c-0.2-0.1-1.5-0.9-1.5-0.9s-0.7-3.8-5.8-2.5c0.2,0.3,0.6,3.7,5.4,3.3c0.5,0.1,1.7,0.4,2.5,1.3
		c0.5,1.4,1.1,2.5,1.5,3c0.1,0.2,0.3,0.4,0.5,0.6c-0.2,0-0.9,0.1-1.2-0.3c-0.1-0.4-1.8-4.7-8.1-2.8c0.5,0.2,1.8,1.3,2.4,2.1
		c0.5,0.9,1.1,2.6,5.4,1.5c0.5-0.1,1.6,0.2,2.6,0.6c0.5,0.5,1,1,1.6,1.6c0,0.1-0.1,0.3-0.4,0.4c-0.5,0.2-1.8,0.8-1.8,0.8
		s-4.4-0.7-5.3,4.6c0.4-0.1,2.5,0,4.1-0.7c1.3-0.5,1.7-2.6,1.7-3.2c0.3-0.4,1.7-1.5,1.7-0.8c0,0.5-0.5,2.6-0.5,4.5
		c-1.1-0.6-2.6-0.8-4.4,0.4c-0.3,0.1-2.5,0.8-3.4,5.2c-0.8-1.3-1.6-2.8-2.5-4.5c-0.1-0.5,0-1.1,0.2-1.2c2.4-1.8,2.3-4.1,2-5
		c-0.3-0.9-0.6-2.8-0.6-3.1c-5,2.9-2.3,7.5-2.1,8c0,0.1,0.1,0.3,0.1,0.5c-1.2-2.4-2.3-5.1-3.1-8c0.8-0.4,1.4-1.3,1.4-2.3
		c0-1.4-1.1-2.5-2.5-2.5c-1.4,0-2.5,1.1-2.5,2.5c0,1.4,1.1,2.5,2.5,2.5c0,0,0.1,0,0.1,0c0.2,0.7,0.5,1.7,0.9,2.8
		c-0.1,0-0.3-0.1-0.4-0.2c-0.4-0.2-3.2-2.8-6,0.3c0.2,0,1.5,0.6,2.1,0.9c0.6,0.3,2.2,0.8,3.8-0.7c0.1-0.1,0.3-0.1,0.6,0
		c0.8,2.5,2.1,5.8,3.7,9.1c-0.1,0.3-0.2,0.7-0.8,0.7c-0.3,0-1.4,0.1-2.9,0.1L29.3,78c0,0-0.6-6.5-6.2-6.8c0.2,0.3,0.5,2.1,0.7,2.7
		c0.1,0.6-0.1,3.3,4.9,4c0.3,0.2,0.6,0.5,0.8,0.9c-1.9-0.1-4.2-0.4-6.2-1.3c-0.1-0.3-0.5-1.3-0.5-1.8c0-0.6,1.3-4.3-3.3-6.6
		c0.1,0.3,0.1,1.3,0.1,1.7c0,0.3-0.8,3.8,2.4,5c0.2,0.2,0.5,0.7,0.8,1.6c-0.3-0.1-0.5-0.3-0.8-0.4L21,77.2c0,0,1,0.6,2.7,1.3
		c-0.1,0.1-0.2,0.3-0.4,0.5c-0.3,0.3-0.9,0.6-0.9,0.6S19,78,17.4,81.6c0.7,0.2,3.9,0.9,5.3-1.5c0,0,1-0.7,1.5-1.5
		c1.8,0.6,4.3,1.1,7.4,1c-0.4,0.2-0.8,0.4-1,0.4c-0.6,0.1-5.6-0.3-6.1,5.1c0.3-0.1,2-0.6,2.9-0.7c0.9-0.1,3-1,3.5-3.8
		c0.1-0.2,1.2-1,1.8-1c0.1,0,0.1,0,0.1,0c0.2,0,0.5,0,0.7-0.1c0.2-0.1,1,0.1,1.5,0.4c0.9,1.7,1.9,3.3,3.1,4.8c0,0,0,0,0,0
		c-0.5,0.3-1.5,1-2.2,1.9c-0.2,0-3.4-0.5-3.5,4.7c0.1-0.1,2.1-0.4,3.1-1.6c0,0.1,0,0.3,0,0.4c0,1.2,1,2.3,2.3,2.3
		c1.3,0,2.3-1,2.3-2.3c0-1.2-0.9-2.1-2-2.2c-0.1-0.2-0.5-2.2,0.4-2.8L38,85.2c0.1-0.1,0.3-0.2,0.4-0.3c1.2,1.6,2.4,3.1,3.6,4.5
		c-0.1,0-0.2-0.1-0.2-0.1c0.1,0.3,0.2,1.9,0.2,2.7c0,0.8,0.4,2.8,2.8,3.8c0.1,0.1,0.4,0.5,0.4,1c-0.2,0-0.4,0.1-0.6,0.1
		c-2.1,0.5-3.2-0.8-4-1.2c-5.1-3.9-10.6-1.9-13.1-0.6c0-0.2,0-0.5,0-0.6c0.1-0.3,1.5-1.4,1.5-2.7c0-1.3-0.5-3-1-3.7
		c-0.1,0.2-0.6,1.1-0.8,1.3c-0.3,0.5-2.4,2.2-0.1,5.1c0,0.2,0,0.6,0,0.9c-0.2,0.1-0.4,0.2-0.6,0.3c-0.2-0.1-0.7-0.6-0.9-1.1
		c-0.3-0.6-1.6-5.9-7.4-4.4c0.3,0.2,1.3,1.9,1.8,2.7c0.5,0.9,2.1,2.7,5.2,2.2c0.2,0,0.7,0.3,1,0.8c-0.1,0-0.1,0.1-0.1,0.1
		c-0.5,0.2-1.8,0.3-4,1c-2.2,0.7-3,3.8-3.1,5c0.6-0.4,1.8-0.5,3.1-0.6c-0.8,5.1,3.2,6,3.2,6s1,1.4,1.5,2c0.5,0.6-1,0-1.6-0.1
		c-3.4-3.4-6.5-1.1-7.4-0.5c0.8,0,2,1.9,3.5,2.3c1.5,0.4,3.3-0.4,3.9-0.6c0.6-0.2,1.9-0.2,2.3,0c2.8,1.7,6,2,8.1,1.9
		c-0.7,1.1-1.9,1.2-2.4,1.2c-0.4-0.3-0.9-0.4-1.4-0.4c-1.3,0-2.4,1.1-2.4,2.4c0,1.3,1.1,2.4,2.4,2.4c1.3,0,2.4-1.1,2.4-2.4
		c0-0.2,0-0.5-0.1-0.7c1.2-2,2.8-2.6,3.2-2.8c0.3,0,0.5-0.1,0.6-0.1c0.7-0.2-2,4.1-2.5,4.8c-5.2,0.7-4,5.7-4,6.7
		c0.6-1,3.1-1.4,4.2-2.7c1-1.3,0.7-2.9,0.7-3.6c1.7-2.2,3.1-6.5,3.5-7.5c0,0.5,0.1,0.9,0.2,1.4c0,0-0.7,1.5-0.8,2.5
		c-0.5,0.5-2.2,3,0.9,6.3c-0.1-0.2,0.3-1.6,0.6-2c0.3-0.3,1.5-2-0.7-4.4c0-0.2-0.3,0.1,0.2-1.5c1.2,4.3,4.5,6.1,5.2,6.4
		c1.1,4,6.1,2.8,7.2,2.4c-1.1-0.9-0.7-1.5-2.6-2.5c-1.9-1.1-3.5-0.5-4.2-0.5c-8.6-4.9-3.9-13.5-3.1-14.8c0.6,3,2.2,5.1,3.9,6.6
		c0.2,0.3,1,1.8,1.3,2.4c-0.1,0.5-0.6,5.6,5.8,6.6c-0.1-0.3-0.5-1.8-0.5-2.1s-0.2-4.5-4.6-4.8c-0.2-0.2-0.7-0.9-1-1.4
		c2.4,1.6,4.9,2.2,5.6,2.3c1.7,2.1,3.7,2.3,5.3,1.8c0,3.1,0,7.1,0,9.1c0,3.1,0.6,14.3-6.8,16.5c-10.7,1-25.8,3.1-38.7,6.9
		c0,0,21.8-4.1,49.7-4.1c27.9,0,50.2,4.1,50.2,4.1C99.5,142.8,83.5,140.8,73.4,140z M37.5,87.7c-0.5,0.1-0.9,0.3-1.2,0.6
		c0.3-1.2,0.2-1.5,0.2-1.5s0.4-0.5,0.9-1C37.4,86.1,37.4,87,37.5,87.7z M76.4,93.5c-1.3,1.1-2.4,2.1-3.2,2.7c-0.8-0.2-1-0.7-1.2-1
		c-0.7-2.3-1.3-4.4-1.9-6.1c2.1,1,4.4,0.1,4.8,0c0.3-0.1,0.7,0,1,0.1c0.6,1.3,0.8,2.4,0.9,2.9C76.9,92.6,76.7,93.1,76.4,93.5z
		 M75,88.4c-1.4-2.5-3.6-2.7-4.5-2.5c-0.4,0.1-1,0.1-1.5,0.2c-0.6-1.5-1.3-2.7-2.1-3.9c0.1-0.3,0.2-0.7,0.4-1
		c1.7,2.7,4.6,2.4,4.9,2.5c1.8,1.8,2.9,3.6,3.6,5.1C75.3,88.7,75.1,88.5,75,88.4z M69.4,96.1c0.4,1.5-0.1,2.6-0.5,3.2
		c-0.5,0.3-1,0.5-1.6,0.7c-0.3,0.1-1.8,0-1.9-2.7c-0.1-2.4,0-7.3,0.5-11C67.8,90.5,69,94.9,69.4,96.1z M69.7,106.5
		c-0.4-0.1-1-0.1-1.5-0.1c0.9-1.5,2.1-2.9,3.4-4.3c1.3-0.1,2.2-0.1,3.3,0.7C73.8,104.5,70.2,106.4,69.7,106.5z M77.8,106.8
		c-0.2,0.2-1.9,1.1-2.3,1.1c-0.3,0-2.2-0.5-3.9,1.5c-0.1-0.7-0.3-1.2-0.3-1.3c0.1-1,1-2.3,1.3-2.7c1.1-0.8,2-1.5,2.3-1.8
		c0.2-0.2,0.4-0.3,0.5-0.3c0.6,0.5,1.2,1.1,2,2.1c0.2,0.3,0.4,0.5,0.5,0.8C77.9,106.4,77.9,106.7,77.8,106.8z M87.6,108.8
		C87.5,108.8,87.5,108.8,87.6,108.8c-0.1,0-0.3,0.1-0.8-0.1c-0.5-0.2-4.1-2.6-6.7,1.3c0.3,0,1.8,0.4,2.5,0.7
		c0.7,0.3,2.6,0.5,4.2-1.4c0.1-0.1,0.3-0.1,0.5-0.1c-1.3,1.8-1.4,2-1.4,2s-1.9,0.2-2.7,1.4c-0.3,0.5-0.4,1.1-0.5,1.7
		c-0.5-0.6-1-1.3-1.4-1.7c-0.8-0.6-2.5-0.3-2.9-0.1c-0.3-0.1-0.5-0.1-0.7-0.1c1-1.6,1.5-2.6,1.6-4.4c0.2-3.5-4.2-6.8-5.4-7.6
		c0,0,0.1-0.1,0.1-0.1c1-0.8,2.3-2.1,3.7-3.7c0.2,0.1,0.4,0.2,0.5,0.3c0.3,0.3,2.1,3.4,5.5,1.5c-0.2-0.1-1.2-0.9-1.6-1.4
		c-0.5-0.5-1.8-1.3-3.7-0.5c-0.1,0-0.3,0-0.5-0.1c0.9-1,1.8-2.1,2.8-3.1c1.8,0.1,3.5,0.6,5,1.4c0.1,0.3,0.2,0.6,0.2,0.7
		c-0.3,0.8-1,2.6-0.9,4.1c0,1.6,2.3,4.2,2.6,4.4c-0.2-1.3,1.1-3.6,1.1-5.1c0-1.4-1.7-3.1-2.2-3.5c0-0.1,0-0.1-0.1-0.2
		c1.5,0.9,2.8,2.1,3.9,3.4c0.6,1.3,1,3,0.6,4.9c-0.4,0.7-2.7,3.8-7.8,1.2c-0.2-0.1-0.6-0.4-0.9-0.5c0,0,0,0,0,0
		c-0.1-2.4-1.8-3.3-2.5-3.5c-0.7-0.2-2.1-0.7-2.3-0.9c-0.2,4.3,3.5,4.7,4.3,4.8c0.8,0.7,4.5,3.4,8.1,1.1c-0.1,0.2-0.2,0.3-0.3,0.5
		C88.8,107.2,88.1,108.1,87.6,108.8z M93.7,111.9c-3.9-2.1-2.9-5.7-2.9-5.7c0.6-1.1,1.7-2.8,1.8-4.9c1.2,1.9,1.9,3.8,2,5.2
		C94.6,108.7,94.2,110.5,93.7,111.9z M92.2,87c0.1,0.2,0.2,0.3,0.3,0.5c-1.3,0-3.1-0.4-4.1-0.2c-1.4,0.3-2.7,2.3-3,2.9
		c-0.7,0.4-1.1,0.9-1.2,1.1c-0.1,0-0.2-0.1-0.2-0.1c-0.6-0.2-1.1-0.4-1.4-0.5c1-1.2,1.9-2.3,2.4-3c0.3-0.4,0.7-0.9,1-1.4
		c0.4-0.5,1.1-1,1.6-1c0.3,0,0.8,0,1.6,0C92.2,85.6,92,86.6,92.2,87z M102,79.9c-0.4,0.8-0.5,1.6-0.5,1.9c-0.2,0.4-1.1,1.1-1.7,1.7
		c-0.6,0.5-1.3,1-2.4,2c-0.1,0-0.2,0.1-0.3,0.1c-0.2-0.1-0.5-0.1-0.7-0.2c-1.1-0.2-2.5-0.4-3.8-0.6c-0.1-0.2-0.1-0.5,0-0.6
		c0.2-0.3,0.4-0.6,0.4-0.6s2.7-0.4,3.8-1.2c0.9-0.6,1.9-2.1,2.6-3.5C100.1,79.4,100.9,79.7,102,79.9z M90.8,74.3
		c0.6-0.8,1.2-1.5,1.9-2.1c0.3-0.2,0.9-0.3,1.5,0.1c0.8,0.7,2.6,2.2,2.6,2.2c0,0.4,0.2,2.2,1.6,3.6c-1.1,0.3-2.5,0.7-3.8,1.6
		c-2.3,1.7-1.9,3.2-2,3.6c-0.3,0.3-0.6,1.1-1.3,1.3c-1.9-0.3-3.4-0.6-3.6-1.2c1.2-2.4,2-5.1,2.2-7.8C90.2,75.1,90.6,74.5,90.8,74.3z
		 M87.5,77.4c-0.8-1-2.7-3-4.6-4.6c0,0,0,0,0,0s-0.1-0.3,0.1-0.8c0.2-0.5,3-3.8,0.2-7.1c0.2-0.1,0.3-0.2,0.5-0.3l0.5,1.1
		c0,0,0-0.6,0.3-1.4c0-0.1,0.1-0.1,0.1-0.2c0.1,0,0.1,0,0.2,0c1.1,2.2,2.1,4.1,2.3,5.1C87.7,71,88.3,73.5,87.5,77.4z M77.3,68.6
		c0-0.3,0.5-1.8,0.2-3.3c1.7,1,3.2,0.9,4.4,0.4c-0.2,0.4-0.4,0.9-0.5,1.2c-0.4,0.8-0.9,3,1.1,5.1c0.1,0.1,0.1,0.3,0.1,0.6
		c-0.8-0.6-1.5-1.1-2.2-1.4c-1-0.5-2-1-2.9-1.5c0-0.1,0.1-0.2,0.1-0.2S77.3,69.2,77.3,68.6z M74.4,70c0.1-0.1,0.5-0.3,1-0.3
		c2.2,1.2,4.2,2.2,4.8,2.7c1.5,1.1,2.6,2.1,3.4,3.1c-0.7,0.4-1.3,0.7-1.9,0.9c-0.1,0-0.3,0.1-0.4,0.1c-2.5,0.7-4.2,0.2-4.6-0.1
		c0.7-3.9-1.9-5.1-2.9-5.6C74,70.6,74.2,70.3,74.4,70z M69.8,72.3c0.7,0.2,2.3,0.1,3.7-1.2c0.1,1.1,0.2,2.4,0.4,3.5
		c0.2,1.4,1.9,2,2.4,2.1c1.5,1.2,3.7,0.9,5.4,0.4c-0.2,0.3-0.7,0.5-0.8,0.7c-4,0.2-3.1,3.8-3.1,3.8c3.7-0.5,3.6-2.8,3.7-3.5
		c0.1-0.6,1-1.2,1.2-1.3c0.7-0.2,1.3-0.5,1.6-0.6c1.8,2.4,1.9,4.4,1.9,5.2c-1.8,3.7-4.8,7.3-7.7,10.1c-0.3,0-0.3-0.2-0.5-0.3
		c-0.2-0.6-0.5-1.1-0.7-1.6c0.1-0.5,0.3-1,0.4-1.1c2.6-1.2,2.9-3.5,2.8-4.4c-0.1-0.9-0.1-2.7-0.1-3c-5.2,1.9-3.4,6.6-3.3,7.2
		c0,0.4,0,0.6-0.1,0.7c-1.6-3-3.4-5.3-4.1-6.1c-0.9-3.7-3.3-4.2-4.9-4.2c0.3-1.5,0.5-2.8,0.6-3.6c0.1-1.1,0-2.2-0.1-3.1
		C68.9,72.2,69.4,72.2,69.8,72.3z M64.4,79.4c-0.5-0.4-1-0.8-1.5-1.2c-1.2-0.8-2.4-1.6-3.6-2.4c0,0,0,0,0,0s4.9-1,3.6-7.1
		c-0.3,0.1-4,1.9-4.2,4.5c-0.1,0.6,0.2,1.6,0,2.2c-1.3-0.9-2.5-1.7-3.7-2.5c-0.1-0.3-0.2-0.7-0.1-1c0.1-0.5,1.3-1.8,1.3-3
		c1.2,0.5,2.6,0.8,3.8,0.3c0.6-0.2,1.5-1.1,2.1-1.1c0.6,0,1.8-0.1,2.6,0.2C66.8,72.1,65.6,76.5,64.4,79.4z M47.8,66.8
		c0.1-0.5,0.4-1.8,0.5-3.7c0.2-0.8,0-1.6,0.6-1.6c0.6,0,1.5,0.4,1.9,0.5c0,0,0,0.1,0,0.1c0,1.3,1,2.3,2.3,2.3c1.3,0,2.3-1,2.3-2.3
		c0-1.3-1-2.3-2.3-2.3c-1,0-1.9,0.7-2.2,1.6c-0.5-0.1-1.5-0.4-2.1-0.5c-0.4-0.1-0.6-0.4-0.7-0.7c0-0.1,0-0.1,0-0.2
		c-0.1-0.8-0.2-2,0.4-2.8c0.3-0.1,1.3-0.7,2.1-1.6c2.2,1.5,5,2.3,5.6,2.5c0.4,0.2,0.7,0.3,0.9,0.5c0.5,1.1,0.9,3.2,1.6,4
		c0.5,0.6,1.6,1,2.7,1.3c0.9,0.8,1.6,1.5,1.8,1.7c0.5,0.5,0.9,1.1,1.2,1.6c-0.1,0.1-0.3,0.2-0.6,0.2c-0.4,0-1.8-0.2-1.8-0.2
		s-2.6-2.9-6.4-0.7c-0.2-0.3-0.3-0.6-0.5-0.8c-0.6-0.8-1-1-1-1.5c-0.3,0.7-3.5,4.8,0.1,7.5c0.1,0.1,0.2,0.2,0.2,0.6
		c-2.5-1.7-4.7-3.3-6.6-4.8C47.7,67.5,47.7,67.2,47.8,66.8z M37.4,80.3c0,0-0.3-0.6-0.1-1.6c0.2-1,1-3.9,2.8-4.4
		c0.2,0.1,1.1,1.7,2.9,1.6c0.7,0,1.3-0.1,1.8-0.3c0.1,0.1,0.1,0.3,0.2,0.4c-0.6,0.4-1.1,1.1-1.1,1.8c0,1.2,1,2.2,2.2,2.2
		c1.2,0,2.2-1,2.2-2.2c0-1.2-1-2.2-2.2-2.2c-0.2,0-0.4,0-0.6,0.1c0-0.1-0.1-0.2-0.2-0.4c0.4-0.2,0.8-0.4,0.9-0.6
		c-0.1,0-0.5-0.6-1.2-1.1c-0.1-1.1,0-2.6,0.5-4.6c0,0,0.2-0.4,0.4-0.6c3.1,2.7,7,5.6,10.8,8.2c-0.8,0-1.1-0.2-1.3-0.3
		c-1.5-2.4-3.6-2-4.3-1.8c-0.6,0.2-2.4,0.7-2.8,0.7c0.4,0.6,0.9,1,1.3,1.4c-0.7,1.2-4.1,6.6-5.6,9.1c-0.3-0.6-0.5-1.6-0.4-1.8
		c1.6-2.4,0.8-4.5,0.2-5.2c-0.5-0.7-1.5-2.3-1.5-2.6c-3.5,4.2,0.3,7.5,0.7,7.9c0.3,0.4,0.6,1.6,0.7,2.1c-0.2,0.3-0.3,0.5-0.4,0.6
		c-0.1,0-0.3,0.1-0.6,0.1c-1.3-1.3-2.5-2.6-3.1-3.4C39.1,82.8,38.3,81.7,37.4,80.3z M45.3,95.7c0-0.2,0.2-1.1,0.1-2.2
		c0.7,0.7,1.3,1.5,2,2.2c-0.2,0.6-0.8,0.8-1.9,1.1C45.4,96.5,45.3,96.1,45.3,95.7z M39.1,109.6c-0.5,2.4-4.9,2.2-8.1,1.4
		c-0.8-0.8-0.7-1.7-0.8-2.1c1-3-2-4.4-2.5-4.7c-0.4,4.7,2,4.9,2,4.9s0.3,0.9,0.5,1.3c0,0.1,0,0.2,0,0.3c-0.9-0.3-1.6-0.6-2-0.9
		c-1.3-1.4-1.6-2.2-2-3c0.9-3.1-0.7-4.6-1.6-5.1c-0.3-0.2-0.6-0.4-0.9-0.6c1.7-0.4,2.4-4.4,2.7-4.6c0.3-0.1,0.5-0.2,0.7-0.3l0.4,0.7
		c0,0-2.4,4,2.8,6.1c0-0.3,0.2-1.8,0.2-3.1c0-0.7-1-3.1-2.7-3.2l-0.2-0.8c7.8-3.6,10.4-1.1,12.9,0.7c1.7,1.2,2,3,2.1,4.1
		c-0.2,0.3-0.3,0.6-0.5,0.9c-0.4,0.1-1.7,0.5-3.1,1.2c-0.4-0.3-0.6-0.7-0.6-0.9c0.6-2.7-1-4.3-1.7-4.7c-0.8-0.4-2.2-1.5-2.3-1.7
		c-1.6,5.1,3.1,6.5,3.6,6.8c0.3,0.2,0.5,0.5,0.6,0.7c-0.1,0-0.2,0.1-0.2,0.1c-0.4,0.2-1.1,0.7-1.1,0.7s-3.9-1.9-6.1,2.8
		c-0.1,0.1-0.2,0.7,0.8,0.7c1-0.1,4.1,0.4,5.5-2.9c0.3-0.2,1.5-1.5,4.2-2.2C40.5,104.5,39.7,107,39.1,109.6z M53.6,111.8
		c-2.2-0.2-4.8-0.6-7.8-4.4c-0.4-0.5-0.7-1-1-1.5c0-0.3,0-0.6,0.2-0.8c0.3-0.2,0.9-0.1,1.2,0c0.3,0.1,0.9,0.7,1.2,1.4
		c0,0.4-0.3,4.4,5,5.1c-0.1-0.2-0.5-0.8-0.5-1.2c0-0.4-0.3-3.9-3.7-4.2c-0.1-0.1-1.1-1-0.8-1.1c0.3-0.1,0.6,0,0.8,0.1
		c0.2,0.1,3.7,3.8,8.4,0c-0.1-0.1-1.1-0.3-1.5-0.6c-0.3-0.2-3.1-2.6-6.8-0.2c-0.3,0.1-2.8,0.3-4,0.1c-0.7-2.5-0.1-4.7,0.1-5.2
		c2-2.5,4.5-1.8,5.2-1.5c1.9,1.9,3.7,3.5,5.6,5c1,1,3.7,2.9,3.5,7.6c0,0,0,0.4,0,1.1C56,110.2,54.2,111.5,53.6,111.8z M60.2,92.7
		c-0.1,0.4-0.1,0.8-0.2,1.1c-0.1-0.1-0.2-0.3-0.2-0.7c-0.1-0.6,0.7-5.6-4.7-6.4c0.1,0.3,0.5,2.1,0.5,3c0.1,0.9,0.8,3.1,3.6,3.8
		c0.2,0.1,0.6,0.6,0.7,1.2c-0.5,2.7-0.7,3.4-1,3.9c-0.3,0.6-0.8,0.6-1.9-0.1c-1.2-0.7-7-4.7-9.3-6.8c-0.8-0.8-1.9-1.8-3-2.8
		c-0.3-0.4-0.7-1.1-0.5-1.7c0.1-0.3,0.6-1.1,1.2-2.1c0.2-0.2,1-0.6,1.8-0.7c0.2,0,0.7,0,1.2,0c0.4,0.2,1,0.7,1,0.8
		c0.1,2.1,1.5,3,2.2,3.2c0.6,0.2,1.9,0.7,2.1,0.9c0.3-4.1-3.5-4.3-3.9-4.5c-0.2-0.1-0.5-0.3-0.6-0.5c1.8-0.1,4.4-0.3,6.1-0.9
		c0.2,0.1,2.4,0.4,3.5-0.6c1.1-1,1.2-2.1,2.1-2.4c-0.9-0.3-4.8-1.2-5.8,2.4c-0.3,0.3-2.8,1-7.9,1c-0.2-0.1-0.5-0.3-0.7-0.5
		c1.4-2.5,3.2-5.4,3.8-6.2c2.8,2,4.9,0.3,5.1,0.2c0.3-0.1,0.7-0.1,1.7,0c0.2,0,0.4,0.1,0.6,0.1c0.9,0.6,1.7,1.1,2.6,1.6
		c1.1,0.7,2.1,1.8,3.1,3C61.5,86.1,60.8,88.9,60.2,92.7z"/>
</g>
<g>
	<path class="st0" d="M44.2,169.2c-0.4,1.5-1.2,4-1.8,5.1c-0.9,0.2-3.7,0.8-5.9,0.8c-8.3,0-11.8-5.5-11.8-10.6
		c0-6.6,5.1-11.1,12.5-11.1c2.6,0,4.9,0.7,5.8,0.9c0.3,1.8,0.5,3.2,0.7,5.1l-1.1,0.2c-1-3.6-3.2-4.9-6.1-4.9c-4.9,0-7.6,4.4-7.6,9.2
		c0,5.9,3.3,9.9,7.8,9.9c2.9,0,4.8-1.7,6.4-4.9L44.2,169.2z"/>
	<path class="st0" d="M59.6,158.8c-0.7-2-2-4.3-5.1-4.3c-2.4,0-3.9,1.5-3.9,3.3c0,2,1.5,3,4.7,4.4c3.6,1.5,6.6,3.2,6.6,6.5
		c0,3.6-3.5,6.3-8.9,6.3c-1.4,0-2.7-0.2-3.7-0.4c-1-0.3-1.7-0.5-2.1-0.7c-0.3-0.8-0.8-3.5-1.1-5.2l1.3-0.3c0.7,2,2.7,5.5,6.4,5.5
		c2.5,0,4.1-1.4,4.1-3.6c0-2-1.8-3.2-4.6-4.5c-3.3-1.4-6.4-3.1-6.4-6.4c0-3.4,3.1-6,8.3-6c2.1,0,4.1,0.5,5,0.8
		c0.2,1.2,0.4,2.5,0.7,4.5L59.6,158.8z"/>
	<path class="st0" d="M85.2,154.8c-1.8,0.1-2.6,0.7-2.7,1.9c-0.2,1-0.3,2.2-0.3,4.7v3.2c0,3.6-0.5,6.3-2.4,8.2
		c-1.5,1.5-3.6,2.3-5.9,2.3c-2,0-4-0.4-5.4-1.6c-1.9-1.4-2.7-3.8-2.7-7.6v-7.7c0-2.9-0.3-3.1-2.7-3.4v-1h9.1v1
		c-2.4,0.2-2.7,0.4-2.7,3.4v7.1c0,4.9,1.5,7.8,4.5,7.8c4.8,0,5.7-3.2,5.7-8.6v-3c0-2.5-0.1-3.8-0.3-4.7c-0.2-1.2-0.9-1.7-3.1-1.9v-1
		h8.9V154.8z"/>
	<path class="st0" d="M100.8,158.7c-0.3-1.2-0.6-2-1.1-2.7c-0.6-0.8-1.4-1-3.5-1h-1.9c-1.1,0-1.2,0.1-1.2,1.1v7.3h2.9
		c2.8,0,3.1-0.3,3.5-2.3h1.1v6.3h-1.1c-0.4-2.1-0.6-2.5-3.5-2.5h-2.9v5.3c0,2.9,0.3,3.1,3.1,3.3v1h-9.5v-1c2.4-0.2,2.7-0.4,2.7-3.3
		V158c0-2.8-0.3-3-2.7-3.2v-1.1h14.8c0,0.8,0.2,3,0.3,4.8L100.8,158.7z"/>
</g>
<path class="st2" d="M63.1,196.6c-13.1,0-38-4.1-55.3-10.7L7,185.6V13.1l0.8-0.3C25.1,6.2,49.9,2.2,63.1,2.2
	c13.1,0,38,4.1,55.3,10.7l0.8,0.3v172.4l-0.8,0.3C101,192.5,76.2,196.6,63.1,196.6z M9.5,183.9c17,6.3,40.9,10.2,53.6,10.2
	c12.7,0,36.6-3.9,53.6-10.2v-169C99.7,8.5,75.8,4.6,63.1,4.6c-12.7,0-36.6,3.9-53.6,10.2V183.9z"/>
</svg>
