<svg xmlns="http://www.w3.org/2000/svg" width="38.178" height="66.957" viewBox="0 0 38.178 66.957">
  <g id="csuf-emblem" transform="translate(-3.159 -3.7)">
    <path id="Path_184" data-name="Path 184" d="M22.249,70.657a71.379,71.379,0,0,1-18.83-3.344l-.26-.081,0-60.108.26-.08A71.407,71.407,0,0,1,22.248,3.7,71.4,71.4,0,0,1,41.077,7.044l.26.08,0,60.108-.259.081A71.376,71.376,0,0,1,22.249,70.657Zm0-.379h0l0-.162Zm0-.352h.006A70.312,70.312,0,0,0,40.594,66.7l0-59.033A70.3,70.3,0,0,0,22.255,4.432h-.01A70.3,70.3,0,0,0,3.9,7.662V54.479h0V66.7a70.312,70.312,0,0,0,18.343,3.231Z" fill="#00264e"/>
    <path id="Path_185" data-name="Path 185" d="M41.441,10.06C39.017,9.329,30.794,6.866,24,6.859h-.03c-6.8.007-15.022,2.47-17.444,3.2v11.69l17.459-.023,17.46.023Z" transform="translate(-1.673 -1.571)" fill="#f36a10"/>
    <path id="Path_186" data-name="Path 186" d="M15.218,28.29l-7.99-1.1,6.8,2.03Z" transform="translate(-2.024 -11.688)" fill="#fff"/>
    <path id="Path_187" data-name="Path 187" d="M61.207,28.205l7.03-1.015-6.1,1.826Z" transform="translate(-28.883 -11.688)" fill="#fff"/>
    <path id="Path_188" data-name="Path 188" d="M13.107,31.741l-5.88.194,4.589.567Z" transform="translate(-2.024 -13.952)" fill="#fff"/>
    <path id="Path_189" data-name="Path 189" d="M40.939,12.445l-9.532,2.6L39.65,9.708,30.731,14.03,36.42,8.663c-.242-.059-.487-.118-.74-.177l-6.01,4.529,3.636-5.05q-.383-.078-.774-.153l-4.156,4.142,1.868-4.542q-.391-.061-.784-.117l-2.673,4.127.661-4.374Q27.02,7,26.594,6.971L25.076,11.3l-.342-4.428c-.248-.007-.495-.01-.739-.01-.212,0-.425,0-.64.008l-.34,4.4L21.5,6.963q-.427.033-.858.076l.657,4.353L18.64,7.28q-.395.056-.788.117l1.862,4.526L15.646,7.78q-.43.082-.852.168l3.626,5.037L12.266,8.5c-.2.047-.392.093-.582.14L17.36,14l-8.9-4.291,8.227,5.3-9.532-2.6,8.3,3.61-8.832-.99,8.716,2.652H20.98v2.352h8.863V17.717h2.911l8.716-2.652-8.832.99Z" transform="translate(-1.723 -1.571)" fill="#fff"/>
    <path id="Path_190" data-name="Path 190" d="M63.474,31.741l5.88.194-4.589.567Z" transform="translate(-30.011 -13.952)" fill="#fff"/>
    <path id="Path_191" data-name="Path 191" d="M41.371,27.093a13.328,13.328,0,0,0-2.333-1.086c-5.96-2.394-12.067-7.671-12.067-7.671a19.541,19.541,0,0,1-5.316,2.826c.586,1.368,5.072,2.744,5.708,2.939s1.173,1.124,1.173,1.124c-3.323-.489-9.136-4.349-9.136-4.349C16.026,23.271,8.454,26.2,7.721,26.4a3.482,3.482,0,0,0-1.265.663c0,3.671,0,33.641,0,33.641h0v0h0v.048h0s0,10.476,0,12.372a64.04,64.04,0,0,0,17.426,3.2h0A64.472,64.472,0,0,0,41.37,73.117V60.753" transform="translate(-1.64 -7.283)" fill="#00264e"/>
    <path id="Path_192" data-name="Path 192" d="M28.015,65.439c-1.254-.173-1.917-2.731-2.053-3.682-.178-1.246-.625-5.124-.665-5.522a5.31,5.31,0,0,1,1.6-4.315c.835-.121,1.657-.433,2.564.653a1.228,1.228,0,0,1,.193.331,3.561,3.561,0,0,1-.859.689,2.011,2.011,0,0,0-2.381,1.731c.108.047,2.381.17,2.473-1.454a3.342,3.342,0,0,1,.87-.522,4.118,4.118,0,0,1-1.116,2.734c-1.575,0-1.667,1.611-1.7,1.868,2.2,0,1.923-1.538,1.979-1.721.255-.379.47-.684.649-.944a.473.473,0,0,1,.179.2,2.274,2.274,0,0,0-.288,1.444,3.317,3.317,0,0,0,1.05,1.558,2.914,2.914,0,0,0,.432-1.743,1.987,1.987,0,0,0-.984-1.361c-.063-.2-.117-.341-.156-.439a2.46,2.46,0,0,0-.5-3.6,1.511,1.511,0,0,1,1.23-.067.151.151,0,0,1,.038.055,1.459,1.459,0,0,0,.863,1.3c.26.054.867.086.947.134.13-1.531-.995-1.766-1.647-1.6a2.86,2.86,0,0,0-.464-.217l-.024-.026-.019.012a1.8,1.8,0,0,0-1.363.031,6.456,6.456,0,0,0-.528-.382c.326-.335.683-.724,1.041-1.127a5.4,5.4,0,0,1,4.01,2.219,2.717,2.717,0,0,1-.053,1.156,15.229,15.229,0,0,1-.673,2.147,1.442,1.442,0,0,0-.818.69c-.174.472.116,1.239.075,1.474.054-.257.636-.543.84-.707.433-.35.2-1.255.163-1.416.078-.135.257-.454.445-.818a4.017,4.017,0,0,0,.961,1.9,6.368,6.368,0,0,1-.716,1.326,1.969,1.969,0,0,0-1.235.693,2.4,2.4,0,0,0-.244,1.646,1.826,1.826,0,0,0,1.7-2.021c-.019-.19.043-.191.127-.306a3.639,3.639,0,0,0,.8-.892,5.112,5.112,0,0,0,.644.506.784.784,0,1,0,.153-.282l0,0a2.2,2.2,0,0,1-.677-.43,5.154,5.154,0,0,0,.451-2.388,4.176,4.176,0,0,0-.838-2.327,5.09,5.09,0,0,1,2.016.406A2.131,2.131,0,0,1,37.806,53.5a2.139,2.139,0,0,0-.736,2.91c.36-.26,1.037-.577,1.232-1.232a2.652,2.652,0,0,0-.249-1.636,2.763,2.763,0,0,0-1.508-1.893c.161-.006.367.057.482.06a2.162,2.162,0,0,0,3.208-.164c-1.778-1.843-3.031-.3-3.286-.12-.22.152-1.048-.135-1.169-.171a4.915,4.915,0,0,1-.5-.108,1.089,1.089,0,0,1,.341-.254,1.927,1.927,0,0,0,1.795-2.161,6.58,6.58,0,0,1-.969.438,1.571,1.571,0,0,0-.976,1.552,1.538,1.538,0,0,1-.417.364c-.5-.143-1.032-.336-1.4-.476a11.7,11.7,0,0,0-3.212-2.4h0c.441-.524.814-.981,1.03-1.256.123-.156.241-.32.356-.488a1.175,1.175,0,0,1,.475-.335,2.63,2.63,0,0,1,.57.4,2.2,2.2,0,0,1,.475.989.876.876,0,1,0,.325-.177,4.066,4.066,0,0,0-.2-.549c-.132-.258-.376-.631-.479-.785a4.556,4.556,0,0,1,3.295.426c.37.215.692.437.867.558a1.382,1.382,0,0,0,.707,1.151,2.831,2.831,0,0,0,1.78.334c-.088-.309-.315-1.3-.743-1.554a1.984,1.984,0,0,0-1.569-.188c-.067,0-.38-.392-.872-.752.251-.27.921-.958.954-.961.16-.019,1.281.087,1.737-.428.35-.394.256-1.279.376-1.6a3.188,3.188,0,0,0-1.878.44,2.485,2.485,0,0,0-.424,1.448s-.219.188-.459.393c-.186.159-.355.257-.657.477a2.72,2.72,0,0,0-.807-.313,25.546,25.546,0,0,1-2.737-.28A6.938,6.938,0,0,0,33.2,42.7a2.217,2.217,0,0,1,.317-.485c.066-.085.134-.162.2-.242a.177.177,0,0,1,.081-.006c.148.033.241.061.241.061a4.037,4.037,0,0,0,.926,1.091,4.5,4.5,0,0,0,1.962.418,4.462,4.462,0,0,0-1.381-1.506,1.4,1.4,0,0,0-1.462-.155c-.057-.02-.144-.034-.238-.057A7.874,7.874,0,0,1,35.519,40.4a2.131,2.131,0,0,1,.717.36,1.26,1.26,0,0,0,1.03.867,5.346,5.346,0,0,0,1.666-.083,2.666,2.666,0,0,0-1.468-1.114,2.291,2.291,0,0,0-1.1.1s-.376-.172-.591-.273l-.014-.008a7.53,7.53,0,0,1,1.091-.526.806.806,0,1,0-.141-.455.794.794,0,0,0,.04.238,8.49,8.49,0,0,0-3.192,1.762c-.143.129-.3.256-.413.346-.011-.074-.02-.148-.033-.222A11.416,11.416,0,0,0,32.06,38.58a1.554,1.554,0,0,1,.084-.339,4.434,4.434,0,0,1,.633-.812.857.857,0,0,1,.19,0c.283.038.709.152.709.152a2.492,2.492,0,0,0,1.511.63,3.156,3.156,0,0,0,1.687-.571,3.782,3.782,0,0,0-1.971-.693,1.5,1.5,0,0,0-1.178.364A3.778,3.778,0,0,1,33,37.182a10.578,10.578,0,0,1,.878-.866,2.9,2.9,0,0,0,1.447-.4,2.68,2.68,0,0,0,.551-1.882,3.348,3.348,0,0,0-1.677.586c-.41.323-.416,1.28-.464,1.459a6.057,6.057,0,0,1-.967.906c-.12-.147-.079-.509-.079-.679a2,2,0,0,0,.611-1.258,4.051,4.051,0,0,0-.587-1.715c-1.32,1.76-.345,2.807-.226,2.949a6.323,6.323,0,0,0,.008.927c-.279.227-.519.413-.6.466a.387.387,0,0,1-.3.038,6.3,6.3,0,0,1-.926-2.53,1.583,1.583,0,0,0,.092-1.748,8.422,8.422,0,0,0-.969-.932,6.079,6.079,0,0,1-.242.884,1.448,1.448,0,0,0,.745,1.908s.007.141.035.322a5.621,5.621,0,0,0,.138.618.515.515,0,0,1-.234-.09,2.132,2.132,0,0,0-3.11-.071,7.217,7.217,0,0,1,1.046.54,1.741,1.741,0,0,0,2.017-.22.6.6,0,0,1,.329.007c.48,1.582,1.558,3.32,1.725,3.962a5.949,5.949,0,0,1,.165,2.624,28.537,28.537,0,0,0-2.75-1.613l-.308-.226a1.543,1.543,0,0,1,.136-.615,2.206,2.206,0,0,0,.162-3.214,7.565,7.565,0,0,1-.588,1.066,1.8,1.8,0,0,0,.171,2.094.841.841,0,0,1-.079.521,14.748,14.748,0,0,1-2.944-2.636,2.408,2.408,0,0,1-.03-.65,1.451,1.451,0,0,0-.824-1.342,4.3,4.3,0,0,1-.863-.579c-.229,2.217.721,2.316,1.04,2.473a1.436,1.436,0,0,1,.422.275,19.154,19.154,0,0,0,3.372,3.415c1.979,1.306,2.531,2.141,2.683,2.471a6.759,6.759,0,0,1-.778,1.333,5.658,5.658,0,0,0-1.986-2.351,1.69,1.69,0,0,0-2.177-1.369,1.878,1.878,0,0,0,1.948,1.58,6.987,6.987,0,0,1,1.1,1.158.3.3,0,0,1-.344.029,1.508,1.508,0,0,0-1.748-.176,6.281,6.281,0,0,1-.9.474,1.846,1.846,0,0,0,2.691-.083.954.954,0,0,1,.39-.118,2.217,2.217,0,0,1,.306.623,3.887,3.887,0,0,1-.014,1.108,16.08,16.08,0,0,1-2.4,2.043l-.023-.028c-.925-2.326-1.481-3.45-2.559-4.4a13.379,13.379,0,0,0,.3-1.8,4.83,4.83,0,0,0-.781-2.845c-.5-.828-2.16-2.033-3.016-3.254a.26.26,0,0,1,.085-.2c.1-.073.7-.464.794-.512a4.23,4.23,0,0,0,.465-.33,3.21,3.21,0,0,1,.844-.4.778.778,0,1,0-.265-.582.79.79,0,0,0,.029.2,3.6,3.6,0,0,1-.779.668c-.061.024-.321.155-.559.244a3.08,3.08,0,0,1-.967.284,1.765,1.765,0,0,1-.166-.76,1.126,1.126,0,0,1,.641-1.008c.122.031,1.294.019,1.6-.4s.483-1.1.734-1.209a2.378,2.378,0,0,0-1.863.348,1.465,1.465,0,0,0-.58,1.075,1.7,1.7,0,0,0-.928,1.184,3.037,3.037,0,0,0,.12.82c-1.464-.482-1.961-1.2-1.862-1.371,1.094-1.843-.537-2.443-.543-2.493a1.555,1.555,0,0,0,.223,2.594c.249,1.281,2.05,1.74,2.383,1.919.023.012.04.024.06.036a10.446,10.446,0,0,0,2.268,2.721A3.621,3.621,0,0,1,24.68,41.2a.342.342,0,0,1-.1-.021,6.3,6.3,0,0,1-.559-.311s-.585-1.644-2.643-.906c.053.1.856,1.291,1.777,1.247.224,0,.647-.178.85-.1a3.4,3.4,0,0,1,.7.309,5.545,5.545,0,0,1-.28,2.007l-.1-.065c-2.52-1.389-4.863-2.68-6.327-3.7l0-.006a4.936,4.936,0,0,1-.468-.888c-.014-.126,0-.222.123-.258a1.9,1.9,0,0,1,.7.024c0,.01,0,.02,0,.029a.82.82,0,1,0-.018-.248c-.186,0-.559.006-.755,0a.353.353,0,0,1-.2-.068,1.165,1.165,0,0,1,.071-.688,1.631,1.631,0,0,0,1.321-.411,1.947,1.947,0,0,0,.606-1.286,1.874,1.874,0,0,0-2.1,1.569,2.5,2.5,0,0,0,.077,1.751,4.6,4.6,0,0,1-.642-.605,4.072,4.072,0,0,1-.879-1.932,9.583,9.583,0,0,0,.549-.853c.556-1.088-.814-2.009-.814-2.009a2.044,2.044,0,0,0-.8,1.208c-.229.8.558,1.392.656,1.678a4.221,4.221,0,0,0,.233,1.075.364.364,0,0,1-.255-.11c-.049-.135-.647-1.674-2.87-.99.159.061.321.506.5.811s.717.873,2.243.471a1.513,1.513,0,0,1,.47.064,4.385,4.385,0,0,0,.739,1.131A10.994,10.994,0,0,0,17.9,40.361c-.006.009-.011.017-.017.025a3.02,3.02,0,0,0-.935,2.375.8.8,0,1,0,.208,0,4.807,4.807,0,0,1,.822-1.53,1,1,0,0,1,.657-.332A38.115,38.115,0,0,0,21.876,42.9a1.191,1.191,0,0,1-.559.254,1.508,1.508,0,0,0-1.887.542,11.623,11.623,0,0,1-.74.966c2.434.569,2.755-1.063,2.831-1.181a1.726,1.726,0,0,1,.562-.467c.445.243.884.474,1.305.684a3.534,3.534,0,0,1,.741.508l-.008.02a17.425,17.425,0,0,0-1.19,3.372,8.814,8.814,0,0,1-.353,1.218,1.2,1.2,0,0,1-1.369.743A5.421,5.421,0,0,1,18.5,48.222c-.06-.064-.127-.133-.2-.2a6.209,6.209,0,0,0,1.08-.485.63.63,0,0,1,.4.11,1.307,1.307,0,0,0,1.313.776,5.382,5.382,0,0,1,.883-.045,1.6,1.6,0,0,0-2.151-.915c-.172.025-.235-.034-.235-.034l-.056.019c.091-.058.183-.119.272-.186a1.575,1.575,0,0,0,1.111-.548c.262-.448.193-.848.47-1.032-.332,0-1.741.06-1.726,1.394a3.924,3.924,0,0,1-1.779.541,29.369,29.369,0,0,1-2.324-2.263,23.031,23.031,0,0,1-1.382-2c-.052-.182-.117-.409-.174-.615-.12-.427-.4-1.621.121-2.17a1.636,1.636,0,0,0,1.387.009,1.956,1.956,0,0,0,.971-1.043,1.879,1.879,0,0,0-2.487.858,1.885,1.885,0,0,0-.614,1.541,16.178,16.178,0,0,1-1.125-2.778.89.89,0,1,0-.406.1c.014,0,.026,0,.039,0,.136.484.4,1.345.785,2.349a1.1,1.1,0,0,1-.211-.171,1.785,1.785,0,0,0-2.494-.756,6.107,6.107,0,0,1,.722.671,1.461,1.461,0,0,0,1.679.275.57.57,0,0,1,.376.166c.188.474.4.975.646,1.481a.242.242,0,0,1-.2.163,7.827,7.827,0,0,1-3.206.044,1.724,1.724,0,0,1-.1-.453,2.109,2.109,0,0,0-1.267-2.562,3.352,3.352,0,0,1,.027.647,1.641,1.641,0,0,0,.944,1.928,1.3,1.3,0,0,1,.229.391,3.084,3.084,0,0,1-.61-.274l-.318.1a5.35,5.35,0,0,0,1.193.53l.018.01,0,0a7.06,7.06,0,0,0,.719.188,1.116,1.116,0,0,1-.174.179,3.559,3.559,0,0,1-.457.292A1.756,1.756,0,0,0,7.745,45.9c.358.2,2.454.6,2.555-1.148a3.08,3.08,0,0,0,.772-.736,7.525,7.525,0,0,0,2.3.038,1.729,1.729,0,0,1,.585.291c.22.387.456.766.709,1.126a.777.777,0,0,0-.741.532.811.811,0,1,0,.2.109c.018-.092.146-.532.877-.18a47.7,47.7,0,0,0,3.377,4c-.344.227-.658.436-.941.639h0a6.386,6.386,0,0,0-5.893-1l.012-.012a.952.952,0,0,1,.014-.346c.043-.117.637-.595.637-1.144a3.073,3.073,0,0,0-.434-1.563,5.978,5.978,0,0,1-.347.563,1.434,1.434,0,0,0-.029,2.114,1.108,1.108,0,0,1-.027.436c-.231.068-.412.13-.537.171a1.646,1.646,0,0,1-.287-.423A2.1,2.1,0,0,0,8.1,47.53a7.119,7.119,0,0,1,.528,1.029,1.714,1.714,0,0,0,1.741.977.642.642,0,0,1,.325.293.161.161,0,0,1-.04.008,2.852,2.852,0,0,0-1.495.114c-.787.238-.978,1.588-1,1.992a6.294,6.294,0,0,1,1.63-.274c.623-.092.879-1.576.971-1.649a5.968,5.968,0,0,1,5.912,1.153h0a3.391,3.391,0,0,0-1.139,2.648,1.67,1.67,0,0,1-.355.439,1.668,1.668,0,0,0-.476-.847,4.331,4.331,0,0,0-.744-.459s.269-1.5-1.566-1.8c-.151-.018-.151-.018-.178.129A1.587,1.587,0,0,0,13.783,53.1c.091.076,1.029.694.873,1.547a3.746,3.746,0,0,1-2.433.607,3.893,3.893,0,0,1-.951-.858,1.482,1.482,0,0,0-.991-1.621c-.351-.119-.92-.354-.92-.354-.025,2.234,1.644,2.194,1.644,2.194s.458.394.689.563-.356.089-.542.1C9.7,54.39,8.916,56.116,8.667,56.4c.328,0,1,.16,1.525.16s1.015-.773,1.04-.9c.046-.227.627-.214.8-.2a3.534,3.534,0,0,0,1.269.148l-.012.006a1.054,1.054,0,0,1-.619.795.861.861,0,1,0,.638.5.838.838,0,0,0-.129-.2,2.136,2.136,0,0,1,.441-1.134,5.407,5.407,0,0,0,1.914-.725c.236-.115-.148,1.867-.245,2.156-1.715.694-.9,2.3-.794,2.635.106-.4.951-.73,1.19-1.28a1.67,1.67,0,0,0-.076-1.284,6.287,6.287,0,0,0,.335-1.275,6.011,6.011,0,0,0,1.547,1.976c.385,1.428,2.161.971,2.528.843-.385-.311-.238-.512-.915-.9a2.111,2.111,0,0,0-1.466-.165,7.872,7.872,0,0,1-.713-.994c.229.008.658.025.822.041.132.138,1.589,1.221,3.063-.527a4.492,4.492,0,0,1-.715-.235,1.7,1.7,0,0,0-2.277.5,5.909,5.909,0,0,1-1.129-.22,3.9,3.9,0,0,1-.443-2.092,1.151,1.151,0,0,0,1.35.328.881.881,0,1,0-.1-.274,1.287,1.287,0,0,1-1.173-.522,3.248,3.248,0,0,1,1.326-1.852,3.632,3.632,0,0,1,2.486-.117l0,0c.255.221.51.433.766.633a3.25,3.25,0,0,1,.977,2.72c-.074,1.649-.018,3.659-.039,4.826s.068,5.149-2.378,5.643A121.349,121.349,0,0,0,6.522,67.812s10.839-1.081,17.3-1.081c7.134,0,17.549,1.081,17.549,1.081A109.483,109.483,0,0,0,28.015,65.439Zm6.414-9.648A5.091,5.091,0,0,1,33.894,53c.014-.04.025-.079.035-.115.028-.1.061-.205.093-.315a4.056,4.056,0,0,1,.62,1.585A4.156,4.156,0,0,1,34.429,55.792Zm-9.443-7.386a24.223,24.223,0,0,1,.242-2.9,13.206,13.206,0,0,1,1.519,3.347c.121.448-.5.9-.509.906-.438.151-.85.189-1.04-.049A2.365,2.365,0,0,1,24.986,48.405Z" transform="translate(-1.673 -14.034)" fill="#fff"/>
    <path id="Path_193" data-name="Path 193" d="M28.924,60.553a.844.844,0,0,1,.012-.3c.038-.1.56-.524.56-1.006a2.7,2.7,0,0,0-.382-1.375,5.182,5.182,0,0,1-.3.5,1.262,1.262,0,0,0-.026,1.86.893.893,0,0,1-.038.433C28.681,60.8,28.924,60.553,28.924,60.553Z" transform="translate(-12.553 -26.952)" fill="#fff"/>
    <path id="Path_194" data-name="Path 194" d="M21.371,113.174a14.986,14.986,0,0,1-.612,1.732,9.6,9.6,0,0,1-2.019.278c-2.842,0-4.1-1.848-4.1-3.658,0-2.264,1.725-3.807,4.3-3.807a11.546,11.546,0,0,1,2.078.26c.051.509.128,1.269.209,1.776l-.405.077a1.892,1.892,0,0,0-1.108-1.468,2.859,2.859,0,0,0-1.026-.173c-1.671,0-2.527,1.334-2.527,3.091,0,2.05,1.056,3.414,2.658,3.414.993,0,1.586-.5,2.168-1.667Z" transform="translate(-5.71 -51.756)" fill="#fff"/>
    <path id="Path_195" data-name="Path 195" d="M34.023,109.637a1.793,1.793,0,0,0-1.821-1.483,1.143,1.143,0,0,0-1.293,1.112c0,.659.514,1.029,1.639,1.509,1.454.617,2.267,1.166,2.267,2.239,0,1.248-1.246,2.17-3.046,2.17a7.817,7.817,0,0,1-2.122-.349c-.087-.272-.286-1.277-.377-1.821l.472-.095a2.511,2.511,0,0,0,2.24,1.822c.846,0,1.36-.464,1.36-1.171s-.492-1.073-1.6-1.58c-1.361-.62-2.206-1.162-2.206-2.262s1.032-2.01,2.906-2.01a10.7,10.7,0,0,1,1.814.2c.052.4.13.928.234,1.629Z" transform="translate(-12.992 -51.756)" fill="#fff"/>
    <path id="Path_196" data-name="Path 196" d="M48.449,108.4c-.7.058-.909.255-.946.69-.025.3-.047.707-.047,1.562V112a3.6,3.6,0,0,1-.777,2.593,2.8,2.8,0,0,1-2.051.74,3.078,3.078,0,0,1-1.91-.549,2.737,2.737,0,0,1-.957-2.443v-2.79c0-1-.095-1.077-.946-1.154v-.372h3.22v.372c-.844.069-.939.15-.939,1.154v2.863c0,1.362.659,2.2,1.885,2.2,1.4,0,1.941-.968,1.941-2.678V110.65c0-.847-.033-1.251-.055-1.569-.04-.5-.329-.639-1.113-.682v-.372h2.7Z" transform="translate(-18.736 -51.909)" fill="#fff"/>
    <path id="Path_197" data-name="Path 197" d="M62.13,109.791a3,3,0,0,0-.434-.957c-.223-.288-.373-.347-.932-.347h-.948c-.355,0-.395.026-.395.38v2.447h1.242c.7,0,.775-.153.94-.923h.379v2.391h-.39c-.129-.755-.263-.939-.929-.939H59.422v1.8c0,.992.081,1.058,1.075,1.131v.372H57.14v-.372c.854-.073.954-.142.954-1.131v-4.154c0-.971-.1-1.044-.954-1.117V108h3.643c.961,0,1.449-.011,1.628-.022.011.26.062,1.144.117,1.75Z" transform="translate(-26.859 -51.887)" fill="#fff"/>
  </g>
</svg>
