<svg id="csuf-logo-reversed" xmlns="http://www.w3.org/2000/svg" width="289.999" height="66.672" viewBox="0 0 289.999 66.672">
  <path id="Path_349" data-name="Path 349" d="M83.442,47.758c2.551,0,4.784-.04,5.621-.12,0,.878,0,3.867.08,5.741-.16.32-.878.4-1.276.159-.4-2.312-1.037-3.468-2.551-3.867a12.762,12.762,0,0,0-3.349-.319H79.934c-1.674,0-1.674.079-1.674,2.313V58.8c0,1,.04,1.076.956,1.076h2.353c3.468,0,4.066-.08,4.465-1.755l.32-1.354a.907.907,0,0,1,1.2.04c-.04,1.036-.119,2.512-.119,3.986s.079,2.911.119,4.147a.909.909,0,0,1-1.2.04l-.32-1.555c-.358-1.675-1-1.754-4.465-1.754H79.216c-.916,0-.956.079-.956,1.075v5.582c0,4.225.358,4.266,2.232,4.505l1.675.2c.279.279.239,1-.079,1.156-2.551-.079-4.345-.12-6.1-.12s-3.548.041-5.382.12c-.32-.16-.359-.878-.08-1.156l.878-.119c1.873-.239,2.232-.359,2.232-4.585V53.5c0-4.226-.358-4.346-2.232-4.623l-.518-.08c-.279-.279-.239-1,.079-1.156,1.395.08,3.189.12,4.943.12Z" transform="translate(-12.109 -8.201)" fill="#fff"/>
  <path id="Path_350" data-name="Path 350" d="M99.537,53.5c0-4.226-.359-4.306-2.233-4.624l-.678-.119a.8.8,0,0,1,.08-1.117c1.594.08,3.388.118,5.143.118,1.794,0,3.588-.038,5.342-.118a.8.8,0,0,1,.079,1.117l-.877.119c-1.873.239-2.233.4-2.233,4.624v9.129c0,5.5,1.674,10.126,7.215,10.126,5.223,0,7.375-3.947,7.375-10.007V57.763c0-2.989-.04-6.7-.757-7.853A2.556,2.556,0,0,0,116,48.874l-.8-.119c-.358-.28-.319-1,.08-1.117,1.355.08,2.87.118,4.425.118,1.675,0,2.751-.038,4.226-.118a.771.771,0,0,1,.079,1.117l-.877.2c-.757.16-1.475.319-1.754.957-.559,1.2-.559,4.7-.559,7.853v4.745c0,3.628-.557,6.976-2.631,9.209a10.461,10.461,0,0,1-7.813,2.989c-3.748,0-6.379-.8-8.213-2.551-1.794-1.714-2.631-4.5-2.631-8.531Z" transform="translate(-16.603 -8.201)" fill="#fff"/>
  <path id="Path_351" data-name="Path 351" d="M140.648,67.492c0,1.993.079,3.429.677,4.106.478.558,1.117.878,4.306.878,4.425,0,5.063-.2,6.9-4.306a1.066,1.066,0,0,1,1.236.239,37.814,37.814,0,0,1-1.675,5.781c-1.675-.079-5.1-.12-9.568-.12h-4.146c-2.033,0-4.027.041-5.7.12-.32-.16-.439-.956-.079-1.156l1.2-.2c1.873-.32,2.233-.358,2.233-4.505V53.5c0-4.147-.359-4.266-2.233-4.546l-1.116-.159c-.28-.2-.28-1,.079-1.156,1.993.079,3.787.118,5.621.118,1.754,0,3.548-.039,5.3-.118a.786.786,0,0,1,.079,1.156l-.877.159c-1.873.319-2.233.4-2.233,4.546Z" transform="translate(-22.79 -8.201)" fill="#fff"/>
  <path id="Path_352" data-name="Path 352" d="M168.1,67.492c0,1.993.08,3.429.678,4.106.478.558,1.117.878,4.306.878,4.425,0,5.063-.2,6.9-4.306a1.065,1.065,0,0,1,1.235.239,37.628,37.628,0,0,1-1.675,5.781c-1.674-.079-5.1-.12-9.567-.12h-4.146c-2.033,0-4.027.041-5.7.12-.32-.16-.438-.956-.08-1.156l1.2-.2c1.873-.32,2.232-.358,2.232-4.505V53.5c0-4.147-.359-4.266-2.232-4.546l-1.117-.159c-.279-.2-.279-1,.08-1.156,1.993.079,3.787.118,5.621.118,1.753,0,3.547-.039,5.3-.118a.786.786,0,0,1,.08,1.156l-.878.159c-1.873.319-2.233.4-2.233,4.546Z" transform="translate(-27.516 -8.201)" fill="#fff"/>
  <path id="Path_353" data-name="Path 353" d="M190.873,53.5c0-4.226-.359-4.385-2.232-4.624l-.638-.08c-.28-.279-.239-1,.079-1.156,1.515.08,3.389.12,5.143.12h7.614c2.551,0,4.864-.04,5.383-.12.159.677.4,3.827.637,5.541-.16.32-.957.4-1.276.161-.637-2.313-1.236-3.27-2.512-3.628a13.464,13.464,0,0,0-3.189-.359h-2.671c-1.714,0-1.714.08-1.714,2.353v6.738c0,1.036.041,1.075.957,1.075h1.914c3.468,0,4.066-.039,4.425-1.754l.279-1.354c.319-.279,1.076-.279,1.276.04-.039,1.076-.119,2.512-.119,3.986,0,1.515.08,2.911.119,4.186a1.134,1.134,0,0,1-1.276.039l-.279-1.594c-.279-1.675-.957-1.754-4.425-1.754h-1.914c-.916,0-.957.079-.957,1.076v5.063c0,2.033.08,3.469.678,4.146.478.558,1.156.837,4.505.878,5.063.04,5.941-1.077,7.336-4.306a.945.945,0,0,1,1.276.239,25.545,25.545,0,0,1-1.675,5.78c-1.754-.079-5.182-.119-9.847-.119h-4.544c-1.754,0-4.186.041-5.98.119-.32-.159-.358-.877-.08-1.156l1.476-.16c1.873-.2,2.232-.319,2.232-4.545Z" transform="translate(-32.19 -8.201)" fill="#fff"/>
  <path id="Path_354" data-name="Path 354" d="M219.4,53.738c0-3.827-.04-4.306-1.913-4.5l-1.036-.119A.807.807,0,0,1,216.493,48c2.512-.238,5.9-.358,9.17-.358,3.109,0,5.821.4,7.575,1.356a6.256,6.256,0,0,1,3.508,5.82c0,3.668-2.83,5.5-4.783,6.3-.239.119-.16.438,0,.677,3.19,5.382,5.182,8.771,7.056,10.326a5.108,5.108,0,0,0,2.752,1.236.726.726,0,0,1,.079.8,10.816,10.816,0,0,1-2.63.239c-3.827,0-5.9-1.555-8.333-5.263-1.076-1.674-2.192-3.867-3.149-5.421a2.233,2.233,0,0,0-2.472-1.356c-1.2,0-1.236.041-1.236.877v5.1c0,4.226.359,4.345,2.233,4.585l.878.119c.279.279.239,1-.08,1.156-1.754-.079-3.548-.12-5.3-.12s-3.548.041-5.383.12a.782.782,0,0,1-.079-1.156l.878-.119c1.873-.24,2.232-.359,2.232-4.585Zm4.624,5.741c0,1.276,0,1.355,1.914,1.355,3.907,0,5.7-1.914,5.7-5.7,0-3.15-2.033-5.9-5.5-5.9-2.073,0-2.113.119-2.113,1.953Z" transform="translate(-37.199 -8.201)" fill="#fff"/>
  <path id="Path_355" data-name="Path 355" d="M255.462,50.883c0-1.674-.04-1.754-1.076-1.754h-2.233c-3.667,0-4.744.439-6.219,3.668a1,1,0,0,1-1.276-.279c.678-2.153,1.276-4.625,1.555-6.021a.5.5,0,0,1,.438-.158.462.462,0,0,1,.4.158c.2,1,.757,1.037,3.469,1.037h16.265c1.953,0,2.551-.119,3.03-1.037a1.131,1.131,0,0,1,.479-.158.629.629,0,0,1,.518.2,28.1,28.1,0,0,0-.6,6.339.954.954,0,0,1-1.236.12c-.518-3.11-1.276-3.868-5.541-3.868h-2.272c-1.036,0-1.076.08-1.076,1.754V68.105c0,4.225.358,4.345,2.232,4.545l1.435.159c.279.279.239,1-.079,1.156-2.312-.079-4.106-.12-5.86-.12s-3.628.041-6.18.12a.86.86,0,0,1-.079-1.156l1.675-.2c1.873-.239,2.232-.28,2.232-4.505Z" transform="translate(-42.12 -7.978)" fill="#fff"/>
  <path id="Path_356" data-name="Path 356" d="M305.775,60.887c0,7.853-5.98,13.713-14.033,13.713-9.009,0-14.193-6.338-14.193-13.435,0-8.133,5.9-14.152,14.272-14.152,9.209,0,13.953,6.618,13.953,13.874m-22.8-.878c0,5.5,2.352,13,9.168,13,4.545,0,8.213-3.389,8.213-11.4,0-6.02-2.71-13-9.05-13-3.986,0-8.331,2.91-8.331,11.4" transform="translate(-47.783 -8.094)" fill="#fff"/>
  <path id="Path_357" data-name="Path 357" d="M339.24,67.293c0,1.2,0,6.1.12,7.016a1.514,1.514,0,0,1-1.356.558c-.638-.836-1.794-2.192-4.664-5.46l-9.329-10.645c-2.551-2.95-3.867-4.424-4.545-5.023-.119,0-.119.438-.119,2.551v7.774c0,2.989.04,6.657.718,7.853a2.507,2.507,0,0,0,2.033,1l.878.119c.358.279.318,1.036-.08,1.156-1.475-.079-3.03-.12-4.545-.12-1.675,0-2.751.041-4.146.12a.818.818,0,0,1-.08-1.156l.878-.2c.757-.16,1.475-.28,1.754-.917.518-1.235.518-4.7.518-7.853V54.615c0-3.109.04-3.748-1.315-4.9a6.427,6.427,0,0,0-2.113-.8l-.6-.12c-.279-.239-.239-1.036.16-1.156,1.514.159,3.707.118,4.7.118.837,0,1.795-.039,2.751-.118.677,1.714,5.022,6.737,6.418,8.252l3.987,4.306c1.675,1.834,5.382,6.06,5.781,6.3.119-.119.119-.32.119-.957V57.764c0-2.989-.041-6.657-.757-7.853a2.424,2.424,0,0,0-1.993-1l-.917-.12c-.358-.279-.318-1.036.08-1.156,1.555.079,3.029.118,4.585.118,1.714,0,2.75-.039,4.186-.118a.817.817,0,0,1,.08,1.156l-.917.2c-.757.159-1.435.278-1.714.917-.558,1.235-.558,4.7-.558,7.853Z" transform="translate(-53.897 -8.201)" fill="#fff"/>
  <path id="Path_358" data-name="Path 358" d="M80.493,28.179a.373.373,0,0,1-.465.029A2.669,2.669,0,0,0,77.2,26.084c-1.848,0-3.71,1.31-3.71,4.292,0,3.1,1.935,4.614,3.812,4.614a3.174,3.174,0,0,0,3.041-2.169.293.293,0,0,1,.437.059,5.654,5.654,0,0,1-.7,2.212,5.079,5.079,0,0,0-.509.131,8.677,8.677,0,0,1-2.271.349A6.629,6.629,0,0,1,73.58,34.6a4.585,4.585,0,0,1-2.066-4,4.749,4.749,0,0,1,1.834-3.856A6.742,6.742,0,0,1,77.364,25.5a11.223,11.223,0,0,1,2.517.32c.175.044.276.059.407.088.029.334.058,1.193.2,2.27" transform="translate(-12.312 -4.391)" fill="#fff"/>
  <path id="Path_359" data-name="Path 359" d="M86.349,31.774c-.378,0-.364,0-.5.393l-.6,1.746c-.291.858-.233.887.305.975l.422.073c.1.1.088.363-.029.421-.465-.029-.946-.029-1.542-.043-.48,0-.931.014-1.44.043a.324.324,0,0,1-.015-.421l.436-.073c.422-.073.582-.19.8-.67.175-.378.407-.989.713-1.775L86.9,27.263a2.528,2.528,0,0,0,.276-1.062,2.544,2.544,0,0,0,1.018-.7.292.292,0,0,1,.248.116c.233.655.422,1.339.655,1.994l2.1,6.1c.334.975.407,1.062,1.15,1.208l.218.044a.313.313,0,0,1,.015.421c-.6-.029-1.135-.043-1.892-.043-.626,0-1.266.029-1.776.043a.331.331,0,0,1-.043-.421l.32-.044c.524-.073.6-.16.378-.772l-.684-1.979c-.131-.393-.189-.393-.6-.393Zm1.746-.655c.407,0,.465-.029.349-.378l-.611-1.746a8.961,8.961,0,0,0-.408-1.15H87.4c-.058.1-.189.465-.436,1.15l-.611,1.7c-.146.422-.117.422.233.422Z" transform="translate(-14.271 -4.391)" fill="#fff"/>
  <path id="Path_360" data-name="Path 360" d="M98.376,32.977a2.557,2.557,0,0,0,.248,1.5c.175.2.407.32,1.571.32,1.615,0,1.849-.073,2.517-1.571a.39.39,0,0,1,.451.087,13.657,13.657,0,0,1-.611,2.11c-.611-.029-1.863-.044-3.493-.044H97.547c-.742,0-1.469.015-2.081.044-.116-.058-.16-.349-.029-.422l.437-.073c.684-.116.815-.131.815-1.644V27.869c0-1.513-.131-1.557-.815-1.659l-.408-.058c-.1-.073-.1-.364.03-.422.727.029,1.382.044,2.051.044.64,0,1.295-.015,1.935-.044a.287.287,0,0,1,.029.422l-.32.058c-.684.117-.815.146-.815,1.659Z" transform="translate(-16.416 -4.43)" fill="#fff"/>
  <path id="Path_361" data-name="Path 361" d="M108.684,33.282c0,1.542.131,1.586.815,1.673l.32.044c.1.1.088.364-.029.422-.641-.029-1.3-.044-1.935-.044s-1.325.015-1.964.044c-.117-.058-.131-.32-.029-.422l.32-.044c.684-.087.815-.131.815-1.673V27.869c0-1.542-.131-1.586-.815-1.674l-.32-.043c-.1-.1-.088-.364.029-.422q.96.043,1.964.044c.64,0,1.295-.015,1.935-.044.117.058.131.32.029.422l-.32.043c-.684.088-.815.132-.815,1.674Z" transform="translate(-18.213 -4.43)" fill="#fff"/>
  <path id="Path_362" data-name="Path 362" d="M117.237,25.774c.931,0,1.746-.015,2.052-.044,0,.32,0,1.411.029,2.1-.059.116-.32.145-.466.058-.146-.844-.378-1.266-.931-1.411a4.651,4.651,0,0,0-1.222-.117h-.743c-.611,0-.611.029-.611.844v2.6c0,.364.014.393.349.393h.858c1.266,0,1.484-.029,1.63-.641l.116-.494a.333.333,0,0,1,.437.014c-.015.378-.044.917-.044,1.455s.029,1.062.044,1.513a.332.332,0,0,1-.437.015l-.116-.568c-.132-.611-.364-.64-1.63-.64H115.7c-.335,0-.349.029-.349.392v2.037c0,1.543.131,1.557.815,1.645l.612.073c.1.1.087.363-.03.421-.931-.029-1.586-.043-2.226-.043s-1.3.014-1.964.043c-.117-.058-.131-.32-.029-.421l.32-.044c.685-.088.815-.131.815-1.674V27.869c0-1.542-.131-1.586-.815-1.688l-.189-.029c-.1-.1-.088-.363.029-.422.509.029,1.164.044,1.8.044Z" transform="translate(-19.36 -4.43)" fill="#fff"/>
  <path id="Path_363" data-name="Path 363" d="M132.664,30.566a4.935,4.935,0,0,1-5.123,5.006,4.861,4.861,0,0,1-5.181-4.9,5.011,5.011,0,0,1,5.21-5.166,4.836,4.836,0,0,1,5.094,5.064m-8.324-.32c0,2.008.858,4.744,3.347,4.744,1.659,0,3-1.237,3-4.162,0-2.2-.989-4.744-3.3-4.744-1.455,0-3.041,1.062-3.041,4.162" transform="translate(-21.065 -4.391)" fill="#fff"/>
  <path id="Path_364" data-name="Path 364" d="M136.5,27.957c0-1.4-.015-1.572-.7-1.645l-.378-.043a.293.293,0,0,1,.015-.407c.916-.088,2.153-.132,3.347-.132a6.107,6.107,0,0,1,2.765.5,2.285,2.285,0,0,1,1.28,2.124,2.517,2.517,0,0,1-1.746,2.3c-.087.043-.058.16,0,.248a16.823,16.823,0,0,0,2.575,3.768,1.857,1.857,0,0,0,1,.451.265.265,0,0,1,.029.291,3.981,3.981,0,0,1-.96.087c-1.4,0-2.153-.567-3.042-1.921-.392-.611-.8-1.411-1.149-1.979a.815.815,0,0,0-.9-.494c-.436,0-.451.014-.451.32v1.863c0,1.543.131,1.586.815,1.674l.32.044c.1.1.088.363-.029.421-.641-.029-1.3-.043-1.936-.043s-1.295.014-1.964.043a.284.284,0,0,1-.029-.421l.32-.044c.684-.088.815-.131.815-1.674Zm1.688,2.1c0,.465,0,.5.7.5a1.826,1.826,0,0,0,2.08-2.081,2.011,2.011,0,0,0-2.008-2.154c-.757,0-.772.044-.772.714Z" transform="translate(-23.291 -4.43)" fill="#fff"/>
  <path id="Path_365" data-name="Path 365" d="M156.407,32.9c0,.436,0,2.226.044,2.561a.557.557,0,0,1-.5.2c-.233-.305-.655-.8-1.7-1.993l-3.4-3.886c-.931-1.077-1.411-1.615-1.659-1.834-.043,0-.043.161-.043.931v2.838a8.845,8.845,0,0,0,.262,2.867.912.912,0,0,0,.742.363l.32.044c.131.1.117.378-.029.422-.538-.029-1.106-.044-1.659-.044-.611,0-1,.015-1.513.044A.3.3,0,0,1,147.24,35l.32-.073c.277-.058.539-.1.641-.334a11.418,11.418,0,0,0,.189-2.867V28.276c0-1.135.015-1.368-.48-1.79a2.355,2.355,0,0,0-.771-.291l-.219-.043c-.1-.088-.087-.378.058-.422.553.058,1.354.044,1.718.044.305,0,.655-.015,1-.044a19.32,19.32,0,0,0,2.344,3.013l1.454,1.571c.612.67,1.964,2.212,2.11,2.3.044-.043.044-.116.044-.349V29.426a8.386,8.386,0,0,0-.277-2.867.885.885,0,0,0-.728-.364l-.334-.043c-.131-.1-.117-.378.029-.422.567.029,1.106.044,1.673.044.626,0,1-.015,1.528-.044a.3.3,0,0,1,.029.422l-.334.073c-.276.058-.524.1-.626.334a10.6,10.6,0,0,0-.2,2.867Z" transform="translate(-25.282 -4.43)" fill="#fff"/>
  <path id="Path_366" data-name="Path 366" d="M163.873,33.282c0,1.542.131,1.586.815,1.673l.32.044c.1.1.088.364-.029.422-.641-.029-1.3-.044-1.935-.044s-1.325.015-1.964.044c-.117-.058-.131-.32-.029-.422l.32-.044c.684-.087.815-.131.815-1.673V27.869c0-1.542-.131-1.586-.815-1.674l-.32-.043c-.1-.1-.088-.364.029-.422q.96.043,1.964.044c.64,0,1.295-.015,1.935-.044.117.058.131.32.029.422l-.32.043c-.684.088-.815.132-.815,1.674Z" transform="translate(-27.715 -4.43)" fill="#fff"/>
  <path id="Path_367" data-name="Path 367" d="M170.382,31.774c-.378,0-.364,0-.5.393l-.6,1.746c-.291.858-.233.887.305.975l.422.073c.1.1.088.363-.029.421-.466-.029-.946-.029-1.542-.043-.48,0-.931.014-1.441.043a.325.325,0,0,1-.014-.421l.436-.073c.422-.073.582-.19.8-.67.175-.378.407-.989.713-1.775l1.994-5.181a2.524,2.524,0,0,0,.276-1.062,2.542,2.542,0,0,0,1.019-.7.293.293,0,0,1,.248.116c.233.655.422,1.339.655,1.994l2.1,6.1c.334.975.407,1.062,1.15,1.208l.218.044a.312.312,0,0,1,.015.421c-.6-.029-1.135-.043-1.892-.043-.626,0-1.266.029-1.776.043a.331.331,0,0,1-.043-.421l.32-.044c.524-.073.6-.16.378-.772l-.684-1.979c-.131-.393-.189-.393-.6-.393Zm1.746-.655c.407,0,.465-.029.349-.378l-.611-1.746a8.963,8.963,0,0,0-.408-1.15h-.029c-.058.1-.189.465-.436,1.15l-.611,1.7c-.146.422-.117.422.233.422Z" transform="translate(-28.737 -4.391)" fill="#fff"/>
  <path id="Path_368" data-name="Path 368" d="M184.737,34.96a4.321,4.321,0,0,1-.436-2.212.323.323,0,0,1,.451-.058c.262.742,1.047,2.3,2.474,2.3a1.549,1.549,0,0,0,1.732-1.557,2.34,2.34,0,0,0-1.484-2.11l-.626-.349a3.361,3.361,0,0,1-2.052-2.809c0-1.44,1.077-2.663,3.2-2.663a9.684,9.684,0,0,1,1.993.305,6.107,6.107,0,0,1,.305,1.964.351.351,0,0,1-.466.044,2.066,2.066,0,0,0-1.964-1.732,1.482,1.482,0,0,0-1.644,1.528,2.162,2.162,0,0,0,1.383,1.776l.9.48a3.29,3.29,0,0,1,1.993,2.867c0,1.658-1.266,2.837-3.376,2.837a4.4,4.4,0,0,1-2.387-.611" transform="translate(-31.729 -4.391)" fill="#fff"/>
  <path id="Path_369" data-name="Path 369" d="M197.155,26.914c0-.611-.015-.64-.393-.64h-.815c-1.339,0-1.732.16-2.27,1.339a.366.366,0,0,1-.466-.1c.248-.786.466-1.688.568-2.2a.182.182,0,0,1,.16-.058.17.17,0,0,1,.146.058c.073.364.277.378,1.266.378h5.937c.714,0,.931-.043,1.106-.378a.415.415,0,0,1,.175-.058.23.23,0,0,1,.19.073,10.215,10.215,0,0,0-.219,2.314.348.348,0,0,1-.451.044c-.19-1.135-.466-1.411-2.022-1.411h-.829c-.378,0-.393.029-.393.64V33.2c0,1.542.131,1.586.815,1.659l.524.058c.1.1.088.363-.029.422-.844-.029-1.5-.044-2.139-.044s-1.324.015-2.255.044a.314.314,0,0,1-.03-.422l.612-.073c.684-.087.815-.1.815-1.644Z" transform="translate(-33.263 -4.348)" fill="#fff"/>
  <path id="Path_370" data-name="Path 370" d="M206.747,31.774c-.378,0-.364,0-.5.393l-.6,1.746c-.291.858-.233.887.305.975l.422.073c.1.1.088.363-.029.421-.465-.029-.946-.029-1.542-.043-.48,0-.931.014-1.44.043a.324.324,0,0,1-.015-.421l.436-.073c.422-.073.582-.19.8-.67.175-.378.407-.989.713-1.775l1.994-5.181a2.528,2.528,0,0,0,.276-1.062,2.544,2.544,0,0,0,1.018-.7.292.292,0,0,1,.248.116c.233.655.422,1.339.655,1.994l2.1,6.1c.334.975.407,1.062,1.15,1.208l.218.044a.312.312,0,0,1,.015.421c-.6-.029-1.135-.043-1.892-.043-.626,0-1.266.029-1.776.043a.331.331,0,0,1-.043-.421l.32-.044c.524-.073.6-.16.378-.772l-.684-1.979c-.131-.393-.189-.393-.6-.393Zm1.746-.655c.407,0,.465-.029.349-.378l-.611-1.746a8.962,8.962,0,0,0-.408-1.15h-.029c-.058.1-.189.465-.436,1.15l-.611,1.7c-.146.422-.117.422.233.422Z" transform="translate(-34.998 -4.391)" fill="#fff"/>
  <path id="Path_371" data-name="Path 371" d="M218.036,26.914c0-.611-.015-.64-.393-.64h-.815c-1.339,0-1.732.16-2.27,1.339a.366.366,0,0,1-.466-.1c.248-.786.466-1.688.568-2.2a.182.182,0,0,1,.16-.058.17.17,0,0,1,.146.058c.073.364.276.378,1.266.378h5.937c.714,0,.931-.043,1.106-.378a.415.415,0,0,1,.175-.058.23.23,0,0,1,.19.073,10.215,10.215,0,0,0-.219,2.314.348.348,0,0,1-.451.044c-.19-1.135-.465-1.411-2.022-1.411h-.829c-.378,0-.393.029-.393.64V33.2c0,1.542.131,1.586.815,1.659l.524.058c.1.1.088.363-.029.422-.844-.029-1.5-.044-2.139-.044s-1.324.015-2.255.044a.314.314,0,0,1-.03-.422l.612-.073c.684-.087.815-.1.815-1.644Z" transform="translate(-36.858 -4.348)" fill="#fff"/>
  <path id="Path_372" data-name="Path 372" d="M228.051,27.869c0-1.542-.131-1.6-.815-1.688L227,26.152c-.1-.1-.087-.364.03-.422.553.029,1.237.044,1.877.044h2.78c.931,0,1.775-.015,1.964-.044.058.248.145,1.4.233,2.022-.058.117-.349.146-.466.059-.233-.844-.451-1.194-.916-1.325a4.938,4.938,0,0,0-1.164-.131h-.975c-.626,0-.626.029-.626.858v2.46c0,.378.015.392.349.392h.7c1.266,0,1.484-.014,1.615-.64l.1-.5c.117-.1.393-.1.465.015-.014.392-.043.916-.043,1.455s.029,1.062.043,1.527c-.072.1-.349.1-.465.015l-.1-.582c-.1-.612-.349-.641-1.615-.641h-.7c-.334,0-.349.029-.349.393v1.848a2.581,2.581,0,0,0,.248,1.513c.175.2.422.306,1.644.32,1.849.015,2.168-.392,2.678-1.571a.344.344,0,0,1,.465.087,9.315,9.315,0,0,1-.611,2.11c-.641-.029-1.892-.044-3.594-.044H228.91c-.64,0-1.528.015-2.183.044-.116-.058-.131-.32-.029-.422l.539-.058c.684-.073.815-.117.815-1.659Z" transform="translate(-39.017 -4.43)" fill="#fff"/>
  <path id="Path_373" data-name="Path 373" d="M243.386,27.869c0-1.542-.131-1.571-.815-1.688l-.248-.044a.292.292,0,0,1,.029-.407c.582.029,1.237.044,1.878.044s1.31-.015,1.95-.044a.292.292,0,0,1,.029.407l-.32.044c-.684.087-.815.146-.815,1.688V31.2c0,2.008.611,3.7,2.634,3.7,1.906,0,2.692-1.44,2.692-3.652V29.426a8.342,8.342,0,0,0-.277-2.867.934.934,0,0,0-.728-.378l-.291-.044c-.131-.1-.116-.363.029-.407.5.029,1.048.044,1.616.044.611,0,1-.015,1.542-.044a.281.281,0,0,1,.029.407l-.32.073c-.277.058-.538.117-.64.349a10.544,10.544,0,0,0-.2,2.867v1.732a4.842,4.842,0,0,1-.96,3.361,3.819,3.819,0,0,1-2.853,1.092,4.119,4.119,0,0,1-3-.931,4.139,4.139,0,0,1-.96-3.114Z" transform="translate(-41.707 -4.43)" fill="#fff"/>
  <path id="Path_374" data-name="Path 374" d="M264.923,32.9c0,.436,0,2.226.044,2.561a.557.557,0,0,1-.5.2c-.233-.305-.655-.8-1.7-1.993l-3.4-3.886c-.931-1.077-1.411-1.615-1.659-1.834-.044,0-.044.161-.044.931v2.838a8.841,8.841,0,0,0,.262,2.867.913.913,0,0,0,.742.363l.32.044c.131.1.117.378-.029.422-.538-.029-1.106-.044-1.659-.044-.611,0-1,.015-1.513.044a.3.3,0,0,1-.029-.422l.32-.073c.277-.058.539-.1.641-.334a11.417,11.417,0,0,0,.189-2.867V28.276c0-1.135.015-1.368-.48-1.79a2.355,2.355,0,0,0-.771-.291l-.219-.043c-.1-.088-.087-.378.058-.422.553.058,1.354.044,1.718.044.305,0,.655-.015,1-.044a19.32,19.32,0,0,0,2.344,3.013l1.455,1.571c.612.67,1.964,2.212,2.11,2.3.044-.043.044-.116.044-.349V29.426a8.386,8.386,0,0,0-.277-2.867.885.885,0,0,0-.728-.364l-.334-.043c-.132-.1-.117-.378.029-.422.567.029,1.106.044,1.673.044.626,0,1-.015,1.528-.044a.3.3,0,0,1,.029.422l-.334.073c-.276.058-.524.1-.626.334a10.6,10.6,0,0,0-.2,2.867Z" transform="translate(-43.964 -4.43)" fill="#fff"/>
  <path id="Path_375" data-name="Path 375" d="M272.39,33.282c0,1.542.131,1.586.815,1.673l.32.044c.1.1.088.364-.029.422-.641-.029-1.295-.044-1.935-.044s-1.325.015-1.964.044c-.117-.058-.131-.32-.029-.422l.32-.044c.684-.087.815-.131.815-1.673V27.869c0-1.542-.131-1.586-.815-1.674l-.32-.043c-.1-.1-.088-.364.029-.422q.96.043,1.964.044c.641,0,1.295-.015,1.935-.044.117.058.131.32.029.422l-.32.043c-.684.088-.815.132-.815,1.674Z" transform="translate(-46.396 -4.43)" fill="#fff"/>
  <path id="Path_376" data-name="Path 376" d="M282,31.769c-.6,1.325-1.266,3.027-1.513,3.769a.361.361,0,0,1-.248.073.564.564,0,0,1-.276-.073,18.613,18.613,0,0,0-.67-1.907l-2.546-6.126c-.407-.975-.538-1.179-1.12-1.3l-.349-.073c-.1-.1-.1-.363.044-.407.567.029,1.193.044,1.761.044.655,0,1.149-.015,1.921-.044a.276.276,0,0,1,.014.422l-.363.087c-.32.073-.436.146-.436.262a10.965,10.965,0,0,0,.713,1.935l1.048,2.59c.262.655.655,1.513.8,1.848.786-1.834,1.659-3.842,2.431-5.821.233-.582.189-.7-.247-.8l-.422-.1a.312.312,0,0,1,.029-.422c.6.029,1.092.044,1.557.044.524,0,1-.015,1.411-.044.117.073.1.305.03.422l-.364.073a1.207,1.207,0,0,0-.9.6c-.407.7-.815,1.674-1.484,3.143Z" transform="translate(-47.379 -4.43)" fill="#fff"/>
  <path id="Path_377" data-name="Path 377" d="M289.621,27.869c0-1.542-.131-1.6-.815-1.688l-.233-.029c-.1-.1-.087-.364.03-.422.553.029,1.237.044,1.877.044h2.78c.931,0,1.775-.015,1.964-.044.058.248.145,1.4.233,2.022-.059.117-.349.146-.466.059-.233-.844-.451-1.194-.916-1.325a4.937,4.937,0,0,0-1.164-.131h-.975c-.626,0-.626.029-.626.858v2.46c0,.378.015.392.349.392h.7c1.266,0,1.484-.014,1.615-.64l.1-.5c.117-.1.392-.1.465.015-.014.392-.043.916-.043,1.455s.029,1.062.043,1.527a.415.415,0,0,1-.465.015l-.1-.582c-.1-.612-.349-.641-1.615-.641h-.7c-.334,0-.349.029-.349.393v1.848a2.58,2.58,0,0,0,.248,1.513c.175.2.422.306,1.644.32,1.849.015,2.168-.392,2.678-1.571a.344.344,0,0,1,.465.087,9.313,9.313,0,0,1-.611,2.11c-.641-.029-1.892-.044-3.594-.044H290.48c-.64,0-1.528.015-2.183.044-.116-.058-.131-.32-.029-.422l.539-.058c.684-.073.815-.117.815-1.659Z" transform="translate(-49.616 -4.43)" fill="#fff"/>
  <path id="Path_378" data-name="Path 378" d="M300.3,27.957c0-1.4-.015-1.572-.7-1.645l-.378-.043a.293.293,0,0,1,.015-.407c.916-.088,2.153-.132,3.347-.132a6.107,6.107,0,0,1,2.765.5,2.285,2.285,0,0,1,1.28,2.124,2.518,2.518,0,0,1-1.746,2.3c-.087.043-.058.16,0,.248a16.825,16.825,0,0,0,2.575,3.768,1.857,1.857,0,0,0,1,.451.265.265,0,0,1,.029.291,3.976,3.976,0,0,1-.96.087c-1.4,0-2.153-.567-3.042-1.921-.392-.611-.8-1.411-1.149-1.979a.815.815,0,0,0-.9-.494c-.436,0-.451.014-.451.32v1.863c0,1.543.131,1.586.815,1.674l.32.044c.1.1.088.363-.029.421-.641-.029-1.295-.043-1.935-.043s-1.295.014-1.964.043a.284.284,0,0,1-.029-.421l.32-.044c.684-.088.815-.131.815-1.674Zm1.688,2.1c0,.465,0,.5.7.5a1.826,1.826,0,0,0,2.08-2.081,2.011,2.011,0,0,0-2.008-2.154c-.757,0-.772.044-.772.714Z" transform="translate(-51.49 -4.43)" fill="#fff"/>
  <path id="Path_379" data-name="Path 379" d="M311.25,34.96a4.32,4.32,0,0,1-.436-2.212.323.323,0,0,1,.451-.058c.262.742,1.047,2.3,2.474,2.3a1.549,1.549,0,0,0,1.732-1.557,2.34,2.34,0,0,0-1.484-2.11l-.626-.349a3.361,3.361,0,0,1-2.052-2.809c0-1.44,1.077-2.663,3.2-2.663a9.684,9.684,0,0,1,1.993.305,6.108,6.108,0,0,1,.305,1.964.351.351,0,0,1-.466.044,2.066,2.066,0,0,0-1.964-1.732,1.482,1.482,0,0,0-1.644,1.528,2.162,2.162,0,0,0,1.382,1.776l.9.48a3.29,3.29,0,0,1,1.993,2.867c0,1.658-1.266,2.837-3.376,2.837a4.4,4.4,0,0,1-2.387-.611" transform="translate(-53.51 -4.391)" fill="#fff"/>
  <path id="Path_380" data-name="Path 380" d="M322.991,33.282c0,1.542.131,1.586.815,1.673l.32.044c.1.1.088.364-.029.422-.641-.029-1.295-.044-1.935-.044s-1.325.015-1.964.044c-.117-.058-.131-.32-.029-.422l.32-.044c.684-.087.815-.131.815-1.673V27.869c0-1.542-.131-1.586-.815-1.674l-.32-.043c-.1-.1-.088-.364.029-.422q.96.043,1.964.044c.641,0,1.295-.015,1.935-.044.117.058.131.32.029.422l-.32.043c-.684.088-.815.132-.815,1.674Z" transform="translate(-55.108 -4.43)" fill="#fff"/>
  <path id="Path_381" data-name="Path 381" d="M330.33,26.914c0-.611-.015-.64-.393-.64h-.815c-1.339,0-1.732.16-2.27,1.339a.366.366,0,0,1-.466-.1c.248-.786.466-1.688.568-2.2a.182.182,0,0,1,.16-.058.17.17,0,0,1,.146.058c.073.364.276.378,1.266.378h5.937c.713,0,.931-.043,1.106-.378a.415.415,0,0,1,.175-.058.23.23,0,0,1,.19.073,10.216,10.216,0,0,0-.219,2.314.348.348,0,0,1-.451.044c-.19-1.135-.466-1.411-2.022-1.411h-.829c-.378,0-.393.029-.393.64V33.2c0,1.542.131,1.586.815,1.659l.524.058c.1.1.088.363-.029.422-.844-.029-1.5-.044-2.139-.044s-1.324.015-2.255.044a.314.314,0,0,1-.03-.422l.612-.073c.684-.087.815-.1.815-1.644Z" transform="translate(-56.19 -4.348)" fill="#fff"/>
  <path id="Path_382" data-name="Path 382" d="M342.659,32.424a3.035,3.035,0,0,0-.465-1.8l-1.747-3.449c-.32-.626-.436-.786-1.091-.931l-.378-.087c-.088-.1-.059-.378.058-.422q.939.043,1.834.044c.64,0,1.528-.015,1.863-.044a.3.3,0,0,1,.029.422l-.436.073c-.233.043-.305.073-.305.189a2.088,2.088,0,0,0,.262.757c.568,1.252,1.106,2.431,1.688,3.493.6-1.106,1.135-2.124,1.7-3.216a3.246,3.246,0,0,0,.392-.974c0-.146-.131-.19-.334-.219l-.436-.1a.288.288,0,0,1,.043-.422c.641.029,1.092.044,1.528.044s.916-.015,1.382-.044a.3.3,0,0,1,.029.422l-.422.087c-.655.132-.829.393-1.586,1.674-.494.829-.931,1.63-1.383,2.445a3.2,3.2,0,0,0-.538,2.051v.873c0,1.542.131,1.586.844,1.659l.553.058c.1.1.087.364-.03.422-.9-.029-1.556-.044-2.2-.044-.669,0-1.324.015-2.11.044-.116-.058-.131-.32-.029-.422l.466-.058c.684-.087.815-.117.815-1.659Z" transform="translate(-58.35 -4.43)" fill="#fff"/>
  <path id="Path_383" data-name="Path 383" d="M1.935,17.246,1.985,6.26a75.964,75.964,0,0,1,23.21-4.1,65.915,65.915,0,0,1,22.2,4.1c0,.794,0,11.5,0,12.542-.652,0-45.458.123-45.458.123Z" transform="translate(-0.333 -0.373)" fill="#f36a10"/>
  <path id="Path_384" data-name="Path 384" d="M47.249,16.338l-13.86-.488,13.519-2.832-13.034,1.27L46.224,9.644,33.389,12.97,45.053,6.275,32.7,11.65,41.441,4.26l-.253-.05L31.73,10.379l6.138-6.915-.555-.084L30.657,9.451l4.237-6.5L34.266,2.8,29.482,8.718l2.734-6.14-.771-.118L28.019,8.327,29.675,2.35l-.831-.024L26.7,7.838l.647-5.581-.9-.065-1.26,5.6-.247-5.574h-.226l-.486-.046-.236,5.62L22.758,2.307l-.9.043.628,5.488L20.368,2.417l-.821.113,1.615,5.8L17.968,2.819l-.8.181L19.7,8.718,15.279,3.236l-.705.1,3.955,6.116L12.26,3.723l-.6.128,5.792,6.528L8.664,4.613l-.431.046,8.246,6.991L4.132,6.275,15.8,12.97,2.96,9.644l12.347,4.644L2.276,13.018,15.8,15.85l-13.861.488,22.923.094,0-.094Z" transform="translate(-0.333 -0.373)" fill="#fff"/>
  <path id="Path_385" data-name="Path 385" d="M47.415,18.5a23.692,23.692,0,0,0-3.253-1.558C36.444,13.834,28.53,6.99,28.53,6.99a22.98,22.98,0,0,1-6.424,3.5c.759,1.774,6.108,3.727,6.932,3.979s1.521,1.461,1.521,1.461c-4.308-.637-11.841-5.643-11.841-5.643-4.365,3.105-14.176,6.908-15.125,7.161a4,4,0,0,0-1.659.994c0,4.553.12,47.14.12,47.14H47.422Z" transform="translate(-0.333 -1.203)" fill="#002951"/>
  <path id="Path_386" data-name="Path 386" d="M28.881,64.837a.377.377,0,0,1-.094-.046,5.334,5.334,0,0,1-1.41-2.556c-.008-.174-.3-1.435-.323-1.838s-.2-2.261-.286-3.108-.351-3.669-.4-4.186c-.2-1.95.782-3.76,2.383-5.354.719.066,1.408-.22,2.517,1.388a2.623,2.623,0,0,1,.259.488,5.127,5.127,0,0,0-1.138-.118c-1.071-1.492-2.613.01-2.7.084.174-.065.947.414,1.479.6s1.182-.375,1.259-.416a3.456,3.456,0,0,1,1.109.118,4.25,4.25,0,0,1-1.019.5c-.19.016-1.582-.364-2.436,1.773.11.048,2.436.175,2.531-1.488a2.559,2.559,0,0,1,1.071-.56,4.312,4.312,0,0,1-1.7,3.783c-2.04,0-2.159,2.089-2.206,2.422,2.562-.594,2.337-.986,2.562-2.233.4-.47.752-.864,1.05-1.244a.647.647,0,0,1,.171.34,2.337,2.337,0,0,0-.288,1.671,4.436,4.436,0,0,0,1.152,1.713c.056-.864.418-1.076.348-2.056a2.334,2.334,0,0,0-.955-1.358,1.235,1.235,0,0,0-.286-.494c.02-.026.036-.053.054-.079a.709.709,0,0,0,.12.036,1.752,1.752,0,0,0,.913,1.007,3.1,3.1,0,0,0,.907.145,2.784,2.784,0,0,1-.108.428,6.644,6.644,0,0,0,1.524-.356,1.718,1.718,0,0,0,.736-1.662c.222-.239.954-.81,1.493-1.379a2.705,2.705,0,0,0,1.584,1.762,9.749,9.749,0,0,1-1.223,1.691,2.543,2.543,0,0,0-1.6.9,3.107,3.107,0,0,0-.315,2.135,2.369,2.369,0,0,0,2.206-2.62c-.026-.248.424-.724.533-.873a9.939,9.939,0,0,0,.7-.9.316.316,0,0,1,.031.253,1.734,1.734,0,0,0,.946,2.346,5.9,5.9,0,0,1,.067-.955,1.42,1.42,0,0,0-.814-1.438.653.653,0,0,1-.112-.382,4.664,4.664,0,0,0,.837.186.942.942,0,0,0-.024.117,1.019,1.019,0,1,0,.078-.385c-.132-.03-.289-.066-.386-.09-.12-.046-.227-.094-.334-.142a5.044,5.044,0,0,0,.543-2.683,5.786,5.786,0,0,0-1.134-2.844c.664.2,2.118.685,2.371.821a.744.744,0,0,1-.009.382c-.072.132-1.231,1.07.276,2.608a7.3,7.3,0,0,0,.48-1.385,1.409,1.409,0,0,0-.522-1.182s-.046-.19-.066-.336a2.576,2.576,0,0,1,1.415,1.566,2.165,2.165,0,0,0-.886,2.9c.3-.416.89-.677,1.228-1.125.4-.525.02-1.524-.086-1.729a2.856,2.856,0,0,0-1.556-1.955c.166-.006.324.009.442.013a1.453,1.453,0,0,0,2.31-.115c-1.308-1.094-2.071-.312-2.335-.13-.227.157-.693.041-.818,0-.166-.087-.616-.283-1.124-.5a.55.55,0,0,1,.342-.175,2.493,2.493,0,0,0,2.8-2.323,8.51,8.51,0,0,1-1.338.325,2.036,2.036,0,0,0-1.613,1.743.924.924,0,0,1-.46.316c-.607-.257-1.235-.517-1.546-.645a19.11,19.11,0,0,0-3.248-3.07c.047-.19.247-.264.3-.314a5.809,5.809,0,0,0,1.93.031,3.44,3.44,0,0,0,1.434-1.185,2.371,2.371,0,0,1,.222.567,1.064,1.064,0,0,0-.414.832,1.084,1.084,0,1,0,1.084-1.084,1.044,1.044,0,0,0-.215.043,1.544,1.544,0,0,1-.433-.487c-.016-.033-.037-.073-.06-.114a1.534,1.534,0,0,0,.107-.171,1.135,1.135,0,0,1-.18.04c-.168-.291-.406-.661-.507-.814a25.9,25.9,0,0,1,2.934.6,1.6,1.6,0,0,0,.248.1,1.5,1.5,0,0,1,.035.228c-.411.938-.18,1.19-.111,1.329a6.256,6.256,0,0,1,.8,1.238,7.444,7.444,0,0,0,.211-1.742c-.128-.409-.629-.692-.734-.918a.585.585,0,0,1-.024-.077,5.044,5.044,0,0,1,.92.333c.507.352.7.934,1.31,1.136.8.267,1.387-.048,2.229-.071a3.049,3.049,0,0,0-1.53-1.607,4.668,4.668,0,0,0-1.921.1c-.108,0-.608-.275-1.493-.54a.169.169,0,0,1,.007-.206,13.4,13.4,0,0,1,.978-.94,1.035,1.035,0,0,1,.541-.055c.272.062.565.733,1.2.839a2.148,2.148,0,0,0,1.53-.357c-.44-.178-.482-.65-1.247-.881a3.1,3.1,0,0,0-1.424.22c-.043-.017-.2,0-.247-.07a1.073,1.073,0,0,1,.31-.2,4.488,4.488,0,0,0,1.644-.587c.408-.471.272-1.268.576-1.583a5.572,5.572,0,0,0-1.782.471,2.939,2.939,0,0,0-.594-1.268,2.129,2.129,0,0,0-2.007-.859c-.375-.1-1.437-1.022-1.118-1.556.284-.226.565-.427.834-.6a2.046,2.046,0,0,1,1.117.209,1.306,1.306,0,0,0,1.2.948,6.037,6.037,0,0,0,1.882-.253,2.507,2.507,0,0,0-1.772-1.124,2.615,2.615,0,0,0-1.233.222s-.443-.159-.7-.253a.426.426,0,0,1-.046-.026,10.231,10.231,0,0,1,1.252-.624,1.026,1.026,0,0,0,.83.442,1.045,1.045,0,0,0,0-2.09,1.025,1.025,0,0,0-.808.409,1.456,1.456,0,0,0-.412-1.416,5.441,5.441,0,0,1-.425.763,1.294,1.294,0,0,0,.116,1.5.5.5,0,0,1-.058.346A12.344,12.344,0,0,0,37.358,34.5c-.179.161-.273.176-.324.155-.015-.235-.031-.469-.064-.7a6.889,6.889,0,0,0-.276-1.147.625.625,0,0,1,.113-.346,1.558,1.558,0,0,1,.632-.338c.9.034,2.236.31,2.841-1.717-.183,0-2.489-.478-3,1.45a1.008,1.008,0,0,1-.829.291,20.973,20.973,0,0,0-1.051-2.231,7.248,7.248,0,0,1,.734-.839,1.69,1.69,0,0,1,.3-.1,2.089,2.089,0,0,1,.712.054,2.215,2.215,0,0,0,1.544.493c.928-.068,1.32-.762,1.589-.856a3.736,3.736,0,0,0-2.017-.417,1.474,1.474,0,0,0-1.1.512,4.422,4.422,0,0,1-.679-.022c.469-.441.916-.815,1.056-.92a3.08,3.08,0,0,0,1.666-.551,3,3,0,0,0,.592-2.032,3.524,3.524,0,0,0-1.914.786c-.478.418-.452,1.326-.506,1.528a7.026,7.026,0,0,1-1.125.959,1.906,1.906,0,0,1-.058-.7,2.127,2.127,0,0,0,.618-1.467c-.094-.565-.565-1.723-.591-1.9-1.493,1.993-.39,3.176-.256,3.338a7.286,7.286,0,0,0,0,.948c-.315.238-.623.465-.861.637l-.074-.132c-.9-1.6-1.288-2.526-1.083-3.69.054-.306.379-1.227-.055-1.8s-1.21-1.275-1.226-1.322a4.228,4.228,0,0,1-.063,1.322c-.135.594-.262,1.14.767,2.169a4.1,4.1,0,0,1-.917-1.006,1.363,1.363,0,0,0-.941-.728,5.075,5.075,0,0,0-1.273-.143,6.973,6.973,0,0,1,.7,1,1.15,1.15,0,0,0,1.242.784,2.529,2.529,0,0,1,.751.064,1.1,1.1,0,0,1,.435.578,9.212,9.212,0,0,0,.5,1.772.628.628,0,0,1-.224-.178,2.493,2.493,0,0,0-3.46-1.127,8.475,8.475,0,0,1,.99.957,2.036,2.036,0,0,0,2.335.433.851.851,0,0,1,.466.18c.223.56.472,1.112.722,1.63a.518.518,0,0,1-.262-.014,2.034,2.034,0,0,0-2.359-.274c-.219.137-.587.334-.868.469a2.449,2.449,0,0,0-1.468-1.165,8.448,8.448,0,0,1-.006,1.378,2.039,2.039,0,0,0,1.3,1.988.4.4,0,0,1,.118.272c-1.1-.579-1.941-1.086-2.531-1.476a2.138,2.138,0,0,1-.055-.5,2.366,2.366,0,0,0-.349-3.373,3.086,3.086,0,0,1-.363.855,2,2,0,0,0,.459,2.455,1.509,1.509,0,0,1,.086.416,3.853,3.853,0,0,1-.8-.637,3.106,3.106,0,0,1-.19-.824,1.878,1.878,0,0,0-1.36-1.52,5.58,5.58,0,0,1-1.233-.538c.221,2.882,1.455,2.787,1.9,2.913a1.873,1.873,0,0,1,.6.253,15.414,15.414,0,0,0,2.876,1.965.647.647,0,0,1-.238-.012,2.648,2.648,0,0,0-2.874.366,5.3,5.3,0,0,0-.57-1.5c-.642-1.073-2.8-2.636-3.906-4.22a.333.333,0,0,1,.109-.253c.127-.1.9-.6,1.028-.666a1.465,1.465,0,0,1,1.108.1,1.938,1.938,0,0,0,1.281.744,2.632,2.632,0,0,0,1.978-.649A4.34,4.34,0,0,0,26.35,25.9a1.931,1.931,0,0,0-1.408.38c-.158-.048-.759-.1-.6-.222a4.165,4.165,0,0,1,1.1-.514,1,1,0,0,0,.662.261,1.013,1.013,0,1,0-1.012-1.013.976.976,0,0,0,.05.245,4.673,4.673,0,0,1-1.022.879c-.079.031-.206-.127-.174-.317s.127-.238.127-.238.822-.44.922-.811a3.28,3.28,0,0,0,.1-.7c-.222.436-.644.623-1.546.719a2.152,2.152,0,0,0,.161.839c0,.174.047.712-.221.9s-.815.618-1.21.574a2.507,2.507,0,0,1-.348-1.271,1.46,1.46,0,0,1,.83-1.306c.158.04,1.676.024,2.072-.522s.625-1.433.949-1.568a3.075,3.075,0,0,0-2.412.452,1.9,1.9,0,0,0-.751,1.393,2.2,2.2,0,0,0-1.2,1.536,4.075,4.075,0,0,0,.226,1.286,4.641,4.641,0,0,1-.771-.111.41.41,0,0,1-.073-.209v-.554a1.947,1.947,0,0,0,.633-1c.094-.744-.491-1.584-.4-2.075-.205.238-1.772,1.868-.506,3.056,0,.152.08.464-.084.638a4.018,4.018,0,0,1-1.086-.585.766.766,0,0,0,.047-.258,6.017,6.017,0,0,0-.363-2.011,5.6,5.6,0,0,1-.773.924l0-.006a1.191,1.191,0,0,0-.3-1.662,5.005,5.005,0,0,1-.252-.475c-1.392,1.473.094,2.217.205,2.28.011.06.031.117.046.175l-.046.047a1.793,1.793,0,0,0-.079,2.042,3.922,3.922,0,0,0-.142,1.964c.138.8.02,2.265-.365,2.506a10.089,10.089,0,0,1-1.881-1.825,3.745,3.745,0,0,1-.2-.329,6.285,6.285,0,0,1,.224-.811c.091-.189.831-.192,1.131-.887.19-.438-.2-2.029-.035-2.4-.954.854-1.976,1.411-1.32,3.2a1.314,1.314,0,0,1-.156.586,8.583,8.583,0,0,1-.653-2.664s.353-.353.416-.45a1.779,1.779,0,0,0-.044-1.678c-.112-.243-.352-.906-.352-.906a5.154,5.154,0,0,0-.767,1.255,1.52,1.52,0,0,0,.278,1.8,7.493,7.493,0,0,0,.3,2.029.151.151,0,0,1-.126,0c-.094-.064-.68-.411-.68-.411s-.333-1.726-2.657-1.125a1.919,1.919,0,0,0,2.541,1.363,2.469,2.469,0,0,1,1.166.911,6.175,6.175,0,0,0,.582,1.2c.091.118.192.241.3.366a1.1,1.1,0,0,1-.647-.239,2.452,2.452,0,0,0-2.714-1.49,1.046,1.046,0,0,1,.086-.145,1.683,1.683,0,0,0-1.641.586c0-.017.006-.033.006-.05A1.163,1.163,0,1,0,9.33,30.622l.025,0-.025.009s.026.1.074.282c-.015-.007-.031-.012-.045-.019a1.871,1.871,0,0,0-2.726.156,6.408,6.408,0,0,1,.953.4,1.526,1.526,0,0,0,1.75-.334.262.262,0,0,1,.116-.025,32.972,32.972,0,0,0,2.157,5.665.355.355,0,0,1-.349.328c-.114,0-.46.034-.939.041l-.463-.492a2.737,2.737,0,0,0-2.794-3.017,9.175,9.175,0,0,1,.3,1.251c.064.286-.047,1.488,2.231,1.837a1.2,1.2,0,0,1,.375.421,9.3,9.3,0,0,1-3.285-.566,2.108,2.108,0,0,1-.048-.628,1.829,1.829,0,0,0-.745-2.5A2.7,2.7,0,0,1,5.8,34a1.672,1.672,0,0,0-.033,1.253.916.916,0,0,0-.124-.025.994.994,0,0,0,0,1.988.975.975,0,0,0,.8-.442c.106.044.219.089.344.134a.439.439,0,0,1-.142.224,3.1,3.1,0,0,1-.395.253,1.754,1.754,0,0,0-2.325.95c.316.079,1.772.4,2.42-.68a1.749,1.749,0,0,0,.751-.644,9.465,9.465,0,0,0,3.312.413,1.844,1.844,0,0,1-.465.2,2.494,2.494,0,0,0-2.779,2.35A8.5,8.5,0,0,1,8.5,39.64a2.036,2.036,0,0,0,1.6-1.758,1.869,1.869,0,0,1,.829-.477.222.222,0,0,0,.066-.022c.105-.011.208-.018.315-.033a1.41,1.41,0,0,1,.706.176,17.466,17.466,0,0,0,1.4,2.176l0,0a4.459,4.459,0,0,0-.983.856c-.1-.016-1.55-.221-1.613,2.138a3.518,3.518,0,0,0,1.466-.765,1.007,1.007,0,0,0-.05.25,1.036,1.036,0,1,0,1.144-1.016c-.013-.052-.254-1,.176-1.272l-.193.115a1.828,1.828,0,0,1,.2-.12,63.1,63.1,0,0,0,4.1,4.884c-.122.318-.5.436-1.28.626l-.016,0a1.54,1.54,0,0,1-.086-.473A1.937,1.937,0,0,0,14.9,42.464a6.509,6.509,0,0,1,.06,1.068,1.581,1.581,0,0,0,1.1,1.478.642.642,0,0,1,.136.42,2.163,2.163,0,0,1-1.646-.6,5.544,5.544,0,0,0-6-.258.879.879,0,0,1,.022-.32c.047-.127.7-.649.7-1.251a3.361,3.361,0,0,0-.474-1.71,5.924,5.924,0,0,1-.4.546,1.666,1.666,0,0,0-.012,2.383,1.247,1.247,0,0,1-.02.445l-.228.118c-.106-.064-.422-.271-.463-.515a2.537,2.537,0,0,0-3.4-2.034,9.271,9.271,0,0,1,.82,1.257,2.217,2.217,0,0,0,2.373,1.024.856.856,0,0,1,.478.363.314.314,0,0,1-.058.022,3.123,3.123,0,0,0-1.857.362,3.151,3.151,0,0,0-1.37,2.369c.3-.108.825-.169,1.445-.346a2.195,2.195,0,0,0,1.562,2.775s.4.712.6,1.023c.036.055-.308-.041-.581-.118-1.329-1.758-3.124-.507-3.527-.222.38,0,.926.878,1.589,1.045A2.484,2.484,0,0,0,7.6,51.364c.142-.166.973.2,1.186.269a5.907,5.907,0,0,0,2.952.632c-.276.276-.486.511-.57.608a1.083,1.083,0,1,0,.334.78,1.06,1.06,0,0,0-.118-.473,3.568,3.568,0,0,1,1.213-1c.391-.058.68-.127.781-.149.332-.071-.649,1.952-1.175,2.439-2.373.333-1.85,2.613-1.827,3.064.261-.475,1.424-.618,1.9-1.235a2.164,2.164,0,0,0,.309-1.638,9.5,9.5,0,0,0,1.435-3.047c.023.166.069.3.1.456A11.425,11.425,0,0,0,13.88,53.2c-.222.238-1.051,1.45.341,2.937a2.3,2.3,0,0,1,.287-.8,1.642,1.642,0,0,0-.3-2.1s-.082-.033.06-.615a4.307,4.307,0,0,0,2.468,2.586c.5,1.853,2.8,1.259,3.274,1.093-.5-.4-.308-.665-1.186-1.164a2.741,2.741,0,0,0-1.9-.214c-3.505-2-2.147-5.368-1.566-6.485a4.747,4.747,0,0,0,1.36,2.445.826.826,0,0,1-.151.356,1.132,1.132,0,1,0,.291.2l.155-.288a5.437,5.437,0,0,0,.49.358c.143.259.317.577.387.725-.063.238-.284,2.581,2.642,3.041a5.863,5.863,0,0,1-.221-.95,2.207,2.207,0,0,0-2.088-2.185,1.958,1.958,0,0,1-.293-.376,8.213,8.213,0,0,0,2.412.811,2.223,2.223,0,0,0,2.3.87c.087,1.916.1,4.081.049,5.485-.065,1.76,0,4.968-2.19,5.922-6.722.713-15.97,2.729-18.422,3.261v.2H47.447v-.2c-2.469-.536-11.834-2.577-18.567-3.276M41.33,31.453a3.913,3.913,0,0,0,.339-.441.664.664,0,0,0,.028.516q-.247.084-.483.182a1.044,1.044,0,0,1,.116-.257M12.545,41.445a1.8,1.8,0,0,0,.075-.709,4.4,4.4,0,0,1,.43-.47c.007.161.027.6.049.916a1.03,1.03,0,0,0-.555.264m2.628,6.061a7.552,7.552,0,0,0-1.372.522.591.591,0,0,1-.258-.395,1.971,1.971,0,0,0-.8-2.152,8.258,8.258,0,0,1-1.075-.785,2.412,2.412,0,0,0,1.644,3.109.744.744,0,0,1,.283.333c-.036.021-.074.039-.11.06-.164.1-.5.31-.5.31s-1.767-.877-2.8,1.3c-.11.31-.085.341.379.308s2.166.483,2.536-1.327a4.559,4.559,0,0,1,1.914-.988,10.3,10.3,0,0,0-1,2.964c-.309,1.544-4.323,1.123-5.106.529a5.854,5.854,0,0,1-1-1.366,1.935,1.935,0,0,0-.664-2.363c-.194-.125-.44-.3-.647-.447.073-.026.14-.044.214-.075.751-.318,1.1-1.8,1.216-1.9.117-.059.224-.105.336-.159l.164.308S7.41,47.118,9.806,48.1c0-.118.1-.815.1-1.4,0-.323-.459-1.4-1.249-1.449L8.541,44.9c3.548-1.621,4.685-.331,5.692.673a4.174,4.174,0,0,1,.957,1.906l-.017.03m13.734-2.932c-.375-1.243-.684-2.281-1-3.176a2.288,2.288,0,0,0,2.4.384.923.923,0,0,1,.35.023,7.762,7.762,0,0,1,.434,1.317.7.7,0,0,1-.046.42c-.57.5-1.087.915-1.482,1.212-.551.1-.54.034-.652-.18m9.355,2.765a6.044,6.044,0,0,1,1.022,2.387,4.758,4.758,0,0,1-.368,2.478c-1.729-.945-1.267-2.025-1.267-2.025h0c0-.008.012-.017.017-.026a4.735,4.735,0,0,0,.6-2.815m-3.287-3.21a.988.988,0,0,1,.282.66,2.876,2.876,0,0,0-.676,1.784,4.379,4.379,0,0,0,.951,2.152c-.009-.606.678-1.105.8-2.236a2.65,2.65,0,0,0-.8-1.715,2.514,2.514,0,0,0-.064-.322A10.8,10.8,0,0,1,37.4,46.2a3.137,3.137,0,0,1,.269,2.123c-.248.368-1.313,1.649-3.527.5-.1-.059-.264-.161-.387-.237l0-.008a1.681,1.681,0,0,0-1.131-1.6,7.074,7.074,0,0,1-1.058-.411,2.022,2.022,0,0,0,1.985,2.194c.385.32,2.231,1.7,3.961.341-.022.084-.04.165-.065.254a4.438,4.438,0,0,1-.922,1.614,1.447,1.447,0,0,1-.519-.1,2,2,0,0,0-2.921.047,6.816,6.816,0,0,1,1,.469,1.634,1.634,0,0,0,1.886-.281.708.708,0,0,1,.416.021,6.527,6.527,0,0,1-.921.836s-1.181.079-1.536.625a2.286,2.286,0,0,0-.248.55,3.034,3.034,0,0,0-.544-.622,1.8,1.8,0,0,0-1.329-.066,1.1,1.1,0,0,0-.111-.029,3.327,3.327,0,0,0,.594-2.156c-.09-1.794-1.974-3.051-2.562-3.4l.036-.031a19.126,19.126,0,0,0,1.676-1.67.738.738,0,0,1,.247.137,1.788,1.788,0,0,0,2.524.665,6.065,6.065,0,0,1-.748-.645,1.46,1.46,0,0,0-1.69-.214.459.459,0,0,1-.232-.055c.521-.571,1.062-1.19,1.563-1.778a8.234,8.234,0,0,1,1.876.86m3.159-3.295c.053.089.092.16.136.237a12.814,12.814,0,0,0-1.892-.094c-.648.127-1.25,1.046-1.36,1.315a1.142,1.142,0,0,0-.482.424c-.025-.015-.057-.036-.074-.044a4.755,4.755,0,0,1-.583-.327c.406-.488.745-.9.964-1.177.166-.207.308-.416.454-.624a1.286,1.286,0,0,1,.733-.469,11.213,11.213,0,0,1,1.445.085c.3.091.474.389.66.675m4.455-3.262a2.6,2.6,0,0,0-.252.888,3.913,3.913,0,0,1-.786.754c-.282.241-.586.44-1.089.9-.032.012-.093.037-.159.062-.105-.024-.207-.05-.32-.073-.512-.1-1.128-.18-1.721-.26a.344.344,0,0,1,.013-.294c.11-.158.19-.253.19-.253a5.155,5.155,0,0,0,1.74-.554,5.173,5.173,0,0,0,1.209-1.586,3.225,3.225,0,0,0,1.173.414M37,36.116a5.131,5.131,0,0,1,.509-.99,10.63,10.63,0,0,1,1.133-1.238.271.271,0,0,1,.282.127,5.81,5.81,0,0,0,1.281,1.12,2.742,2.742,0,0,0,.727,1.642,4.8,4.8,0,0,0-1.724.749,1.781,1.781,0,0,0-.9,1.647c-.126.14-.3.488-.63.592-.816-.123-1.481-.271-1.594-.531A9.022,9.022,0,0,0,37,36.116m-5.593-5.21a2.569,2.569,0,0,0,3.075-.5.555.555,0,0,1,.3-.1,19.434,19.434,0,0,1,1.062,2.311c.031.118.062.241.092.368l-.022-.026s-.132.026-.338-.149a2.492,2.492,0,0,0-3.594-.567,8.482,8.482,0,0,1,1.128.789,2.036,2.036,0,0,0,2.373.06.865.865,0,0,1,.5.11,7.645,7.645,0,0,1,0,3.248,11.979,11.979,0,0,0-3.282-2.882c-.441-.212-.849-.417-1.233-.617a.922.922,0,0,1-.144-.521,3.938,3.938,0,0,0,.092-1.523M30,33.055a.833.833,0,0,1,.449-.133c1,.558,1.9,1,2.21,1.214a8.573,8.573,0,0,1,1.549,1.43,4.984,4.984,0,0,1-.882.406c-.041.018-.132.039-.172.055a3.005,3.005,0,0,1-2.109-.039,2.079,2.079,0,0,0-1.333-2.546A2.659,2.659,0,0,0,30,33.055M27.26,35.432a8.585,8.585,0,0,0-.039-1.425c.238.031.484.07.656.108a1.967,1.967,0,0,0,1.7-.538c.068.488.094,1.107.176,1.589.111.649.87.918,1.091.982a2.854,2.854,0,0,0,2.489.2c-.108.125-.3.236-.386.32a1.388,1.388,0,0,0-1.423,1.758c1.693-.206,1.645-1.3,1.692-1.615.041-.272.445-.533.556-.6a7.252,7.252,0,0,0,.715-.292,4.043,4.043,0,0,1,.877,2.365,16.754,16.754,0,0,1-3.6,4.6c-.063-.032-.089-.083-.157-.094-.137-.341-.288-.661-.445-.969a.789.789,0,0,1,.237-.356,2.038,2.038,0,0,0,1.612-1.745,8.443,8.443,0,0,1,.221-1.359,2.5,2.5,0,0,0-2.1,2.974.607.607,0,0,1-.075.281,13.772,13.772,0,0,0-1.8-2.625A2.137,2.137,0,0,0,27,37.069a10.264,10.264,0,0,0,.256-1.637m-.55,2.706a2.624,2.624,0,0,0,2.241,1.136A8.209,8.209,0,0,1,30.6,41.669a.312.312,0,0,1-.238-.135,1.743,1.743,0,0,0-1.772-.993,9.033,9.033,0,0,1-.969.089A9.646,9.646,0,0,0,26.552,38.6q.086-.235.159-.463m.7,7.1a.859.859,0,0,1-.258.884c-.24.075-.474.133-.735.205-.127.024-.556-.034-.58-.979a34.843,34.843,0,0,1,.228-4.705,21.269,21.269,0,0,1,1.345,4.6M18.106,27.167a3.448,3.448,0,0,0,.984-.7,9.919,9.919,0,0,0,2.577,1.161,1.211,1.211,0,0,1,.4.232,14.55,14.55,0,0,0,2.775,3.22,4.734,4.734,0,0,1,1.232,3.12.5.5,0,0,1-.185-.1,9.115,9.115,0,0,1-.616-.693s-.018-2.532-3.186-2.5c.025.161.555,2.177,1.836,2.556.309.1.969.064,1.211.271a3.522,3.522,0,0,1,.929.979,8.76,8.76,0,0,1-.632,2.636c-.211-.192-.435-.382-.685-.57-1.262-.844-2.487-1.663-3.618-2.44a1.347,1.347,0,0,1-.051-.458c.032-.222.649-.887.6-1.441a2.46,2.46,0,0,0-.537-1.362c-.285-.349-.443-.459-.443-.665-.158.316-1.582,2.217.031,3.436a.407.407,0,0,1,.109.291c-1.093-.753-2.084-1.46-2.924-2.107a.755.755,0,0,1-.032-.456,5.3,5.3,0,0,0,.145-1.831c.015-.256-.031-.488.185-.514a2.109,2.109,0,0,1,.734.151.946.946,0,0,0-.016.118.944.944,0,1,0,.876-.98.94.94,0,0,0-.829.637c-.117-.018-.329-.05-.522-.083.055-.109.146-.2.186-.2a1.072,1.072,0,0,0,1.043-.685,4.348,4.348,0,0,1,.285-.666,1.212,1.212,0,0,0-1.447,1.251c-.011.111-.182.222-.268.269l-.082-.016a.389.389,0,0,1-.257-.187c-.014-.085-.023-.162-.041-.252a2.5,2.5,0,0,1,.227-1.42M9.8,30.522a1.153,1.153,0,0,0,.28-.18c-.033.123-.055.224-.069.26a1.064,1.064,0,0,1-.123.222Zm5.877,6.484a8.439,8.439,0,0,1-.9-1.041c-1.085,2.265.228,3.329.939,3.518.157.042.291.408.374.7-.078.228-.149.461-.212.7a1.785,1.785,0,0,0-.044.205,22.821,22.821,0,0,1-1.756-1.892c-.214-.279-.573-.781-1-1.447A1.068,1.068,0,0,1,13.032,37c.111-.475.474-1.774,1.266-2.027a1.79,1.79,0,0,0,1.329.744,2.138,2.138,0,0,0,1.486-.491,2.062,2.062,0,0,0-2.847-.491c-.156.047-1.132.379-1.566,2.4-.361-.6-.75-1.289-1.133-2.053a.823.823,0,0,1,.084-.567,2.13,2.13,0,0,0,.934-2.3A8.847,8.847,0,0,1,12.3,30.8a2.608,2.608,0,0,0-.957,3.681,1.3,1.3,0,0,1,.042.222,24.04,24.04,0,0,1-1.437-3.673l-.022-.075a.515.515,0,0,1,.247-.208,1.512,1.512,0,0,0,1.513-.906c.007-.016.017-.04.024-.057a2.485,2.485,0,0,1,.4.469c.238.4.506,1.2,2.484.68a3.349,3.349,0,0,1,1.175.265c.189.2.4.4.618.613a.236.236,0,0,1,0,.041c-.074.365-.813.741-.813.741a2.11,2.11,0,0,0-2.48,1.983,10.449,10.449,0,0,0,1.859-.372c.607-.233.782-1.1.782-1.37a3.826,3.826,0,0,1,1.194-.526,43.327,43.327,0,0,0,3.932,3.06,2.972,2.972,0,0,1-.523.791,4.577,4.577,0,0,1-1.463.856.708.708,0,0,0,0-.605.917.917,0,0,0,.7-.884.93.93,0,1,0-.93.931l.012,0a.858.858,0,0,1-.214.77,3.737,3.737,0,0,0-.865.565,5.446,5.446,0,0,0-1.373,2.063,1.264,1.264,0,0,1-.223-.494,2.041,2.041,0,0,0-.307-2.357m6.983,14.94a2.28,2.28,0,0,0-2.2.249,4.5,4.5,0,0,1-3.583-2.019,4.716,4.716,0,0,1-.455-.685s0-.015.009-.017c.171-.067.36-.179.485-.153a.924.924,0,0,1,.512.336c.036.165.19,1.675,2.164,1.5a1.814,1.814,0,0,1-.272-.4,1.59,1.59,0,0,0-1.693-1.224c-.062-.04-.5-.289-.382-.354a.443.443,0,0,1,.3-.038,2.253,2.253,0,0,0,3.061-.661,4.072,4.072,0,0,1-.49-.14,2.143,2.143,0,0,0-2.608.5,5.683,5.683,0,0,1-1.235.327,3.1,3.1,0,0,1-.009-2.692,3.134,3.134,0,0,1,2.853-.226l-.007-.012c.681.648,1.36,1.244,2.042,1.778a4.315,4.315,0,0,1,1.518,3.527c0,.127,0,.27-.006.4m-.647-5.9a41.891,41.891,0,0,1-4.235-3.1c-.245-.226-.542-.5-.858-.805a1.184,1.184,0,0,1-.146-.892,9.389,9.389,0,0,1,.4-1.607.572.572,0,0,1,.371-.024,5.162,5.162,0,0,0,.695.155,1.339,1.339,0,0,1,.483.384,1.657,1.657,0,0,0,1.148,1.614,6.267,6.267,0,0,1,.782.262,1.864,1.864,0,0,0-1.79-2.046.685.685,0,0,1-.235-.166,3.685,3.685,0,0,0,2.587-.646,2.035,2.035,0,0,0,1.582-.269c.49-.459.553-.982.964-1.108-.411-.127-2.182-.57-2.657,1.093a2.653,2.653,0,0,1-2.02.563.394.394,0,0,1,.141-.185,1.25,1.25,0,0,0,1.033-1.028,5.173,5.173,0,0,1,.171-.828,1.531,1.531,0,0,0-1.363,1.769,1.033,1.033,0,0,1-.077.263,6.752,6.752,0,0,1-1.446-.247.9.9,0,0,1-.146-.106,4.34,4.34,0,0,1,.552-.9c.611-.75,1.8-1.011,2.475-1.56a2.366,2.366,0,0,0,.733-1.057c.8.553,1.607,1.075,2.368,1.54a4.969,4.969,0,0,1,1.4,1.41,18.064,18.064,0,0,0-1.425,4.908c-.031.192-.059.357-.086.521a.541.541,0,0,1-.105-.313,2.5,2.5,0,0,0-2.147-2.94,8.5,8.5,0,0,1,.243,1.357,2.039,2.039,0,0,0,1.64,1.718.974.974,0,0,1,.3.551,5.906,5.906,0,0,1-.454,1.756c-.142.262-.344.285-.878-.036" transform="translate(-0.358 -3.814)" fill="#fff"/>
  <path id="Path_387" data-name="Path 387" d="M1.564,65.115V5.959l.122-.04A78.675,78.675,0,0,1,24.417,2.074c.153,0,.3,0,.445,0a80.025,80.025,0,0,1,22.713,3.87l.116.043V65.134Zm.356-.358,45.419.015V6.241A80.005,80.005,0,0,0,24.859,2.428V2.251l0,.177c-.144,0-.29,0-.439,0A78.472,78.472,0,0,0,1.92,6.214Z" transform="translate(-0.27 -0.357)" fill="#fff"/>
  <path id="Path_388" data-name="Path 388" d="M48.791,66.208H0V4.441l.2-.078C6.512,1.935,17.729,0,24.637,0V.62A82.872,82.872,0,0,0,.622,4.866V65.587H48.169V4.6c-.722-.245-3.3-1.1-7-1.955A74.864,74.864,0,0,0,24.637.62V0A79.614,79.614,0,0,1,48.584,4.081l.207.074" fill="#fff"/>
</svg>
