<svg xmlns="http://www.w3.org/2000/svg" width="22.864" height="22.858" viewBox="0 0 22.864 22.858"><path d="M11.429,7.806a5.861,5.861,0,1,0,5.861,5.861A5.851,5.851,0,0,0,11.429,7.806Zm0,9.671a3.81,3.81,0,1,1,3.81-3.81,3.817,3.817,0,0,1-3.81,3.81ZM18.9,7.567A1.367,1.367,0,1,1,17.529,6.2,1.364,1.364,0,0,1,18.9,7.567Zm3.882,1.387a6.765,6.765,0,0,0-1.846-4.789,6.809,6.809,0,0,0-4.789-1.846c-1.887-.107-7.544-.107-9.431,0A6.8,6.8,0,0,0,1.921,4.159,6.787,6.787,0,0,0,.075,8.949c-.107,1.887-.107,7.544,0,9.431a6.765,6.765,0,0,0,1.846,4.789,6.818,6.818,0,0,0,4.789,1.846c1.887.107,7.544.107,9.431,0a6.765,6.765,0,0,0,4.789-1.846,6.809,6.809,0,0,0,1.846-4.789c.107-1.887.107-7.539,0-9.426ZM20.34,20.4a3.857,3.857,0,0,1-2.173,2.173c-1.5.6-5.075.459-6.738.459s-5.238.133-6.738-.459A3.857,3.857,0,0,1,2.518,20.4c-.6-1.5-.459-5.075-.459-6.738s-.133-5.238.459-6.738A3.857,3.857,0,0,1,4.691,4.756c1.5-.6,5.075-.459,6.738-.459s5.238-.133,6.738.459A3.857,3.857,0,0,1,20.34,6.929c.6,1.5.459,5.075.459,6.738S20.937,18.905,20.34,20.4Z" transform="translate(0.005 -2.238)" fill="#fff"/></svg>