<svg xmlns="http://www.w3.org/2000/svg" width="26.115" height="21.21" viewBox="0 0 26.115 21.21"><path d="M23.431,8.667c.017.232.017.464.017.7A15.124,15.124,0,0,1,8.219,24.591,15.125,15.125,0,0,1,0,22.188a11.072,11.072,0,0,0,1.292.066,10.719,10.719,0,0,0,6.645-2.287,5.362,5.362,0,0,1-5-3.712,6.75,6.75,0,0,0,1.011.083,5.661,5.661,0,0,0,1.408-.182A5.353,5.353,0,0,1,1.06,10.9v-.066a5.39,5.39,0,0,0,2.419.679A5.36,5.36,0,0,1,1.823,4.358a15.214,15.214,0,0,0,11.036,5.6,6.042,6.042,0,0,1-.133-1.226,5.357,5.357,0,0,1,9.263-3.662,10.538,10.538,0,0,0,3.4-1.292,5.338,5.338,0,0,1-2.353,2.95A10.73,10.73,0,0,0,26.115,5.9a11.505,11.505,0,0,1-2.684,2.767Z" transform="translate(0 -3.381)" fill="#fff"/></svg>