<svg xmlns="http://www.w3.org/2000/svg" width="27.856" height="19.586" viewBox="0 0 27.856 19.586"><path d="M28.324,7.565a3.5,3.5,0,0,0-2.463-2.479C23.689,4.5,14.978,4.5,14.978,4.5s-8.711,0-10.883.586A3.5,3.5,0,0,0,1.632,7.565a36.718,36.718,0,0,0-.582,6.748,36.718,36.718,0,0,0,.582,6.748A3.448,3.448,0,0,0,4.095,23.5c2.172.586,10.883.586,10.883.586s8.711,0,10.883-.586a3.448,3.448,0,0,0,2.463-2.439,36.718,36.718,0,0,0,.582-6.748,36.718,36.718,0,0,0-.582-6.748ZM12.129,18.455V10.171l7.281,4.142-7.281,4.142Z" transform="translate(-1.05 -4.5)" fill="#fff"/></svg>